%TF.GenerationSoftware,KiCad,Pcbnew,(6.0.1-0)*%
%TF.CreationDate,2022-03-18T18:53:44-04:00*%
%TF.ProjectId,Tahoe HAM panel,5461686f-6520-4484-914d-2070616e656c,rev?*%
%TF.SameCoordinates,Original*%
%TF.FileFunction,Legend,Top*%
%TF.FilePolarity,Positive*%
%FSLAX46Y46*%
G04 Gerber Fmt 4.6, Leading zero omitted, Abs format (unit mm)*
G04 Created by KiCad (PCBNEW (6.0.1-0)) date 2022-03-18 18:53:44*
%MOMM*%
%LPD*%
G01*
G04 APERTURE LIST*
%ADD10C,0.150000*%
G04 APERTURE END LIST*
D10*
X256130952Y-57952380D02*
X256130952Y-58666666D01*
X256083333Y-58809523D01*
X255988095Y-58904761D01*
X255845238Y-58952380D01*
X255750000Y-58952380D01*
X257083333Y-58952380D02*
X256607142Y-58952380D01*
X256607142Y-57952380D01*
X257988095Y-58857142D02*
X257940476Y-58904761D01*
X257797619Y-58952380D01*
X257702380Y-58952380D01*
X257559523Y-58904761D01*
X257464285Y-58809523D01*
X257416666Y-58714285D01*
X257369047Y-58523809D01*
X257369047Y-58380952D01*
X257416666Y-58190476D01*
X257464285Y-58095238D01*
X257559523Y-58000000D01*
X257702380Y-57952380D01*
X257797619Y-57952380D01*
X257940476Y-58000000D01*
X257988095Y-58047619D01*
X258702380Y-57952380D02*
X258702380Y-58666666D01*
X258654761Y-58809523D01*
X258559523Y-58904761D01*
X258416666Y-58952380D01*
X258321428Y-58952380D01*
X259654761Y-58952380D02*
X259178571Y-58952380D01*
X259178571Y-57952380D01*
X260559523Y-58857142D02*
X260511904Y-58904761D01*
X260369047Y-58952380D01*
X260273809Y-58952380D01*
X260130952Y-58904761D01*
X260035714Y-58809523D01*
X259988095Y-58714285D01*
X259940476Y-58523809D01*
X259940476Y-58380952D01*
X259988095Y-58190476D01*
X260035714Y-58095238D01*
X260130952Y-58000000D01*
X260273809Y-57952380D01*
X260369047Y-57952380D01*
X260511904Y-58000000D01*
X260559523Y-58047619D01*
X261273809Y-57952380D02*
X261273809Y-58666666D01*
X261226190Y-58809523D01*
X261130952Y-58904761D01*
X260988095Y-58952380D01*
X260892857Y-58952380D01*
X262226190Y-58952380D02*
X261750000Y-58952380D01*
X261750000Y-57952380D01*
X263130952Y-58857142D02*
X263083333Y-58904761D01*
X262940476Y-58952380D01*
X262845238Y-58952380D01*
X262702380Y-58904761D01*
X262607142Y-58809523D01*
X262559523Y-58714285D01*
X262511904Y-58523809D01*
X262511904Y-58380952D01*
X262559523Y-58190476D01*
X262607142Y-58095238D01*
X262702380Y-58000000D01*
X262845238Y-57952380D01*
X262940476Y-57952380D01*
X263083333Y-58000000D01*
X263130952Y-58047619D01*
X263845238Y-57952380D02*
X263845238Y-58666666D01*
X263797619Y-58809523D01*
X263702380Y-58904761D01*
X263559523Y-58952380D01*
X263464285Y-58952380D01*
X264797619Y-58952380D02*
X264321428Y-58952380D01*
X264321428Y-57952380D01*
X265702380Y-58857142D02*
X265654761Y-58904761D01*
X265511904Y-58952380D01*
X265416666Y-58952380D01*
X265273809Y-58904761D01*
X265178571Y-58809523D01*
X265130952Y-58714285D01*
X265083333Y-58523809D01*
X265083333Y-58380952D01*
X265130952Y-58190476D01*
X265178571Y-58095238D01*
X265273809Y-58000000D01*
X265416666Y-57952380D01*
X265511904Y-57952380D01*
X265654761Y-58000000D01*
X265702380Y-58047619D01*
M02*
