M48
; DRILL file {KiCad (5.1.9-0-10_14)} date Monday, March 15, 2021 at 06:18:11 PM
; FORMAT={-:-/ absolute / inch / decimal}
; #@! TF.CreationDate,2021-03-15T18:18:11-04:00
; #@! TF.GenerationSoftware,Kicad,Pcbnew,(5.1.9-0-10_14)
; #@! TF.FileFunction,Plated,1,2,PTH
FMAT,2
INCH
T1C0.0236
T2C0.0300
T3C0.0315
T4C0.0340
T5C0.0350
T6C0.0394
T7C0.0472
T8C0.0945
T9C0.1693
%
G90
G05
T1
X2.7864Y-0.7874
X2.8236Y-0.6976
X2.8236Y-0.8772
X2.9134Y-0.6604
X2.9134Y-0.9144
X3.0032Y-0.6976
X3.0032Y-0.8772
X3.0404Y-0.7874
X6.251Y-0.7874
X6.2882Y-0.6976
X6.2882Y-0.8772
X6.378Y-0.6604
X6.378Y-0.9144
X6.4677Y-0.6976
X6.4677Y-0.8772
X6.5049Y-0.7874
T2
X4.3768Y-0.7291
X4.3768Y-1.4772
X4.8492Y-0.7291
X4.8886Y-1.4772
T3
X2.7634Y-1.5606
X2.7634Y-1.8606
X2.902Y-1.6138
X2.902Y-1.8106
X3.0299Y-1.6138
X3.0299Y-1.8106
X3.148Y-1.6138
X3.148Y-1.8106
X3.2894Y-0.6547
X3.2894Y-0.9547
X3.3472Y-1.1827
X3.3551Y-1.35
X3.4075Y-0.6567
X3.4075Y-0.9567
X3.5441Y-1.1827
X3.552Y-1.35
X3.6398Y-0.6693
X3.6831Y-0.8071
X3.6831Y-1.3071
X3.6972Y-1.6134
X3.6972Y-1.8102
X3.8154Y-1.6134
X3.8154Y-1.8102
X3.8366Y-0.6693
X3.9354Y-1.6134
X3.9354Y-1.8102
X4.0555Y-1.6134
X4.0555Y-1.8102
X4.2232Y-0.6295
X4.4201Y-0.6295
X4.6961Y-0.6303
X4.8929Y-0.6303
X5.3917Y-0.6732
X5.5602Y-0.7819
X5.5602Y-1.2819
X5.5886Y-0.6732
X5.6803Y-1.2598
X5.6819Y-1.1291
X5.815Y-0.6299
X5.815Y-0.9299
X5.8772Y-1.2598
X5.8787Y-1.1291
X5.9409Y-0.6299
X5.9409Y-0.9299
X6.2559Y-1.5906
X6.5559Y-1.5906
T4
X3.8976Y-0.8353
X3.8976Y-1.2953
X5.3772Y-0.84
X5.3772Y-1.3
T5
X3.1024Y-1.0436
X3.1024Y-1.5236
X3.2402Y-1.0456
X3.2402Y-1.5256
X6.0433Y-1.0138
X6.0433Y-1.4938
X6.2008Y-1.0138
X6.2008Y-1.4938
T6
X2.7748Y-1.0449
X2.7748Y-1.3449
X2.7748Y-1.4449
X2.9748Y-1.0449
X2.9748Y-1.3449
X2.9748Y-1.4449
X6.3236Y-1.0606
X6.3236Y-1.3606
X6.3236Y-1.4606
X6.5236Y-1.0606
X6.5236Y-1.3606
X6.5236Y-1.4606
T7
X3.3228Y-1.7232
X3.4228Y-1.7232
X3.5228Y-1.7232
X4.1378Y-1.0236
X4.1378Y-1.2236
X5.0935Y-1.0226
X5.0935Y-1.2226
T8
X5.2594Y-1.474
X5.2594Y-1.7937
X5.4193Y-1.6339
X5.5791Y-1.474
X5.5791Y-1.7937
T9
X2.9134Y-0.7874
X6.378Y-0.7874
T0
M30
