%TF.GenerationSoftware,KiCad,Pcbnew,(5.1.9-0-10_14)*%
%TF.CreationDate,2021-03-15T18:18:09-04:00*%
%TF.ProjectId,RX Loop 100x35,5258204c-6f6f-4702-9031-30307833352e,rev?*%
%TF.SameCoordinates,Original*%
%TF.FileFunction,Copper,L2,Bot*%
%TF.FilePolarity,Positive*%
%FSLAX46Y46*%
G04 Gerber Fmt 4.6, Leading zero omitted, Abs format (unit mm)*
G04 Created by KiCad (PCBNEW (5.1.9-0-10_14)) date 2021-03-15 18:18:09*
%MOMM*%
%LPD*%
G01*
G04 APERTURE LIST*
%TA.AperFunction,ComponentPad*%
%ADD10C,5.000000*%
%TD*%
%TA.AperFunction,ComponentPad*%
%ADD11C,1.600000*%
%TD*%
%TA.AperFunction,ComponentPad*%
%ADD12R,1.905000X2.000000*%
%TD*%
%TA.AperFunction,ComponentPad*%
%ADD13O,1.905000X2.000000*%
%TD*%
%TA.AperFunction,ComponentPad*%
%ADD14C,2.000000*%
%TD*%
%TA.AperFunction,ComponentPad*%
%ADD15R,2.000000X2.000000*%
%TD*%
%TA.AperFunction,ComponentPad*%
%ADD16R,1.600000X1.600000*%
%TD*%
%TA.AperFunction,ComponentPad*%
%ADD17O,1.600000X1.600000*%
%TD*%
%TA.AperFunction,ComponentPad*%
%ADD18C,8.600000*%
%TD*%
%TA.AperFunction,ComponentPad*%
%ADD19C,0.900000*%
%TD*%
%TA.AperFunction,ComponentPad*%
%ADD20O,2.400000X2.400000*%
%TD*%
%TA.AperFunction,ComponentPad*%
%ADD21C,2.400000*%
%TD*%
%TA.AperFunction,ComponentPad*%
%ADD22R,1.397000X1.397000*%
%TD*%
%TA.AperFunction,ComponentPad*%
%ADD23C,1.397000*%
%TD*%
%TA.AperFunction,ComponentPad*%
%ADD24C,1.371600*%
%TD*%
%TA.AperFunction,ComponentPad*%
%ADD25R,1.371600X1.371600*%
%TD*%
%TA.AperFunction,ComponentPad*%
%ADD26C,1.524000*%
%TD*%
%TA.AperFunction,Conductor*%
%ADD27C,0.500000*%
%TD*%
%TA.AperFunction,Conductor*%
%ADD28C,0.254000*%
%TD*%
%TA.AperFunction,Conductor*%
%ADD29C,0.100000*%
%TD*%
G04 APERTURE END LIST*
D10*
%TO.P,J1,1*%
%TO.N,Net-(J1-Pad1)*%
X137650000Y-41500000D03*
%TO.P,J1,2*%
%TO.N,GND*%
X141710000Y-45560000D03*
X133590000Y-37440000D03*
X133590000Y-45560000D03*
X141710000Y-37440000D03*
%TD*%
D11*
%TO.P,C4,1*%
%TO.N,Net-(C4-Pad1)*%
X149280000Y-32000000D03*
%TO.P,C4,2*%
%TO.N,GND*%
X144280000Y-32000000D03*
%TD*%
D12*
%TO.P,U1,1*%
%TO.N,Net-(C11-Pad1)*%
X89480000Y-43770000D03*
D13*
%TO.P,U1,2*%
%TO.N,GND*%
X86940000Y-43770000D03*
%TO.P,U1,3*%
%TO.N,+12V*%
X84400000Y-43770000D03*
%TD*%
D14*
%TO.P,K2,5*%
%TO.N,Net-(K2-Pad5)*%
X165700000Y-26940000D03*
%TO.P,K2,6*%
X160620000Y-26940000D03*
%TO.P,K2,2*%
%TO.N,+12V*%
X165700000Y-34560000D03*
D15*
%TO.P,K2,1*%
%TO.N,GND*%
X165700000Y-37100000D03*
D14*
%TO.P,K2,9*%
X160620000Y-34560000D03*
%TO.P,K2,10*%
%TO.N,Net-(K2-Pad10)*%
X160620000Y-37100000D03*
%TD*%
%TO.P,K1,5*%
%TO.N,Net-(K1-Pad5)*%
X75560000Y-26540000D03*
%TO.P,K1,6*%
X70480000Y-26540000D03*
%TO.P,K1,2*%
%TO.N,GND*%
X75560000Y-34160000D03*
D15*
%TO.P,K1,1*%
X75560000Y-36700000D03*
D14*
%TO.P,K1,9*%
%TO.N,+12V*%
X70480000Y-34160000D03*
%TO.P,K1,10*%
%TO.N,Net-(K1-Pad10)*%
X70480000Y-36700000D03*
%TD*%
D16*
%TO.P,D6,1*%
%TO.N,+12V*%
X158900000Y-40400000D03*
D17*
%TO.P,D6,2*%
%TO.N,GND*%
X166520000Y-40400000D03*
%TD*%
D16*
%TO.P,D5,1*%
%TO.N,+12V*%
X70190000Y-39640000D03*
D17*
%TO.P,D5,2*%
%TO.N,GND*%
X70190000Y-47260000D03*
%TD*%
D11*
%TO.P,C5,2*%
%TO.N,GND*%
X136950000Y-17100000D03*
%TO.P,C5,1*%
%TO.N,Net-(C5-Pad1)*%
X141950000Y-17100000D03*
%TD*%
D18*
%TO.P,LOOP1,1*%
%TO.N,Net-(K1-Pad5)*%
X74000000Y-20000000D03*
D19*
X77225000Y-20000000D03*
X76280419Y-22280419D03*
X74000000Y-23225000D03*
X71719581Y-22280419D03*
X70775000Y-20000000D03*
X71719581Y-17719581D03*
X74000000Y-16775000D03*
X76280419Y-17719581D03*
%TD*%
%TO.P,LOOP2,1*%
%TO.N,Net-(K2-Pad5)*%
X164280419Y-17719581D03*
X162000000Y-16775000D03*
X159719581Y-17719581D03*
X158775000Y-20000000D03*
X159719581Y-22280419D03*
X162000000Y-23225000D03*
X164280419Y-22280419D03*
X165225000Y-20000000D03*
D18*
X162000000Y-20000000D03*
%TD*%
D11*
%TO.P,C1,2*%
%TO.N,GND*%
X85220000Y-34290000D03*
%TO.P,C1,1*%
%TO.N,Net-(C1-Pad1)*%
X90220000Y-34290000D03*
%TD*%
%TO.P,C2,1*%
%TO.N,Net-(C2-Pad1)*%
X97450000Y-17000000D03*
%TO.P,C2,2*%
%TO.N,GND*%
X92450000Y-17000000D03*
%TD*%
%TO.P,C7,2*%
%TO.N,GND*%
X93910000Y-40980000D03*
%TO.P,C7,1*%
%TO.N,Net-(C11-Pad1)*%
X93910000Y-45980000D03*
%TD*%
%TO.P,C8,1*%
%TO.N,+12V*%
X79960000Y-45990000D03*
%TO.P,C8,2*%
%TO.N,GND*%
X79960000Y-40990000D03*
%TD*%
%TO.P,C9,1*%
%TO.N,Net-(C11-Pad1)*%
X96910000Y-45980000D03*
%TO.P,C9,2*%
%TO.N,GND*%
X96910000Y-40980000D03*
%TD*%
%TO.P,C10,2*%
%TO.N,GND*%
X76960000Y-40990000D03*
%TO.P,C10,1*%
%TO.N,+12V*%
X76960000Y-45990000D03*
%TD*%
%TO.P,C11,2*%
%TO.N,GND*%
X99960000Y-40980000D03*
%TO.P,C11,1*%
%TO.N,Net-(C11-Pad1)*%
X99960000Y-45980000D03*
%TD*%
%TO.P,C12,2*%
%TO.N,Net-(C12-Pad2)*%
X107270000Y-15990000D03*
%TO.P,C12,1*%
%TO.N,/P1*%
X112270000Y-15990000D03*
%TD*%
%TO.P,C13,1*%
%TO.N,+12V*%
X73710000Y-45990000D03*
%TO.P,C13,2*%
%TO.N,GND*%
X73710000Y-40990000D03*
%TD*%
%TO.P,C14,1*%
%TO.N,GND*%
X103010000Y-45980000D03*
%TO.P,C14,2*%
%TO.N,Net-(C11-Pad1)*%
X103010000Y-40980000D03*
%TD*%
D16*
%TO.P,D1,1*%
%TO.N,Net-(C6-Pad2)*%
X150900000Y-23620000D03*
D17*
%TO.P,D1,2*%
%TO.N,GND*%
X150900000Y-16000000D03*
%TD*%
D16*
%TO.P,D2,1*%
%TO.N,Net-(C3-Pad2)*%
X83550000Y-24250000D03*
D17*
%TO.P,D2,2*%
%TO.N,GND*%
X83550000Y-16630000D03*
%TD*%
%TO.P,D3,2*%
%TO.N,Net-(C6-Pad2)*%
X147700000Y-23620000D03*
D16*
%TO.P,D3,1*%
%TO.N,GND*%
X147700000Y-16000000D03*
%TD*%
D17*
%TO.P,D4,2*%
%TO.N,Net-(C3-Pad2)*%
X86550000Y-24300000D03*
D16*
%TO.P,D4,1*%
%TO.N,GND*%
X86550000Y-16680000D03*
%TD*%
D11*
%TO.P,L1,1*%
%TO.N,Net-(C1-Pad1)*%
X93550000Y-33200000D03*
D17*
%TO.P,L1,2*%
%TO.N,Net-(C2-Pad1)*%
X93550000Y-20500000D03*
%TD*%
%TO.P,L2,2*%
%TO.N,Net-(C5-Pad1)*%
X141230000Y-19860000D03*
D11*
%TO.P,L2,1*%
%TO.N,Net-(C4-Pad1)*%
X141230000Y-32560000D03*
%TD*%
D20*
%TO.P,L3,1*%
%TO.N,+12V*%
X105100000Y-31080000D03*
D21*
%TO.P,L3,2*%
%TO.N,Net-(L3-Pad2)*%
X105100000Y-26000000D03*
%TD*%
%TO.P,L4,2*%
%TO.N,+12V*%
X129375000Y-31055000D03*
D20*
%TO.P,L4,1*%
%TO.N,Net-(L4-Pad1)*%
X129375000Y-25975000D03*
%TD*%
D22*
%TO.P,R1,1*%
%TO.N,GND*%
X153500000Y-37942000D03*
D23*
%TO.P,R1,2*%
%TO.N,Net-(K2-Pad10)*%
X153500000Y-25750000D03*
%TD*%
D24*
%TO.P,R2,2*%
%TO.N,Net-(L3-Pad2)*%
X99000000Y-32900000D03*
D25*
%TO.P,R2,1*%
%TO.N,Net-(C12-Pad2)*%
X99000000Y-21216000D03*
%TD*%
%TO.P,R3,1*%
%TO.N,Net-(C15-Pad2)*%
X136580000Y-21336000D03*
D24*
%TO.P,R3,2*%
%TO.N,Net-(L4-Pad1)*%
X136580000Y-33020000D03*
%TD*%
D23*
%TO.P,R5,2*%
%TO.N,GND*%
X78800000Y-38700000D03*
D22*
%TO.P,R5,1*%
%TO.N,Net-(K1-Pad10)*%
X78800000Y-26508000D03*
%TD*%
%TO.P,R6,1*%
%TO.N,Net-(C6-Pad2)*%
X157500000Y-37942000D03*
D23*
%TO.P,R6,2*%
%TO.N,Net-(K2-Pad10)*%
X157500000Y-25750000D03*
%TD*%
%TO.P,R7,2*%
%TO.N,Net-(K1-Pad10)*%
X82300000Y-38750000D03*
D22*
%TO.P,R7,1*%
%TO.N,Net-(C3-Pad2)*%
X82300000Y-26558000D03*
%TD*%
D26*
%TO.P,T1,1*%
%TO.N,/P1*%
X111170000Y-18520000D03*
%TO.P,T1,2*%
%TO.N,Net-(C15-Pad1)*%
X123170000Y-18520000D03*
%TO.P,T1,4*%
%TO.N,Net-(C11-Pad1)*%
X111170000Y-37520000D03*
%TO.P,T1,3*%
%TO.N,Net-(J1-Pad1)*%
X124170000Y-37520000D03*
%TD*%
D11*
%TO.P,C3,1*%
%TO.N,Net-(C1-Pad1)*%
X90020000Y-30040000D03*
%TO.P,C3,2*%
%TO.N,Net-(C3-Pad2)*%
X85020000Y-30040000D03*
%TD*%
%TO.P,C6,2*%
%TO.N,Net-(C6-Pad2)*%
X144320000Y-28680000D03*
%TO.P,C6,1*%
%TO.N,Net-(C4-Pad1)*%
X149320000Y-28680000D03*
%TD*%
%TO.P,C15,2*%
%TO.N,Net-(C15-Pad2)*%
X124280000Y-16010000D03*
%TO.P,C15,1*%
%TO.N,Net-(C15-Pad1)*%
X119280000Y-16010000D03*
%TD*%
D27*
%TO.N,+12V*%
X129350000Y-31080000D02*
X129375000Y-31055000D01*
%TD*%
D28*
%TO.N,GND*%
X106590273Y-14718320D02*
X106355241Y-14875363D01*
X106155363Y-15075241D01*
X105998320Y-15310273D01*
X105890147Y-15571426D01*
X105835000Y-15848665D01*
X105835000Y-16131335D01*
X105890147Y-16408574D01*
X105998320Y-16669727D01*
X106155363Y-16904759D01*
X106355241Y-17104637D01*
X106590273Y-17261680D01*
X106851426Y-17369853D01*
X107128665Y-17425000D01*
X107411335Y-17425000D01*
X107688574Y-17369853D01*
X107949727Y-17261680D01*
X108184759Y-17104637D01*
X108384637Y-16904759D01*
X108541680Y-16669727D01*
X108649853Y-16408574D01*
X108705000Y-16131335D01*
X108705000Y-15848665D01*
X108649853Y-15571426D01*
X108541680Y-15310273D01*
X108384637Y-15075241D01*
X108184759Y-14875363D01*
X107949727Y-14718320D01*
X107808930Y-14660000D01*
X111731070Y-14660000D01*
X111590273Y-14718320D01*
X111355241Y-14875363D01*
X111155363Y-15075241D01*
X110998320Y-15310273D01*
X110890147Y-15571426D01*
X110835000Y-15848665D01*
X110835000Y-16131335D01*
X110890147Y-16408574D01*
X110998320Y-16669727D01*
X111155363Y-16904759D01*
X111355241Y-17104637D01*
X111414570Y-17144279D01*
X111307592Y-17123000D01*
X111032408Y-17123000D01*
X110762510Y-17176686D01*
X110508273Y-17281995D01*
X110279465Y-17434880D01*
X110084880Y-17629465D01*
X109931995Y-17858273D01*
X109826686Y-18112510D01*
X109773000Y-18382408D01*
X109773000Y-18657592D01*
X109826686Y-18927490D01*
X109931995Y-19181727D01*
X110084880Y-19410535D01*
X110279465Y-19605120D01*
X110508273Y-19758005D01*
X110762510Y-19863314D01*
X111032408Y-19917000D01*
X111307592Y-19917000D01*
X111577490Y-19863314D01*
X111831727Y-19758005D01*
X112060535Y-19605120D01*
X112255120Y-19410535D01*
X112408005Y-19181727D01*
X112513314Y-18927490D01*
X112567000Y-18657592D01*
X112567000Y-18382408D01*
X112513314Y-18112510D01*
X112408005Y-17858273D01*
X112255120Y-17629465D01*
X112060535Y-17434880D01*
X112010601Y-17401515D01*
X112128665Y-17425000D01*
X112411335Y-17425000D01*
X112688574Y-17369853D01*
X112949727Y-17261680D01*
X113184759Y-17104637D01*
X113384637Y-16904759D01*
X113541680Y-16669727D01*
X113649853Y-16408574D01*
X113705000Y-16131335D01*
X113705000Y-15848665D01*
X113649853Y-15571426D01*
X113541680Y-15310273D01*
X113384637Y-15075241D01*
X113184759Y-14875363D01*
X112949727Y-14718320D01*
X112808930Y-14660000D01*
X118789354Y-14660000D01*
X118600273Y-14738320D01*
X118365241Y-14895363D01*
X118165363Y-15095241D01*
X118008320Y-15330273D01*
X117900147Y-15591426D01*
X117845000Y-15868665D01*
X117845000Y-16151335D01*
X117900147Y-16428574D01*
X118008320Y-16689727D01*
X118165363Y-16924759D01*
X118365241Y-17124637D01*
X118600273Y-17281680D01*
X118861426Y-17389853D01*
X119138665Y-17445000D01*
X119421335Y-17445000D01*
X119698574Y-17389853D01*
X119959727Y-17281680D01*
X120194759Y-17124637D01*
X120394637Y-16924759D01*
X120551680Y-16689727D01*
X120659853Y-16428574D01*
X120715000Y-16151335D01*
X120715000Y-15868665D01*
X120659853Y-15591426D01*
X120551680Y-15330273D01*
X120394637Y-15095241D01*
X120194759Y-14895363D01*
X119959727Y-14738320D01*
X119770646Y-14660000D01*
X123789354Y-14660000D01*
X123600273Y-14738320D01*
X123365241Y-14895363D01*
X123165363Y-15095241D01*
X123008320Y-15330273D01*
X122900147Y-15591426D01*
X122845000Y-15868665D01*
X122845000Y-16151335D01*
X122900147Y-16428574D01*
X123008320Y-16689727D01*
X123165363Y-16924759D01*
X123365241Y-17124637D01*
X123386189Y-17138634D01*
X123307592Y-17123000D01*
X123032408Y-17123000D01*
X122762510Y-17176686D01*
X122508273Y-17281995D01*
X122279465Y-17434880D01*
X122084880Y-17629465D01*
X121931995Y-17858273D01*
X121826686Y-18112510D01*
X121773000Y-18382408D01*
X121773000Y-18657592D01*
X121826686Y-18927490D01*
X121931995Y-19181727D01*
X122084880Y-19410535D01*
X122279465Y-19605120D01*
X122508273Y-19758005D01*
X122762510Y-19863314D01*
X123032408Y-19917000D01*
X123307592Y-19917000D01*
X123577490Y-19863314D01*
X123831727Y-19758005D01*
X123890603Y-19718665D01*
X139795000Y-19718665D01*
X139795000Y-20001335D01*
X139850147Y-20278574D01*
X139958320Y-20539727D01*
X140115363Y-20774759D01*
X140315241Y-20974637D01*
X140550273Y-21131680D01*
X140811426Y-21239853D01*
X141088665Y-21295000D01*
X141371335Y-21295000D01*
X141648574Y-21239853D01*
X141909727Y-21131680D01*
X142144759Y-20974637D01*
X142344637Y-20774759D01*
X142501680Y-20539727D01*
X142609853Y-20278574D01*
X142665000Y-20001335D01*
X142665000Y-19718665D01*
X142624279Y-19513945D01*
X157065000Y-19513945D01*
X157065000Y-20486055D01*
X157254650Y-21439486D01*
X157626660Y-22337599D01*
X158166735Y-23145879D01*
X158854121Y-23833265D01*
X159662401Y-24373340D01*
X160560514Y-24745350D01*
X161513945Y-24935000D01*
X162486055Y-24935000D01*
X163439486Y-24745350D01*
X164337599Y-24373340D01*
X165145879Y-23833265D01*
X165833265Y-23145879D01*
X166373340Y-22337599D01*
X166745350Y-21439486D01*
X166935000Y-20486055D01*
X166935000Y-19513945D01*
X166745350Y-18560514D01*
X166373340Y-17662401D01*
X165833265Y-16854121D01*
X165145879Y-16166735D01*
X164337599Y-15626660D01*
X163439486Y-15254650D01*
X162486055Y-15065000D01*
X161513945Y-15065000D01*
X160560514Y-15254650D01*
X159662401Y-15626660D01*
X158854121Y-16166735D01*
X158166735Y-16854121D01*
X157626660Y-17662401D01*
X157254650Y-18560514D01*
X157065000Y-19513945D01*
X142624279Y-19513945D01*
X142609853Y-19441426D01*
X142501680Y-19180273D01*
X142344637Y-18945241D01*
X142144759Y-18745363D01*
X141909727Y-18588320D01*
X141755442Y-18524413D01*
X141808665Y-18535000D01*
X142091335Y-18535000D01*
X142368574Y-18479853D01*
X142629727Y-18371680D01*
X142864759Y-18214637D01*
X143064637Y-18014759D01*
X143221680Y-17779727D01*
X143329853Y-17518574D01*
X143385000Y-17241335D01*
X143385000Y-16958665D01*
X143353440Y-16800000D01*
X146261928Y-16800000D01*
X146274188Y-16924482D01*
X146310498Y-17044180D01*
X146369463Y-17154494D01*
X146448815Y-17251185D01*
X146545506Y-17330537D01*
X146655820Y-17389502D01*
X146775518Y-17425812D01*
X146900000Y-17438072D01*
X147414250Y-17435000D01*
X147573000Y-17276250D01*
X147573000Y-16127000D01*
X147827000Y-16127000D01*
X147827000Y-17276250D01*
X147985750Y-17435000D01*
X148500000Y-17438072D01*
X148624482Y-17425812D01*
X148744180Y-17389502D01*
X148854494Y-17330537D01*
X148951185Y-17251185D01*
X149030537Y-17154494D01*
X149089502Y-17044180D01*
X149125812Y-16924482D01*
X149138072Y-16800000D01*
X149135379Y-16349040D01*
X149508091Y-16349040D01*
X149602930Y-16613881D01*
X149747615Y-16855131D01*
X149936586Y-17063519D01*
X150162580Y-17231037D01*
X150416913Y-17351246D01*
X150550961Y-17391904D01*
X150773000Y-17269915D01*
X150773000Y-16127000D01*
X151027000Y-16127000D01*
X151027000Y-17269915D01*
X151249039Y-17391904D01*
X151383087Y-17351246D01*
X151637420Y-17231037D01*
X151863414Y-17063519D01*
X152052385Y-16855131D01*
X152197070Y-16613881D01*
X152291909Y-16349040D01*
X152170624Y-16127000D01*
X151027000Y-16127000D01*
X150773000Y-16127000D01*
X149629376Y-16127000D01*
X149508091Y-16349040D01*
X149135379Y-16349040D01*
X149135000Y-16285750D01*
X148976250Y-16127000D01*
X147827000Y-16127000D01*
X147573000Y-16127000D01*
X146423750Y-16127000D01*
X146265000Y-16285750D01*
X146261928Y-16800000D01*
X143353440Y-16800000D01*
X143329853Y-16681426D01*
X143221680Y-16420273D01*
X143064637Y-16185241D01*
X142864759Y-15985363D01*
X142629727Y-15828320D01*
X142368574Y-15720147D01*
X142091335Y-15665000D01*
X141808665Y-15665000D01*
X141531426Y-15720147D01*
X141270273Y-15828320D01*
X141035241Y-15985363D01*
X140835363Y-16185241D01*
X140678320Y-16420273D01*
X140570147Y-16681426D01*
X140515000Y-16958665D01*
X140515000Y-17241335D01*
X140570147Y-17518574D01*
X140678320Y-17779727D01*
X140835363Y-18014759D01*
X141035241Y-18214637D01*
X141270273Y-18371680D01*
X141424558Y-18435587D01*
X141371335Y-18425000D01*
X141088665Y-18425000D01*
X140811426Y-18480147D01*
X140550273Y-18588320D01*
X140315241Y-18745363D01*
X140115363Y-18945241D01*
X139958320Y-19180273D01*
X139850147Y-19441426D01*
X139795000Y-19718665D01*
X123890603Y-19718665D01*
X124060535Y-19605120D01*
X124255120Y-19410535D01*
X124408005Y-19181727D01*
X124513314Y-18927490D01*
X124567000Y-18657592D01*
X124567000Y-18382408D01*
X124513314Y-18112510D01*
X124505110Y-18092702D01*
X136136903Y-18092702D01*
X136208486Y-18336671D01*
X136463996Y-18457571D01*
X136738184Y-18526300D01*
X137020512Y-18540217D01*
X137300130Y-18498787D01*
X137566292Y-18403603D01*
X137691514Y-18336671D01*
X137763097Y-18092702D01*
X136950000Y-17279605D01*
X136136903Y-18092702D01*
X124505110Y-18092702D01*
X124408005Y-17858273D01*
X124255120Y-17629465D01*
X124060535Y-17434880D01*
X124048982Y-17427161D01*
X124138665Y-17445000D01*
X124421335Y-17445000D01*
X124698574Y-17389853D01*
X124959727Y-17281680D01*
X125126102Y-17170512D01*
X135509783Y-17170512D01*
X135551213Y-17450130D01*
X135646397Y-17716292D01*
X135713329Y-17841514D01*
X135957298Y-17913097D01*
X136770395Y-17100000D01*
X137129605Y-17100000D01*
X137942702Y-17913097D01*
X138186671Y-17841514D01*
X138307571Y-17586004D01*
X138376300Y-17311816D01*
X138390217Y-17029488D01*
X138348787Y-16749870D01*
X138253603Y-16483708D01*
X138186671Y-16358486D01*
X137942702Y-16286903D01*
X137129605Y-17100000D01*
X136770395Y-17100000D01*
X135957298Y-16286903D01*
X135713329Y-16358486D01*
X135592429Y-16613996D01*
X135523700Y-16888184D01*
X135509783Y-17170512D01*
X125126102Y-17170512D01*
X125194759Y-17124637D01*
X125394637Y-16924759D01*
X125551680Y-16689727D01*
X125659853Y-16428574D01*
X125715000Y-16151335D01*
X125715000Y-16107298D01*
X136136903Y-16107298D01*
X136950000Y-16920395D01*
X137763097Y-16107298D01*
X137691514Y-15863329D01*
X137436004Y-15742429D01*
X137161816Y-15673700D01*
X136879488Y-15659783D01*
X136599870Y-15701213D01*
X136333708Y-15796397D01*
X136208486Y-15863329D01*
X136136903Y-16107298D01*
X125715000Y-16107298D01*
X125715000Y-15868665D01*
X125659853Y-15591426D01*
X125551680Y-15330273D01*
X125394637Y-15095241D01*
X125194759Y-14895363D01*
X124959727Y-14738320D01*
X124770646Y-14660000D01*
X146563210Y-14660000D01*
X146545506Y-14669463D01*
X146448815Y-14748815D01*
X146369463Y-14845506D01*
X146310498Y-14955820D01*
X146274188Y-15075518D01*
X146261928Y-15200000D01*
X146265000Y-15714250D01*
X146423750Y-15873000D01*
X147573000Y-15873000D01*
X147573000Y-15853000D01*
X147827000Y-15853000D01*
X147827000Y-15873000D01*
X148976250Y-15873000D01*
X149135000Y-15714250D01*
X149138072Y-15200000D01*
X149125812Y-15075518D01*
X149089502Y-14955820D01*
X149030537Y-14845506D01*
X148951185Y-14748815D01*
X148854494Y-14669463D01*
X148836790Y-14660000D01*
X150393119Y-14660000D01*
X150162580Y-14768963D01*
X149936586Y-14936481D01*
X149747615Y-15144869D01*
X149602930Y-15386119D01*
X149508091Y-15650960D01*
X149629376Y-15873000D01*
X150773000Y-15873000D01*
X150773000Y-15853000D01*
X151027000Y-15853000D01*
X151027000Y-15873000D01*
X152170624Y-15873000D01*
X152291909Y-15650960D01*
X152197070Y-15386119D01*
X152052385Y-15144869D01*
X151863414Y-14936481D01*
X151637420Y-14768963D01*
X151406881Y-14660000D01*
X167340001Y-14660000D01*
X167340000Y-39226546D01*
X167133881Y-39102930D01*
X166869040Y-39008091D01*
X166647000Y-39129376D01*
X166647000Y-40273000D01*
X166667000Y-40273000D01*
X166667000Y-40527000D01*
X166647000Y-40527000D01*
X166647000Y-41670624D01*
X166869040Y-41791909D01*
X167133881Y-41697070D01*
X167340000Y-41573454D01*
X167340000Y-48340000D01*
X143160126Y-48340000D01*
X143457373Y-48181118D01*
X143733543Y-47763148D01*
X141710000Y-45739605D01*
X139686457Y-47763148D01*
X139962627Y-48181118D01*
X140260632Y-48340000D01*
X135040126Y-48340000D01*
X135337373Y-48181118D01*
X135613543Y-47763148D01*
X133590000Y-45739605D01*
X131566457Y-47763148D01*
X131842627Y-48181118D01*
X132140632Y-48340000D01*
X71131180Y-48340000D01*
X71153414Y-48323519D01*
X71342385Y-48115131D01*
X71487070Y-47873881D01*
X71581909Y-47609040D01*
X71460624Y-47387000D01*
X70317000Y-47387000D01*
X70317000Y-47407000D01*
X70063000Y-47407000D01*
X70063000Y-47387000D01*
X68919376Y-47387000D01*
X68798091Y-47609040D01*
X68892930Y-47873881D01*
X69037615Y-48115131D01*
X69226586Y-48323519D01*
X69248820Y-48340000D01*
X68660000Y-48340000D01*
X68660000Y-46910960D01*
X68798091Y-46910960D01*
X68919376Y-47133000D01*
X70063000Y-47133000D01*
X70063000Y-45990085D01*
X70317000Y-45990085D01*
X70317000Y-47133000D01*
X71460624Y-47133000D01*
X71581909Y-46910960D01*
X71487070Y-46646119D01*
X71342385Y-46404869D01*
X71153414Y-46196481D01*
X70927420Y-46028963D01*
X70673087Y-45908754D01*
X70539039Y-45868096D01*
X70317000Y-45990085D01*
X70063000Y-45990085D01*
X69840961Y-45868096D01*
X69706913Y-45908754D01*
X69452580Y-46028963D01*
X69226586Y-46196481D01*
X69037615Y-46404869D01*
X68892930Y-46646119D01*
X68798091Y-46910960D01*
X68660000Y-46910960D01*
X68660000Y-45848665D01*
X72275000Y-45848665D01*
X72275000Y-46131335D01*
X72330147Y-46408574D01*
X72438320Y-46669727D01*
X72595363Y-46904759D01*
X72795241Y-47104637D01*
X73030273Y-47261680D01*
X73291426Y-47369853D01*
X73568665Y-47425000D01*
X73851335Y-47425000D01*
X74128574Y-47369853D01*
X74389727Y-47261680D01*
X74624759Y-47104637D01*
X74824637Y-46904759D01*
X74981680Y-46669727D01*
X75089853Y-46408574D01*
X75145000Y-46131335D01*
X75145000Y-45848665D01*
X75525000Y-45848665D01*
X75525000Y-46131335D01*
X75580147Y-46408574D01*
X75688320Y-46669727D01*
X75845363Y-46904759D01*
X76045241Y-47104637D01*
X76280273Y-47261680D01*
X76541426Y-47369853D01*
X76818665Y-47425000D01*
X77101335Y-47425000D01*
X77378574Y-47369853D01*
X77639727Y-47261680D01*
X77874759Y-47104637D01*
X78074637Y-46904759D01*
X78231680Y-46669727D01*
X78339853Y-46408574D01*
X78395000Y-46131335D01*
X78395000Y-45848665D01*
X78525000Y-45848665D01*
X78525000Y-46131335D01*
X78580147Y-46408574D01*
X78688320Y-46669727D01*
X78845363Y-46904759D01*
X79045241Y-47104637D01*
X79280273Y-47261680D01*
X79541426Y-47369853D01*
X79818665Y-47425000D01*
X80101335Y-47425000D01*
X80378574Y-47369853D01*
X80639727Y-47261680D01*
X80874759Y-47104637D01*
X81074637Y-46904759D01*
X81231680Y-46669727D01*
X81339853Y-46408574D01*
X81395000Y-46131335D01*
X81395000Y-45848665D01*
X81393011Y-45838665D01*
X92475000Y-45838665D01*
X92475000Y-46121335D01*
X92530147Y-46398574D01*
X92638320Y-46659727D01*
X92795363Y-46894759D01*
X92995241Y-47094637D01*
X93230273Y-47251680D01*
X93491426Y-47359853D01*
X93768665Y-47415000D01*
X94051335Y-47415000D01*
X94328574Y-47359853D01*
X94589727Y-47251680D01*
X94824759Y-47094637D01*
X95024637Y-46894759D01*
X95181680Y-46659727D01*
X95289853Y-46398574D01*
X95345000Y-46121335D01*
X95345000Y-45838665D01*
X95475000Y-45838665D01*
X95475000Y-46121335D01*
X95530147Y-46398574D01*
X95638320Y-46659727D01*
X95795363Y-46894759D01*
X95995241Y-47094637D01*
X96230273Y-47251680D01*
X96491426Y-47359853D01*
X96768665Y-47415000D01*
X97051335Y-47415000D01*
X97328574Y-47359853D01*
X97589727Y-47251680D01*
X97824759Y-47094637D01*
X98024637Y-46894759D01*
X98181680Y-46659727D01*
X98289853Y-46398574D01*
X98345000Y-46121335D01*
X98345000Y-45838665D01*
X98525000Y-45838665D01*
X98525000Y-46121335D01*
X98580147Y-46398574D01*
X98688320Y-46659727D01*
X98845363Y-46894759D01*
X99045241Y-47094637D01*
X99280273Y-47251680D01*
X99541426Y-47359853D01*
X99818665Y-47415000D01*
X100101335Y-47415000D01*
X100378574Y-47359853D01*
X100639727Y-47251680D01*
X100874759Y-47094637D01*
X100996694Y-46972702D01*
X102196903Y-46972702D01*
X102268486Y-47216671D01*
X102523996Y-47337571D01*
X102798184Y-47406300D01*
X103080512Y-47420217D01*
X103360130Y-47378787D01*
X103626292Y-47283603D01*
X103751514Y-47216671D01*
X103823097Y-46972702D01*
X103010000Y-46159605D01*
X102196903Y-46972702D01*
X100996694Y-46972702D01*
X101074637Y-46894759D01*
X101231680Y-46659727D01*
X101339853Y-46398574D01*
X101395000Y-46121335D01*
X101395000Y-46050512D01*
X101569783Y-46050512D01*
X101611213Y-46330130D01*
X101706397Y-46596292D01*
X101773329Y-46721514D01*
X102017298Y-46793097D01*
X102830395Y-45980000D01*
X103189605Y-45980000D01*
X104002702Y-46793097D01*
X104246671Y-46721514D01*
X104367571Y-46466004D01*
X104436300Y-46191816D01*
X104450217Y-45909488D01*
X104408787Y-45629870D01*
X104384991Y-45563328D01*
X130439832Y-45563328D01*
X130501010Y-46177831D01*
X130680897Y-46768592D01*
X130968882Y-47307373D01*
X131386852Y-47583543D01*
X133410395Y-45560000D01*
X131386852Y-43536457D01*
X130968882Y-43812627D01*
X130678351Y-44357557D01*
X130499713Y-44948696D01*
X130439832Y-45563328D01*
X104384991Y-45563328D01*
X104313603Y-45363708D01*
X104246671Y-45238486D01*
X104002702Y-45166903D01*
X103189605Y-45980000D01*
X102830395Y-45980000D01*
X102017298Y-45166903D01*
X101773329Y-45238486D01*
X101652429Y-45493996D01*
X101583700Y-45768184D01*
X101569783Y-46050512D01*
X101395000Y-46050512D01*
X101395000Y-45838665D01*
X101339853Y-45561426D01*
X101231680Y-45300273D01*
X101074637Y-45065241D01*
X100996694Y-44987298D01*
X102196903Y-44987298D01*
X103010000Y-45800395D01*
X103823097Y-44987298D01*
X103751514Y-44743329D01*
X103496004Y-44622429D01*
X103221816Y-44553700D01*
X102939488Y-44539783D01*
X102659870Y-44581213D01*
X102393708Y-44676397D01*
X102268486Y-44743329D01*
X102196903Y-44987298D01*
X100996694Y-44987298D01*
X100874759Y-44865363D01*
X100639727Y-44708320D01*
X100378574Y-44600147D01*
X100101335Y-44545000D01*
X99818665Y-44545000D01*
X99541426Y-44600147D01*
X99280273Y-44708320D01*
X99045241Y-44865363D01*
X98845363Y-45065241D01*
X98688320Y-45300273D01*
X98580147Y-45561426D01*
X98525000Y-45838665D01*
X98345000Y-45838665D01*
X98289853Y-45561426D01*
X98181680Y-45300273D01*
X98024637Y-45065241D01*
X97824759Y-44865363D01*
X97589727Y-44708320D01*
X97328574Y-44600147D01*
X97051335Y-44545000D01*
X96768665Y-44545000D01*
X96491426Y-44600147D01*
X96230273Y-44708320D01*
X95995241Y-44865363D01*
X95795363Y-45065241D01*
X95638320Y-45300273D01*
X95530147Y-45561426D01*
X95475000Y-45838665D01*
X95345000Y-45838665D01*
X95289853Y-45561426D01*
X95181680Y-45300273D01*
X95024637Y-45065241D01*
X94824759Y-44865363D01*
X94589727Y-44708320D01*
X94328574Y-44600147D01*
X94051335Y-44545000D01*
X93768665Y-44545000D01*
X93491426Y-44600147D01*
X93230273Y-44708320D01*
X92995241Y-44865363D01*
X92795363Y-45065241D01*
X92638320Y-45300273D01*
X92530147Y-45561426D01*
X92475000Y-45838665D01*
X81393011Y-45838665D01*
X81339853Y-45571426D01*
X81231680Y-45310273D01*
X81074637Y-45075241D01*
X80874759Y-44875363D01*
X80639727Y-44718320D01*
X80378574Y-44610147D01*
X80101335Y-44555000D01*
X79818665Y-44555000D01*
X79541426Y-44610147D01*
X79280273Y-44718320D01*
X79045241Y-44875363D01*
X78845363Y-45075241D01*
X78688320Y-45310273D01*
X78580147Y-45571426D01*
X78525000Y-45848665D01*
X78395000Y-45848665D01*
X78339853Y-45571426D01*
X78231680Y-45310273D01*
X78074637Y-45075241D01*
X77874759Y-44875363D01*
X77639727Y-44718320D01*
X77378574Y-44610147D01*
X77101335Y-44555000D01*
X76818665Y-44555000D01*
X76541426Y-44610147D01*
X76280273Y-44718320D01*
X76045241Y-44875363D01*
X75845363Y-45075241D01*
X75688320Y-45310273D01*
X75580147Y-45571426D01*
X75525000Y-45848665D01*
X75145000Y-45848665D01*
X75089853Y-45571426D01*
X74981680Y-45310273D01*
X74824637Y-45075241D01*
X74624759Y-44875363D01*
X74389727Y-44718320D01*
X74128574Y-44610147D01*
X73851335Y-44555000D01*
X73568665Y-44555000D01*
X73291426Y-44610147D01*
X73030273Y-44718320D01*
X72795241Y-44875363D01*
X72595363Y-45075241D01*
X72438320Y-45310273D01*
X72330147Y-45571426D01*
X72275000Y-45848665D01*
X68660000Y-45848665D01*
X68660000Y-43644514D01*
X82812500Y-43644514D01*
X82812500Y-43895485D01*
X82835470Y-44128703D01*
X82926245Y-44427948D01*
X83073655Y-44703734D01*
X83272037Y-44945463D01*
X83513765Y-45143845D01*
X83789551Y-45291255D01*
X84088796Y-45382030D01*
X84400000Y-45412681D01*
X84711203Y-45382030D01*
X85010448Y-45291255D01*
X85286234Y-45143845D01*
X85527963Y-44945463D01*
X85675163Y-44766101D01*
X85830563Y-44951315D01*
X86073077Y-45145969D01*
X86348906Y-45289571D01*
X86567020Y-45360563D01*
X86813000Y-45240594D01*
X86813000Y-43897000D01*
X86793000Y-43897000D01*
X86793000Y-43643000D01*
X86813000Y-43643000D01*
X86813000Y-42299406D01*
X87067000Y-42299406D01*
X87067000Y-43643000D01*
X87087000Y-43643000D01*
X87087000Y-43897000D01*
X87067000Y-43897000D01*
X87067000Y-45240594D01*
X87312980Y-45360563D01*
X87531094Y-45289571D01*
X87806923Y-45145969D01*
X87947941Y-45032781D01*
X87996963Y-45124494D01*
X88076315Y-45221185D01*
X88173006Y-45300537D01*
X88283320Y-45359502D01*
X88403018Y-45395812D01*
X88527500Y-45408072D01*
X90432500Y-45408072D01*
X90556982Y-45395812D01*
X90676680Y-45359502D01*
X90786994Y-45300537D01*
X90883685Y-45221185D01*
X90963037Y-45124494D01*
X91022002Y-45014180D01*
X91058312Y-44894482D01*
X91070572Y-44770000D01*
X91070572Y-42770000D01*
X91058312Y-42645518D01*
X91022002Y-42525820D01*
X90963037Y-42415506D01*
X90883685Y-42318815D01*
X90786994Y-42239463D01*
X90676680Y-42180498D01*
X90556982Y-42144188D01*
X90432500Y-42131928D01*
X88527500Y-42131928D01*
X88403018Y-42144188D01*
X88283320Y-42180498D01*
X88173006Y-42239463D01*
X88076315Y-42318815D01*
X87996963Y-42415506D01*
X87947941Y-42507219D01*
X87806923Y-42394031D01*
X87531094Y-42250429D01*
X87312980Y-42179437D01*
X87067000Y-42299406D01*
X86813000Y-42299406D01*
X86567020Y-42179437D01*
X86348906Y-42250429D01*
X86073077Y-42394031D01*
X85830563Y-42588685D01*
X85675162Y-42773900D01*
X85527963Y-42594537D01*
X85286235Y-42396155D01*
X85010449Y-42248745D01*
X84711204Y-42157970D01*
X84400000Y-42127319D01*
X84088797Y-42157970D01*
X83789552Y-42248745D01*
X83513766Y-42396155D01*
X83272037Y-42594537D01*
X83073655Y-42836265D01*
X82926245Y-43112051D01*
X82835470Y-43411296D01*
X82812500Y-43644514D01*
X68660000Y-43644514D01*
X68660000Y-41982702D01*
X72896903Y-41982702D01*
X72968486Y-42226671D01*
X73223996Y-42347571D01*
X73498184Y-42416300D01*
X73780512Y-42430217D01*
X74060130Y-42388787D01*
X74326292Y-42293603D01*
X74451514Y-42226671D01*
X74523097Y-41982702D01*
X76146903Y-41982702D01*
X76218486Y-42226671D01*
X76473996Y-42347571D01*
X76748184Y-42416300D01*
X77030512Y-42430217D01*
X77310130Y-42388787D01*
X77576292Y-42293603D01*
X77701514Y-42226671D01*
X77773097Y-41982702D01*
X79146903Y-41982702D01*
X79218486Y-42226671D01*
X79473996Y-42347571D01*
X79748184Y-42416300D01*
X80030512Y-42430217D01*
X80310130Y-42388787D01*
X80576292Y-42293603D01*
X80701514Y-42226671D01*
X80773097Y-41982702D01*
X80763097Y-41972702D01*
X93096903Y-41972702D01*
X93168486Y-42216671D01*
X93423996Y-42337571D01*
X93698184Y-42406300D01*
X93980512Y-42420217D01*
X94260130Y-42378787D01*
X94526292Y-42283603D01*
X94651514Y-42216671D01*
X94723097Y-41972702D01*
X96096903Y-41972702D01*
X96168486Y-42216671D01*
X96423996Y-42337571D01*
X96698184Y-42406300D01*
X96980512Y-42420217D01*
X97260130Y-42378787D01*
X97526292Y-42283603D01*
X97651514Y-42216671D01*
X97723097Y-41972702D01*
X99146903Y-41972702D01*
X99218486Y-42216671D01*
X99473996Y-42337571D01*
X99748184Y-42406300D01*
X100030512Y-42420217D01*
X100310130Y-42378787D01*
X100576292Y-42283603D01*
X100701514Y-42216671D01*
X100773097Y-41972702D01*
X99960000Y-41159605D01*
X99146903Y-41972702D01*
X97723097Y-41972702D01*
X96910000Y-41159605D01*
X96096903Y-41972702D01*
X94723097Y-41972702D01*
X93910000Y-41159605D01*
X93096903Y-41972702D01*
X80763097Y-41972702D01*
X79960000Y-41169605D01*
X79146903Y-41982702D01*
X77773097Y-41982702D01*
X76960000Y-41169605D01*
X76146903Y-41982702D01*
X74523097Y-41982702D01*
X73710000Y-41169605D01*
X72896903Y-41982702D01*
X68660000Y-41982702D01*
X68660000Y-38840000D01*
X68751928Y-38840000D01*
X68751928Y-40440000D01*
X68764188Y-40564482D01*
X68800498Y-40684180D01*
X68859463Y-40794494D01*
X68938815Y-40891185D01*
X69035506Y-40970537D01*
X69145820Y-41029502D01*
X69265518Y-41065812D01*
X69390000Y-41078072D01*
X70990000Y-41078072D01*
X71114482Y-41065812D01*
X71131953Y-41060512D01*
X72269783Y-41060512D01*
X72311213Y-41340130D01*
X72406397Y-41606292D01*
X72473329Y-41731514D01*
X72717298Y-41803097D01*
X73530395Y-40990000D01*
X73889605Y-40990000D01*
X74702702Y-41803097D01*
X74946671Y-41731514D01*
X75067571Y-41476004D01*
X75136300Y-41201816D01*
X75143265Y-41060512D01*
X75519783Y-41060512D01*
X75561213Y-41340130D01*
X75656397Y-41606292D01*
X75723329Y-41731514D01*
X75967298Y-41803097D01*
X76780395Y-40990000D01*
X77139605Y-40990000D01*
X77952702Y-41803097D01*
X78196671Y-41731514D01*
X78317571Y-41476004D01*
X78386300Y-41201816D01*
X78400217Y-40919488D01*
X78358787Y-40639870D01*
X78263603Y-40373708D01*
X78196671Y-40248486D01*
X77952702Y-40176903D01*
X77139605Y-40990000D01*
X76780395Y-40990000D01*
X75967298Y-40176903D01*
X75723329Y-40248486D01*
X75602429Y-40503996D01*
X75533700Y-40778184D01*
X75519783Y-41060512D01*
X75143265Y-41060512D01*
X75150217Y-40919488D01*
X75108787Y-40639870D01*
X75013603Y-40373708D01*
X74946671Y-40248486D01*
X74702702Y-40176903D01*
X73889605Y-40990000D01*
X73530395Y-40990000D01*
X72717298Y-40176903D01*
X72473329Y-40248486D01*
X72352429Y-40503996D01*
X72283700Y-40778184D01*
X72269783Y-41060512D01*
X71131953Y-41060512D01*
X71234180Y-41029502D01*
X71344494Y-40970537D01*
X71441185Y-40891185D01*
X71520537Y-40794494D01*
X71579502Y-40684180D01*
X71615812Y-40564482D01*
X71628072Y-40440000D01*
X71628072Y-39997298D01*
X72896903Y-39997298D01*
X73710000Y-40810395D01*
X74523097Y-39997298D01*
X76146903Y-39997298D01*
X76960000Y-40810395D01*
X77773097Y-39997298D01*
X77701514Y-39753329D01*
X77446004Y-39632429D01*
X77397206Y-39620197D01*
X78059408Y-39620197D01*
X78118686Y-39853812D01*
X78356875Y-39964559D01*
X78612093Y-40026711D01*
X78873808Y-40037845D01*
X78851023Y-40060630D01*
X78967296Y-40176903D01*
X78723329Y-40248486D01*
X78602429Y-40503996D01*
X78533700Y-40778184D01*
X78519783Y-41060512D01*
X78561213Y-41340130D01*
X78656397Y-41606292D01*
X78723329Y-41731514D01*
X78967298Y-41803097D01*
X79780395Y-40990000D01*
X80139605Y-40990000D01*
X80952702Y-41803097D01*
X81196671Y-41731514D01*
X81317571Y-41476004D01*
X81386300Y-41201816D01*
X81393758Y-41050512D01*
X92469783Y-41050512D01*
X92511213Y-41330130D01*
X92606397Y-41596292D01*
X92673329Y-41721514D01*
X92917298Y-41793097D01*
X93730395Y-40980000D01*
X94089605Y-40980000D01*
X94902702Y-41793097D01*
X95146671Y-41721514D01*
X95267571Y-41466004D01*
X95336300Y-41191816D01*
X95343265Y-41050512D01*
X95469783Y-41050512D01*
X95511213Y-41330130D01*
X95606397Y-41596292D01*
X95673329Y-41721514D01*
X95917298Y-41793097D01*
X96730395Y-40980000D01*
X97089605Y-40980000D01*
X97902702Y-41793097D01*
X98146671Y-41721514D01*
X98267571Y-41466004D01*
X98336300Y-41191816D01*
X98343265Y-41050512D01*
X98519783Y-41050512D01*
X98561213Y-41330130D01*
X98656397Y-41596292D01*
X98723329Y-41721514D01*
X98967298Y-41793097D01*
X99780395Y-40980000D01*
X100139605Y-40980000D01*
X100952702Y-41793097D01*
X101196671Y-41721514D01*
X101317571Y-41466004D01*
X101386300Y-41191816D01*
X101400217Y-40909488D01*
X101389724Y-40838665D01*
X101575000Y-40838665D01*
X101575000Y-41121335D01*
X101630147Y-41398574D01*
X101738320Y-41659727D01*
X101895363Y-41894759D01*
X102095241Y-42094637D01*
X102330273Y-42251680D01*
X102591426Y-42359853D01*
X102868665Y-42415000D01*
X103151335Y-42415000D01*
X103428574Y-42359853D01*
X103689727Y-42251680D01*
X103924759Y-42094637D01*
X104124637Y-41894759D01*
X104281680Y-41659727D01*
X104389853Y-41398574D01*
X104445000Y-41121335D01*
X104445000Y-40838665D01*
X104389853Y-40561426D01*
X104281680Y-40300273D01*
X104124637Y-40065241D01*
X103924759Y-39865363D01*
X103689727Y-39708320D01*
X103532388Y-39643148D01*
X131566457Y-39643148D01*
X131842627Y-40061118D01*
X132387557Y-40351649D01*
X132978696Y-40530287D01*
X133593328Y-40590168D01*
X134207831Y-40528990D01*
X134724011Y-40371813D01*
X134635476Y-40585554D01*
X134515000Y-41191229D01*
X134515000Y-41808771D01*
X134635476Y-42414446D01*
X134723766Y-42627597D01*
X134201304Y-42469713D01*
X133586672Y-42409832D01*
X132972169Y-42471010D01*
X132381408Y-42650897D01*
X131842627Y-42938882D01*
X131566457Y-43356852D01*
X133590000Y-45380395D01*
X133604143Y-45366253D01*
X133783748Y-45545858D01*
X133769605Y-45560000D01*
X135793148Y-47583543D01*
X136211118Y-47307373D01*
X136501649Y-46762443D01*
X136680287Y-46171304D01*
X136740168Y-45556672D01*
X136678990Y-44942169D01*
X136521813Y-44425989D01*
X136735554Y-44514524D01*
X137341229Y-44635000D01*
X137958771Y-44635000D01*
X138564446Y-44514524D01*
X138777597Y-44426234D01*
X138619713Y-44948696D01*
X138559832Y-45563328D01*
X138621010Y-46177831D01*
X138800897Y-46768592D01*
X139088882Y-47307373D01*
X139506852Y-47583543D01*
X141530395Y-45560000D01*
X141889605Y-45560000D01*
X143913148Y-47583543D01*
X144331118Y-47307373D01*
X144621649Y-46762443D01*
X144800287Y-46171304D01*
X144860168Y-45556672D01*
X144798990Y-44942169D01*
X144619103Y-44351408D01*
X144331118Y-43812627D01*
X143913148Y-43536457D01*
X141889605Y-45560000D01*
X141530395Y-45560000D01*
X141516253Y-45545858D01*
X141695858Y-45366253D01*
X141710000Y-45380395D01*
X143733543Y-43356852D01*
X143457373Y-42938882D01*
X142912443Y-42648351D01*
X142321304Y-42469713D01*
X141706672Y-42409832D01*
X141092169Y-42471010D01*
X140575989Y-42628187D01*
X140664524Y-42414446D01*
X140785000Y-41808771D01*
X140785000Y-41191229D01*
X140664524Y-40585554D01*
X140576234Y-40372403D01*
X141098696Y-40530287D01*
X141713328Y-40590168D01*
X142327831Y-40528990D01*
X142918592Y-40349103D01*
X143457373Y-40061118D01*
X143733543Y-39643148D01*
X141710000Y-37619605D01*
X141695858Y-37633748D01*
X141516253Y-37454143D01*
X141530395Y-37440000D01*
X141889605Y-37440000D01*
X143913148Y-39463543D01*
X144331118Y-39187373D01*
X144621649Y-38642443D01*
X144622236Y-38640500D01*
X152163428Y-38640500D01*
X152175688Y-38764982D01*
X152211998Y-38884680D01*
X152270963Y-38994994D01*
X152350315Y-39091685D01*
X152447006Y-39171037D01*
X152557320Y-39230002D01*
X152677018Y-39266312D01*
X152801500Y-39278572D01*
X153214250Y-39275500D01*
X153373000Y-39116750D01*
X153373000Y-38069000D01*
X153627000Y-38069000D01*
X153627000Y-39116750D01*
X153785750Y-39275500D01*
X154198500Y-39278572D01*
X154322982Y-39266312D01*
X154442680Y-39230002D01*
X154552994Y-39171037D01*
X154649685Y-39091685D01*
X154729037Y-38994994D01*
X154788002Y-38884680D01*
X154824312Y-38764982D01*
X154836572Y-38640500D01*
X154833500Y-38227750D01*
X154674750Y-38069000D01*
X153627000Y-38069000D01*
X153373000Y-38069000D01*
X152325250Y-38069000D01*
X152166500Y-38227750D01*
X152163428Y-38640500D01*
X144622236Y-38640500D01*
X144800287Y-38051304D01*
X144860168Y-37436672D01*
X144840937Y-37243500D01*
X152163428Y-37243500D01*
X152166500Y-37656250D01*
X152325250Y-37815000D01*
X153373000Y-37815000D01*
X153373000Y-36767250D01*
X153627000Y-36767250D01*
X153627000Y-37815000D01*
X154674750Y-37815000D01*
X154833500Y-37656250D01*
X154836572Y-37243500D01*
X156163428Y-37243500D01*
X156163428Y-38640500D01*
X156175688Y-38764982D01*
X156211998Y-38884680D01*
X156270963Y-38994994D01*
X156350315Y-39091685D01*
X156447006Y-39171037D01*
X156557320Y-39230002D01*
X156677018Y-39266312D01*
X156801500Y-39278572D01*
X157551789Y-39278572D01*
X157510498Y-39355820D01*
X157474188Y-39475518D01*
X157461928Y-39600000D01*
X157461928Y-41200000D01*
X157474188Y-41324482D01*
X157510498Y-41444180D01*
X157569463Y-41554494D01*
X157648815Y-41651185D01*
X157745506Y-41730537D01*
X157855820Y-41789502D01*
X157975518Y-41825812D01*
X158100000Y-41838072D01*
X159700000Y-41838072D01*
X159824482Y-41825812D01*
X159944180Y-41789502D01*
X160054494Y-41730537D01*
X160151185Y-41651185D01*
X160230537Y-41554494D01*
X160289502Y-41444180D01*
X160325812Y-41324482D01*
X160338072Y-41200000D01*
X160338072Y-40749039D01*
X165128096Y-40749039D01*
X165168754Y-40883087D01*
X165288963Y-41137420D01*
X165456481Y-41363414D01*
X165664869Y-41552385D01*
X165906119Y-41697070D01*
X166170960Y-41791909D01*
X166393000Y-41670624D01*
X166393000Y-40527000D01*
X165250085Y-40527000D01*
X165128096Y-40749039D01*
X160338072Y-40749039D01*
X160338072Y-40050961D01*
X165128096Y-40050961D01*
X165250085Y-40273000D01*
X166393000Y-40273000D01*
X166393000Y-39129376D01*
X166170960Y-39008091D01*
X165906119Y-39102930D01*
X165664869Y-39247615D01*
X165456481Y-39436586D01*
X165288963Y-39662580D01*
X165168754Y-39916913D01*
X165128096Y-40050961D01*
X160338072Y-40050961D01*
X160338072Y-39600000D01*
X160325812Y-39475518D01*
X160289502Y-39355820D01*
X160230537Y-39245506D01*
X160151185Y-39148815D01*
X160054494Y-39069463D01*
X159944180Y-39010498D01*
X159824482Y-38974188D01*
X159700000Y-38961928D01*
X158746711Y-38961928D01*
X158788002Y-38884680D01*
X158824312Y-38764982D01*
X158836572Y-38640500D01*
X158836572Y-37243500D01*
X158824312Y-37119018D01*
X158788002Y-36999320D01*
X158755743Y-36938967D01*
X158985000Y-36938967D01*
X158985000Y-37261033D01*
X159047832Y-37576912D01*
X159171082Y-37874463D01*
X159350013Y-38142252D01*
X159577748Y-38369987D01*
X159845537Y-38548918D01*
X160143088Y-38672168D01*
X160458967Y-38735000D01*
X160781033Y-38735000D01*
X161096912Y-38672168D01*
X161394463Y-38548918D01*
X161662252Y-38369987D01*
X161889987Y-38142252D01*
X161918218Y-38100000D01*
X164061928Y-38100000D01*
X164074188Y-38224482D01*
X164110498Y-38344180D01*
X164169463Y-38454494D01*
X164248815Y-38551185D01*
X164345506Y-38630537D01*
X164455820Y-38689502D01*
X164575518Y-38725812D01*
X164700000Y-38738072D01*
X165414250Y-38735000D01*
X165573000Y-38576250D01*
X165573000Y-37227000D01*
X165827000Y-37227000D01*
X165827000Y-38576250D01*
X165985750Y-38735000D01*
X166700000Y-38738072D01*
X166824482Y-38725812D01*
X166944180Y-38689502D01*
X167054494Y-38630537D01*
X167151185Y-38551185D01*
X167230537Y-38454494D01*
X167289502Y-38344180D01*
X167325812Y-38224482D01*
X167338072Y-38100000D01*
X167335000Y-37385750D01*
X167176250Y-37227000D01*
X165827000Y-37227000D01*
X165573000Y-37227000D01*
X164223750Y-37227000D01*
X164065000Y-37385750D01*
X164061928Y-38100000D01*
X161918218Y-38100000D01*
X162068918Y-37874463D01*
X162192168Y-37576912D01*
X162255000Y-37261033D01*
X162255000Y-36938967D01*
X162192168Y-36623088D01*
X162068918Y-36325537D01*
X161918219Y-36100000D01*
X164061928Y-36100000D01*
X164065000Y-36814250D01*
X164223750Y-36973000D01*
X165573000Y-36973000D01*
X165573000Y-36953000D01*
X165827000Y-36953000D01*
X165827000Y-36973000D01*
X167176250Y-36973000D01*
X167335000Y-36814250D01*
X167338072Y-36100000D01*
X167325812Y-35975518D01*
X167289502Y-35855820D01*
X167230537Y-35745506D01*
X167151185Y-35648815D01*
X167054494Y-35569463D01*
X167008370Y-35544809D01*
X167148918Y-35334463D01*
X167272168Y-35036912D01*
X167335000Y-34721033D01*
X167335000Y-34398967D01*
X167272168Y-34083088D01*
X167148918Y-33785537D01*
X166969987Y-33517748D01*
X166742252Y-33290013D01*
X166474463Y-33111082D01*
X166176912Y-32987832D01*
X165861033Y-32925000D01*
X165538967Y-32925000D01*
X165223088Y-32987832D01*
X164925537Y-33111082D01*
X164657748Y-33290013D01*
X164430013Y-33517748D01*
X164251082Y-33785537D01*
X164127832Y-34083088D01*
X164065000Y-34398967D01*
X164065000Y-34721033D01*
X164127832Y-35036912D01*
X164251082Y-35334463D01*
X164391630Y-35544809D01*
X164345506Y-35569463D01*
X164248815Y-35648815D01*
X164169463Y-35745506D01*
X164110498Y-35855820D01*
X164074188Y-35975518D01*
X164061928Y-36100000D01*
X161918219Y-36100000D01*
X161889987Y-36057748D01*
X161662252Y-35830013D01*
X161553400Y-35757280D01*
X161575808Y-35695413D01*
X160620000Y-34739605D01*
X159664192Y-35695413D01*
X159686600Y-35757280D01*
X159577748Y-35830013D01*
X159350013Y-36057748D01*
X159171082Y-36325537D01*
X159047832Y-36623088D01*
X158985000Y-36938967D01*
X158755743Y-36938967D01*
X158729037Y-36889006D01*
X158649685Y-36792315D01*
X158552994Y-36712963D01*
X158442680Y-36653998D01*
X158322982Y-36617688D01*
X158198500Y-36605428D01*
X156801500Y-36605428D01*
X156677018Y-36617688D01*
X156557320Y-36653998D01*
X156447006Y-36712963D01*
X156350315Y-36792315D01*
X156270963Y-36889006D01*
X156211998Y-36999320D01*
X156175688Y-37119018D01*
X156163428Y-37243500D01*
X154836572Y-37243500D01*
X154824312Y-37119018D01*
X154788002Y-36999320D01*
X154729037Y-36889006D01*
X154649685Y-36792315D01*
X154552994Y-36712963D01*
X154442680Y-36653998D01*
X154322982Y-36617688D01*
X154198500Y-36605428D01*
X153785750Y-36608500D01*
X153627000Y-36767250D01*
X153373000Y-36767250D01*
X153214250Y-36608500D01*
X152801500Y-36605428D01*
X152677018Y-36617688D01*
X152557320Y-36653998D01*
X152447006Y-36712963D01*
X152350315Y-36792315D01*
X152270963Y-36889006D01*
X152211998Y-36999320D01*
X152175688Y-37119018D01*
X152163428Y-37243500D01*
X144840937Y-37243500D01*
X144798990Y-36822169D01*
X144619103Y-36231408D01*
X144331118Y-35692627D01*
X143913148Y-35416457D01*
X141889605Y-37440000D01*
X141530395Y-37440000D01*
X139506852Y-35416457D01*
X139088882Y-35692627D01*
X138798351Y-36237557D01*
X138619713Y-36828696D01*
X138559832Y-37443328D01*
X138621010Y-38057831D01*
X138778187Y-38574011D01*
X138564446Y-38485476D01*
X137958771Y-38365000D01*
X137341229Y-38365000D01*
X136735554Y-38485476D01*
X136522403Y-38573766D01*
X136680287Y-38051304D01*
X136740168Y-37436672D01*
X136678990Y-36822169D01*
X136499103Y-36231408D01*
X136211118Y-35692627D01*
X135793148Y-35416457D01*
X133769605Y-37440000D01*
X133783748Y-37454143D01*
X133604143Y-37633748D01*
X133590000Y-37619605D01*
X131566457Y-39643148D01*
X103532388Y-39643148D01*
X103428574Y-39600147D01*
X103151335Y-39545000D01*
X102868665Y-39545000D01*
X102591426Y-39600147D01*
X102330273Y-39708320D01*
X102095241Y-39865363D01*
X101895363Y-40065241D01*
X101738320Y-40300273D01*
X101630147Y-40561426D01*
X101575000Y-40838665D01*
X101389724Y-40838665D01*
X101358787Y-40629870D01*
X101263603Y-40363708D01*
X101196671Y-40238486D01*
X100952702Y-40166903D01*
X100139605Y-40980000D01*
X99780395Y-40980000D01*
X98967298Y-40166903D01*
X98723329Y-40238486D01*
X98602429Y-40493996D01*
X98533700Y-40768184D01*
X98519783Y-41050512D01*
X98343265Y-41050512D01*
X98350217Y-40909488D01*
X98308787Y-40629870D01*
X98213603Y-40363708D01*
X98146671Y-40238486D01*
X97902702Y-40166903D01*
X97089605Y-40980000D01*
X96730395Y-40980000D01*
X95917298Y-40166903D01*
X95673329Y-40238486D01*
X95552429Y-40493996D01*
X95483700Y-40768184D01*
X95469783Y-41050512D01*
X95343265Y-41050512D01*
X95350217Y-40909488D01*
X95308787Y-40629870D01*
X95213603Y-40363708D01*
X95146671Y-40238486D01*
X94902702Y-40166903D01*
X94089605Y-40980000D01*
X93730395Y-40980000D01*
X92917298Y-40166903D01*
X92673329Y-40238486D01*
X92552429Y-40493996D01*
X92483700Y-40768184D01*
X92469783Y-41050512D01*
X81393758Y-41050512D01*
X81400217Y-40919488D01*
X81358787Y-40639870D01*
X81263603Y-40373708D01*
X81196671Y-40248486D01*
X80952702Y-40176903D01*
X80139605Y-40990000D01*
X79780395Y-40990000D01*
X79766253Y-40975858D01*
X79945858Y-40796253D01*
X79960000Y-40810395D01*
X80773097Y-39997298D01*
X80701514Y-39753329D01*
X80446004Y-39632429D01*
X80171816Y-39563700D01*
X79889488Y-39549783D01*
X79836472Y-39557638D01*
X79836859Y-39557251D01*
X79720199Y-39440591D01*
X79953812Y-39381314D01*
X80064559Y-39143125D01*
X80126711Y-38887907D01*
X80137876Y-38625467D01*
X80136821Y-38618662D01*
X80966500Y-38618662D01*
X80966500Y-38881338D01*
X81017746Y-39138968D01*
X81118268Y-39381649D01*
X81264203Y-39600057D01*
X81449943Y-39785797D01*
X81668351Y-39931732D01*
X81911032Y-40032254D01*
X82168662Y-40083500D01*
X82431338Y-40083500D01*
X82688968Y-40032254D01*
X82797501Y-39987298D01*
X93096903Y-39987298D01*
X93910000Y-40800395D01*
X94723097Y-39987298D01*
X96096903Y-39987298D01*
X96910000Y-40800395D01*
X97723097Y-39987298D01*
X99146903Y-39987298D01*
X99960000Y-40800395D01*
X100773097Y-39987298D01*
X100701514Y-39743329D01*
X100446004Y-39622429D01*
X100171816Y-39553700D01*
X99889488Y-39539783D01*
X99609870Y-39581213D01*
X99343708Y-39676397D01*
X99218486Y-39743329D01*
X99146903Y-39987298D01*
X97723097Y-39987298D01*
X97651514Y-39743329D01*
X97396004Y-39622429D01*
X97121816Y-39553700D01*
X96839488Y-39539783D01*
X96559870Y-39581213D01*
X96293708Y-39676397D01*
X96168486Y-39743329D01*
X96096903Y-39987298D01*
X94723097Y-39987298D01*
X94651514Y-39743329D01*
X94396004Y-39622429D01*
X94121816Y-39553700D01*
X93839488Y-39539783D01*
X93559870Y-39581213D01*
X93293708Y-39676397D01*
X93168486Y-39743329D01*
X93096903Y-39987298D01*
X82797501Y-39987298D01*
X82931649Y-39931732D01*
X83150057Y-39785797D01*
X83335797Y-39600057D01*
X83481732Y-39381649D01*
X83582254Y-39138968D01*
X83633500Y-38881338D01*
X83633500Y-38618662D01*
X83582254Y-38361032D01*
X83481732Y-38118351D01*
X83335797Y-37899943D01*
X83150057Y-37714203D01*
X82931649Y-37568268D01*
X82688968Y-37467746D01*
X82431338Y-37416500D01*
X82168662Y-37416500D01*
X81911032Y-37467746D01*
X81668351Y-37568268D01*
X81449943Y-37714203D01*
X81264203Y-37899943D01*
X81118268Y-38118351D01*
X81017746Y-38361032D01*
X80966500Y-38618662D01*
X80136821Y-38618662D01*
X80097629Y-38365893D01*
X80007514Y-38119158D01*
X79953812Y-38018686D01*
X79720197Y-37959408D01*
X78979605Y-38700000D01*
X78993748Y-38714143D01*
X78814143Y-38893748D01*
X78800000Y-38879605D01*
X78059408Y-39620197D01*
X77397206Y-39620197D01*
X77171816Y-39563700D01*
X76889488Y-39549783D01*
X76609870Y-39591213D01*
X76343708Y-39686397D01*
X76218486Y-39753329D01*
X76146903Y-39997298D01*
X74523097Y-39997298D01*
X74451514Y-39753329D01*
X74196004Y-39632429D01*
X73921816Y-39563700D01*
X73639488Y-39549783D01*
X73359870Y-39591213D01*
X73093708Y-39686397D01*
X72968486Y-39753329D01*
X72896903Y-39997298D01*
X71628072Y-39997298D01*
X71628072Y-38840000D01*
X71621625Y-38774533D01*
X77462124Y-38774533D01*
X77502371Y-39034107D01*
X77592486Y-39280842D01*
X77646188Y-39381314D01*
X77879803Y-39440592D01*
X78620395Y-38700000D01*
X77879803Y-37959408D01*
X77646188Y-38018686D01*
X77535441Y-38256875D01*
X77473289Y-38512093D01*
X77462124Y-38774533D01*
X71621625Y-38774533D01*
X71615812Y-38715518D01*
X71579502Y-38595820D01*
X71520537Y-38485506D01*
X71441185Y-38388815D01*
X71344494Y-38309463D01*
X71234180Y-38250498D01*
X71114482Y-38214188D01*
X71100268Y-38212788D01*
X71254463Y-38148918D01*
X71522252Y-37969987D01*
X71749987Y-37742252D01*
X71778218Y-37700000D01*
X73921928Y-37700000D01*
X73934188Y-37824482D01*
X73970498Y-37944180D01*
X74029463Y-38054494D01*
X74108815Y-38151185D01*
X74205506Y-38230537D01*
X74315820Y-38289502D01*
X74435518Y-38325812D01*
X74560000Y-38338072D01*
X75274250Y-38335000D01*
X75433000Y-38176250D01*
X75433000Y-36827000D01*
X75687000Y-36827000D01*
X75687000Y-38176250D01*
X75845750Y-38335000D01*
X76560000Y-38338072D01*
X76684482Y-38325812D01*
X76804180Y-38289502D01*
X76914494Y-38230537D01*
X77011185Y-38151185D01*
X77090537Y-38054494D01*
X77149502Y-37944180D01*
X77185812Y-37824482D01*
X77190212Y-37779803D01*
X78059408Y-37779803D01*
X78800000Y-38520395D01*
X79540592Y-37779803D01*
X79481314Y-37546188D01*
X79243125Y-37435441D01*
X79025353Y-37382408D01*
X109773000Y-37382408D01*
X109773000Y-37657592D01*
X109826686Y-37927490D01*
X109931995Y-38181727D01*
X110084880Y-38410535D01*
X110279465Y-38605120D01*
X110508273Y-38758005D01*
X110762510Y-38863314D01*
X111032408Y-38917000D01*
X111307592Y-38917000D01*
X111577490Y-38863314D01*
X111831727Y-38758005D01*
X112060535Y-38605120D01*
X112255120Y-38410535D01*
X112408005Y-38181727D01*
X112513314Y-37927490D01*
X112567000Y-37657592D01*
X112567000Y-37382408D01*
X122773000Y-37382408D01*
X122773000Y-37657592D01*
X122826686Y-37927490D01*
X122931995Y-38181727D01*
X123084880Y-38410535D01*
X123279465Y-38605120D01*
X123508273Y-38758005D01*
X123762510Y-38863314D01*
X124032408Y-38917000D01*
X124307592Y-38917000D01*
X124577490Y-38863314D01*
X124831727Y-38758005D01*
X125060535Y-38605120D01*
X125255120Y-38410535D01*
X125408005Y-38181727D01*
X125513314Y-37927490D01*
X125567000Y-37657592D01*
X125567000Y-37443328D01*
X130439832Y-37443328D01*
X130501010Y-38057831D01*
X130680897Y-38648592D01*
X130968882Y-39187373D01*
X131386852Y-39463543D01*
X133410395Y-37440000D01*
X131386852Y-35416457D01*
X130968882Y-35692627D01*
X130678351Y-36237557D01*
X130499713Y-36828696D01*
X130439832Y-37443328D01*
X125567000Y-37443328D01*
X125567000Y-37382408D01*
X125513314Y-37112510D01*
X125408005Y-36858273D01*
X125255120Y-36629465D01*
X125060535Y-36434880D01*
X124831727Y-36281995D01*
X124577490Y-36176686D01*
X124307592Y-36123000D01*
X124032408Y-36123000D01*
X123762510Y-36176686D01*
X123508273Y-36281995D01*
X123279465Y-36434880D01*
X123084880Y-36629465D01*
X122931995Y-36858273D01*
X122826686Y-37112510D01*
X122773000Y-37382408D01*
X112567000Y-37382408D01*
X112513314Y-37112510D01*
X112408005Y-36858273D01*
X112255120Y-36629465D01*
X112060535Y-36434880D01*
X111831727Y-36281995D01*
X111577490Y-36176686D01*
X111307592Y-36123000D01*
X111032408Y-36123000D01*
X110762510Y-36176686D01*
X110508273Y-36281995D01*
X110279465Y-36434880D01*
X110084880Y-36629465D01*
X109931995Y-36858273D01*
X109826686Y-37112510D01*
X109773000Y-37382408D01*
X79025353Y-37382408D01*
X78987907Y-37373289D01*
X78725467Y-37362124D01*
X78465893Y-37402371D01*
X78219158Y-37492486D01*
X78118686Y-37546188D01*
X78059408Y-37779803D01*
X77190212Y-37779803D01*
X77198072Y-37700000D01*
X77195000Y-36985750D01*
X77036250Y-36827000D01*
X75687000Y-36827000D01*
X75433000Y-36827000D01*
X74083750Y-36827000D01*
X73925000Y-36985750D01*
X73921928Y-37700000D01*
X71778218Y-37700000D01*
X71928918Y-37474463D01*
X72052168Y-37176912D01*
X72115000Y-36861033D01*
X72115000Y-36538967D01*
X72052168Y-36223088D01*
X71928918Y-35925537D01*
X71749987Y-35657748D01*
X71522252Y-35430013D01*
X71522233Y-35430000D01*
X71522252Y-35429987D01*
X71749987Y-35202252D01*
X71928918Y-34934463D01*
X72052168Y-34636912D01*
X72115000Y-34321033D01*
X72115000Y-34222595D01*
X73918282Y-34222595D01*
X73962039Y-34541675D01*
X74067205Y-34846088D01*
X74160186Y-35020044D01*
X74367033Y-35094963D01*
X74315820Y-35110498D01*
X74205506Y-35169463D01*
X74108815Y-35248815D01*
X74029463Y-35345506D01*
X73970498Y-35455820D01*
X73934188Y-35575518D01*
X73921928Y-35700000D01*
X73925000Y-36414250D01*
X74083750Y-36573000D01*
X75433000Y-36573000D01*
X75433000Y-36553000D01*
X75687000Y-36553000D01*
X75687000Y-36573000D01*
X77036250Y-36573000D01*
X77195000Y-36414250D01*
X77198072Y-35700000D01*
X77185812Y-35575518D01*
X77149502Y-35455820D01*
X77090537Y-35345506D01*
X77038996Y-35282702D01*
X84406903Y-35282702D01*
X84478486Y-35526671D01*
X84733996Y-35647571D01*
X85008184Y-35716300D01*
X85290512Y-35730217D01*
X85570130Y-35688787D01*
X85836292Y-35593603D01*
X85961514Y-35526671D01*
X86033097Y-35282702D01*
X85220000Y-34469605D01*
X84406903Y-35282702D01*
X77038996Y-35282702D01*
X77011185Y-35248815D01*
X76914494Y-35169463D01*
X76804180Y-35110498D01*
X76752967Y-35094963D01*
X76959814Y-35020044D01*
X77100704Y-34730429D01*
X77182384Y-34418892D01*
X77185894Y-34360512D01*
X83779783Y-34360512D01*
X83821213Y-34640130D01*
X83916397Y-34906292D01*
X83983329Y-35031514D01*
X84227298Y-35103097D01*
X85040395Y-34290000D01*
X85399605Y-34290000D01*
X86212702Y-35103097D01*
X86456671Y-35031514D01*
X86577571Y-34776004D01*
X86646300Y-34501816D01*
X86660217Y-34219488D01*
X86649724Y-34148665D01*
X88785000Y-34148665D01*
X88785000Y-34431335D01*
X88840147Y-34708574D01*
X88948320Y-34969727D01*
X89105363Y-35204759D01*
X89305241Y-35404637D01*
X89540273Y-35561680D01*
X89801426Y-35669853D01*
X90078665Y-35725000D01*
X90361335Y-35725000D01*
X90638574Y-35669853D01*
X90899727Y-35561680D01*
X91134759Y-35404637D01*
X91334637Y-35204759D01*
X91491680Y-34969727D01*
X91599853Y-34708574D01*
X91655000Y-34431335D01*
X91655000Y-34148665D01*
X91599853Y-33871426D01*
X91491680Y-33610273D01*
X91334637Y-33375241D01*
X91134759Y-33175363D01*
X90960108Y-33058665D01*
X92115000Y-33058665D01*
X92115000Y-33341335D01*
X92170147Y-33618574D01*
X92278320Y-33879727D01*
X92435363Y-34114759D01*
X92635241Y-34314637D01*
X92870273Y-34471680D01*
X93131426Y-34579853D01*
X93408665Y-34635000D01*
X93691335Y-34635000D01*
X93968574Y-34579853D01*
X94229727Y-34471680D01*
X94464759Y-34314637D01*
X94664637Y-34114759D01*
X94821680Y-33879727D01*
X94929853Y-33618574D01*
X94985000Y-33341335D01*
X94985000Y-33058665D01*
X94929853Y-32781426D01*
X94925085Y-32769913D01*
X97679200Y-32769913D01*
X97679200Y-33030087D01*
X97729957Y-33285263D01*
X97829522Y-33525634D01*
X97974067Y-33741961D01*
X98158039Y-33925933D01*
X98374366Y-34070478D01*
X98614737Y-34170043D01*
X98869913Y-34220800D01*
X99130087Y-34220800D01*
X99385263Y-34170043D01*
X99625634Y-34070478D01*
X99841961Y-33925933D01*
X100025933Y-33741961D01*
X100170478Y-33525634D01*
X100270043Y-33285263D01*
X100320800Y-33030087D01*
X100320800Y-32769913D01*
X100270043Y-32514737D01*
X100170478Y-32274366D01*
X100025933Y-32058039D01*
X99841961Y-31874067D01*
X99625634Y-31729522D01*
X99385263Y-31629957D01*
X99130087Y-31579200D01*
X98869913Y-31579200D01*
X98614737Y-31629957D01*
X98374366Y-31729522D01*
X98158039Y-31874067D01*
X97974067Y-32058039D01*
X97829522Y-32274366D01*
X97729957Y-32514737D01*
X97679200Y-32769913D01*
X94925085Y-32769913D01*
X94821680Y-32520273D01*
X94664637Y-32285241D01*
X94464759Y-32085363D01*
X94229727Y-31928320D01*
X93968574Y-31820147D01*
X93691335Y-31765000D01*
X93408665Y-31765000D01*
X93131426Y-31820147D01*
X92870273Y-31928320D01*
X92635241Y-32085363D01*
X92435363Y-32285241D01*
X92278320Y-32520273D01*
X92170147Y-32781426D01*
X92115000Y-33058665D01*
X90960108Y-33058665D01*
X90899727Y-33018320D01*
X90638574Y-32910147D01*
X90361335Y-32855000D01*
X90078665Y-32855000D01*
X89801426Y-32910147D01*
X89540273Y-33018320D01*
X89305241Y-33175363D01*
X89105363Y-33375241D01*
X88948320Y-33610273D01*
X88840147Y-33871426D01*
X88785000Y-34148665D01*
X86649724Y-34148665D01*
X86618787Y-33939870D01*
X86523603Y-33673708D01*
X86456671Y-33548486D01*
X86212702Y-33476903D01*
X85399605Y-34290000D01*
X85040395Y-34290000D01*
X84227298Y-33476903D01*
X83983329Y-33548486D01*
X83862429Y-33803996D01*
X83793700Y-34078184D01*
X83779783Y-34360512D01*
X77185894Y-34360512D01*
X77201718Y-34097405D01*
X77157961Y-33778325D01*
X77052795Y-33473912D01*
X76959814Y-33299956D01*
X76952476Y-33297298D01*
X84406903Y-33297298D01*
X85220000Y-34110395D01*
X86033097Y-33297298D01*
X85961514Y-33053329D01*
X85706004Y-32932429D01*
X85431816Y-32863700D01*
X85149488Y-32849783D01*
X84869870Y-32891213D01*
X84603708Y-32986397D01*
X84478486Y-33053329D01*
X84406903Y-33297298D01*
X76952476Y-33297298D01*
X76695413Y-33204192D01*
X75739605Y-34160000D01*
X75753748Y-34174143D01*
X75574143Y-34353748D01*
X75560000Y-34339605D01*
X75545858Y-34353748D01*
X75366253Y-34174143D01*
X75380395Y-34160000D01*
X74424587Y-33204192D01*
X74160186Y-33299956D01*
X74019296Y-33589571D01*
X73937616Y-33901108D01*
X73918282Y-34222595D01*
X72115000Y-34222595D01*
X72115000Y-33998967D01*
X72052168Y-33683088D01*
X71928918Y-33385537D01*
X71749987Y-33117748D01*
X71656826Y-33024587D01*
X74604192Y-33024587D01*
X75560000Y-33980395D01*
X76515808Y-33024587D01*
X76420044Y-32760186D01*
X76130429Y-32619296D01*
X75818892Y-32537616D01*
X75497405Y-32518282D01*
X75178325Y-32562039D01*
X74873912Y-32667205D01*
X74699956Y-32760186D01*
X74604192Y-33024587D01*
X71656826Y-33024587D01*
X71522252Y-32890013D01*
X71254463Y-32711082D01*
X70956912Y-32587832D01*
X70641033Y-32525000D01*
X70318967Y-32525000D01*
X70003088Y-32587832D01*
X69705537Y-32711082D01*
X69437748Y-32890013D01*
X69210013Y-33117748D01*
X69031082Y-33385537D01*
X68907832Y-33683088D01*
X68845000Y-33998967D01*
X68845000Y-34321033D01*
X68907832Y-34636912D01*
X69031082Y-34934463D01*
X69210013Y-35202252D01*
X69437748Y-35429987D01*
X69437767Y-35430000D01*
X69437748Y-35430013D01*
X69210013Y-35657748D01*
X69031082Y-35925537D01*
X68907832Y-36223088D01*
X68845000Y-36538967D01*
X68845000Y-36861033D01*
X68907832Y-37176912D01*
X69031082Y-37474463D01*
X69210013Y-37742252D01*
X69437748Y-37969987D01*
X69705537Y-38148918D01*
X69833514Y-38201928D01*
X69390000Y-38201928D01*
X69265518Y-38214188D01*
X69145820Y-38250498D01*
X69035506Y-38309463D01*
X68938815Y-38388815D01*
X68859463Y-38485506D01*
X68800498Y-38595820D01*
X68764188Y-38715518D01*
X68751928Y-38840000D01*
X68660000Y-38840000D01*
X68660000Y-29898665D01*
X83585000Y-29898665D01*
X83585000Y-30181335D01*
X83640147Y-30458574D01*
X83748320Y-30719727D01*
X83905363Y-30954759D01*
X84105241Y-31154637D01*
X84340273Y-31311680D01*
X84601426Y-31419853D01*
X84878665Y-31475000D01*
X85161335Y-31475000D01*
X85438574Y-31419853D01*
X85699727Y-31311680D01*
X85934759Y-31154637D01*
X86134637Y-30954759D01*
X86291680Y-30719727D01*
X86399853Y-30458574D01*
X86455000Y-30181335D01*
X86455000Y-29898665D01*
X88585000Y-29898665D01*
X88585000Y-30181335D01*
X88640147Y-30458574D01*
X88748320Y-30719727D01*
X88905363Y-30954759D01*
X89105241Y-31154637D01*
X89340273Y-31311680D01*
X89601426Y-31419853D01*
X89878665Y-31475000D01*
X90161335Y-31475000D01*
X90438574Y-31419853D01*
X90699727Y-31311680D01*
X90934759Y-31154637D01*
X91134637Y-30954759D01*
X91171714Y-30899268D01*
X103265000Y-30899268D01*
X103265000Y-31260732D01*
X103335518Y-31615250D01*
X103473844Y-31949199D01*
X103674662Y-32249744D01*
X103930256Y-32505338D01*
X104230801Y-32706156D01*
X104564750Y-32844482D01*
X104919268Y-32915000D01*
X105280732Y-32915000D01*
X105635250Y-32844482D01*
X105969199Y-32706156D01*
X106269744Y-32505338D01*
X106525338Y-32249744D01*
X106726156Y-31949199D01*
X106864482Y-31615250D01*
X106935000Y-31260732D01*
X106935000Y-30899268D01*
X106864482Y-30544750D01*
X106726156Y-30210801D01*
X106525338Y-29910256D01*
X106269744Y-29654662D01*
X105969199Y-29453844D01*
X105635250Y-29315518D01*
X105280732Y-29245000D01*
X104919268Y-29245000D01*
X104564750Y-29315518D01*
X104230801Y-29453844D01*
X103930256Y-29654662D01*
X103674662Y-29910256D01*
X103473844Y-30210801D01*
X103335518Y-30544750D01*
X103265000Y-30899268D01*
X91171714Y-30899268D01*
X91291680Y-30719727D01*
X91399853Y-30458574D01*
X91455000Y-30181335D01*
X91455000Y-29898665D01*
X91399853Y-29621426D01*
X91291680Y-29360273D01*
X91134637Y-29125241D01*
X90934759Y-28925363D01*
X90699727Y-28768320D01*
X90438574Y-28660147D01*
X90161335Y-28605000D01*
X89878665Y-28605000D01*
X89601426Y-28660147D01*
X89340273Y-28768320D01*
X89105241Y-28925363D01*
X88905363Y-29125241D01*
X88748320Y-29360273D01*
X88640147Y-29621426D01*
X88585000Y-29898665D01*
X86455000Y-29898665D01*
X86399853Y-29621426D01*
X86291680Y-29360273D01*
X86134637Y-29125241D01*
X85934759Y-28925363D01*
X85699727Y-28768320D01*
X85438574Y-28660147D01*
X85161335Y-28605000D01*
X84878665Y-28605000D01*
X84601426Y-28660147D01*
X84340273Y-28768320D01*
X84105241Y-28925363D01*
X83905363Y-29125241D01*
X83748320Y-29360273D01*
X83640147Y-29621426D01*
X83585000Y-29898665D01*
X68660000Y-29898665D01*
X68660000Y-26378967D01*
X68845000Y-26378967D01*
X68845000Y-26701033D01*
X68907832Y-27016912D01*
X69031082Y-27314463D01*
X69210013Y-27582252D01*
X69437748Y-27809987D01*
X69705537Y-27988918D01*
X70003088Y-28112168D01*
X70318967Y-28175000D01*
X70641033Y-28175000D01*
X70956912Y-28112168D01*
X71254463Y-27988918D01*
X71522252Y-27809987D01*
X71749987Y-27582252D01*
X71928918Y-27314463D01*
X72052168Y-27016912D01*
X72115000Y-26701033D01*
X72115000Y-26378967D01*
X73925000Y-26378967D01*
X73925000Y-26701033D01*
X73987832Y-27016912D01*
X74111082Y-27314463D01*
X74290013Y-27582252D01*
X74517748Y-27809987D01*
X74785537Y-27988918D01*
X75083088Y-28112168D01*
X75398967Y-28175000D01*
X75721033Y-28175000D01*
X76036912Y-28112168D01*
X76334463Y-27988918D01*
X76602252Y-27809987D01*
X76829987Y-27582252D01*
X77008918Y-27314463D01*
X77132168Y-27016912D01*
X77195000Y-26701033D01*
X77195000Y-26378967D01*
X77132168Y-26063088D01*
X77027129Y-25809500D01*
X77463428Y-25809500D01*
X77463428Y-27206500D01*
X77475688Y-27330982D01*
X77511998Y-27450680D01*
X77570963Y-27560994D01*
X77650315Y-27657685D01*
X77747006Y-27737037D01*
X77857320Y-27796002D01*
X77977018Y-27832312D01*
X78101500Y-27844572D01*
X79498500Y-27844572D01*
X79622982Y-27832312D01*
X79742680Y-27796002D01*
X79852994Y-27737037D01*
X79949685Y-27657685D01*
X80029037Y-27560994D01*
X80088002Y-27450680D01*
X80124312Y-27330982D01*
X80136572Y-27206500D01*
X80136572Y-25859500D01*
X80963428Y-25859500D01*
X80963428Y-27256500D01*
X80975688Y-27380982D01*
X81011998Y-27500680D01*
X81070963Y-27610994D01*
X81150315Y-27707685D01*
X81247006Y-27787037D01*
X81357320Y-27846002D01*
X81477018Y-27882312D01*
X81601500Y-27894572D01*
X82998500Y-27894572D01*
X83122982Y-27882312D01*
X83242680Y-27846002D01*
X83352994Y-27787037D01*
X83449685Y-27707685D01*
X83529037Y-27610994D01*
X83588002Y-27500680D01*
X83624312Y-27380982D01*
X83636572Y-27256500D01*
X83636572Y-25859500D01*
X83632610Y-25819268D01*
X103265000Y-25819268D01*
X103265000Y-26180732D01*
X103335518Y-26535250D01*
X103473844Y-26869199D01*
X103674662Y-27169744D01*
X103930256Y-27425338D01*
X104230801Y-27626156D01*
X104564750Y-27764482D01*
X104919268Y-27835000D01*
X105280732Y-27835000D01*
X105635250Y-27764482D01*
X105969199Y-27626156D01*
X106269744Y-27425338D01*
X106525338Y-27169744D01*
X106726156Y-26869199D01*
X106864482Y-26535250D01*
X106935000Y-26180732D01*
X106935000Y-25819268D01*
X106864482Y-25464750D01*
X106726156Y-25130801D01*
X106525338Y-24830256D01*
X106269744Y-24574662D01*
X105969199Y-24373844D01*
X105635250Y-24235518D01*
X105280732Y-24165000D01*
X104919268Y-24165000D01*
X104564750Y-24235518D01*
X104230801Y-24373844D01*
X103930256Y-24574662D01*
X103674662Y-24830256D01*
X103473844Y-25130801D01*
X103335518Y-25464750D01*
X103265000Y-25819268D01*
X83632610Y-25819268D01*
X83624312Y-25735018D01*
X83610071Y-25688072D01*
X84350000Y-25688072D01*
X84474482Y-25675812D01*
X84594180Y-25639502D01*
X84704494Y-25580537D01*
X84801185Y-25501185D01*
X84880537Y-25404494D01*
X84939502Y-25294180D01*
X84975812Y-25174482D01*
X84988072Y-25050000D01*
X84988072Y-24158665D01*
X85115000Y-24158665D01*
X85115000Y-24441335D01*
X85170147Y-24718574D01*
X85278320Y-24979727D01*
X85435363Y-25214759D01*
X85635241Y-25414637D01*
X85870273Y-25571680D01*
X86131426Y-25679853D01*
X86408665Y-25735000D01*
X86691335Y-25735000D01*
X86968574Y-25679853D01*
X87229727Y-25571680D01*
X87464759Y-25414637D01*
X87664637Y-25214759D01*
X87821680Y-24979727D01*
X87929853Y-24718574D01*
X87985000Y-24441335D01*
X87985000Y-24158665D01*
X87929853Y-23881426D01*
X87821680Y-23620273D01*
X87664637Y-23385241D01*
X87464759Y-23185363D01*
X87229727Y-23028320D01*
X86968574Y-22920147D01*
X86691335Y-22865000D01*
X86408665Y-22865000D01*
X86131426Y-22920147D01*
X85870273Y-23028320D01*
X85635241Y-23185363D01*
X85435363Y-23385241D01*
X85278320Y-23620273D01*
X85170147Y-23881426D01*
X85115000Y-24158665D01*
X84988072Y-24158665D01*
X84988072Y-23450000D01*
X84975812Y-23325518D01*
X84939502Y-23205820D01*
X84880537Y-23095506D01*
X84801185Y-22998815D01*
X84704494Y-22919463D01*
X84594180Y-22860498D01*
X84474482Y-22824188D01*
X84350000Y-22811928D01*
X82750000Y-22811928D01*
X82625518Y-22824188D01*
X82505820Y-22860498D01*
X82395506Y-22919463D01*
X82298815Y-22998815D01*
X82219463Y-23095506D01*
X82160498Y-23205820D01*
X82124188Y-23325518D01*
X82111928Y-23450000D01*
X82111928Y-25050000D01*
X82124188Y-25174482D01*
X82138429Y-25221428D01*
X81601500Y-25221428D01*
X81477018Y-25233688D01*
X81357320Y-25269998D01*
X81247006Y-25328963D01*
X81150315Y-25408315D01*
X81070963Y-25505006D01*
X81011998Y-25615320D01*
X80975688Y-25735018D01*
X80963428Y-25859500D01*
X80136572Y-25859500D01*
X80136572Y-25809500D01*
X80124312Y-25685018D01*
X80088002Y-25565320D01*
X80029037Y-25455006D01*
X79949685Y-25358315D01*
X79852994Y-25278963D01*
X79742680Y-25219998D01*
X79622982Y-25183688D01*
X79498500Y-25171428D01*
X78101500Y-25171428D01*
X77977018Y-25183688D01*
X77857320Y-25219998D01*
X77747006Y-25278963D01*
X77650315Y-25358315D01*
X77570963Y-25455006D01*
X77511998Y-25565320D01*
X77475688Y-25685018D01*
X77463428Y-25809500D01*
X77027129Y-25809500D01*
X77008918Y-25765537D01*
X76829987Y-25497748D01*
X76602252Y-25270013D01*
X76334463Y-25091082D01*
X76036912Y-24967832D01*
X75721033Y-24905000D01*
X75398967Y-24905000D01*
X75083088Y-24967832D01*
X74785537Y-25091082D01*
X74517748Y-25270013D01*
X74290013Y-25497748D01*
X74111082Y-25765537D01*
X73987832Y-26063088D01*
X73925000Y-26378967D01*
X72115000Y-26378967D01*
X72052168Y-26063088D01*
X71928918Y-25765537D01*
X71749987Y-25497748D01*
X71522252Y-25270013D01*
X71254463Y-25091082D01*
X70956912Y-24967832D01*
X70641033Y-24905000D01*
X70318967Y-24905000D01*
X70003088Y-24967832D01*
X69705537Y-25091082D01*
X69437748Y-25270013D01*
X69210013Y-25497748D01*
X69031082Y-25765537D01*
X68907832Y-26063088D01*
X68845000Y-26378967D01*
X68660000Y-26378967D01*
X68660000Y-19513945D01*
X69065000Y-19513945D01*
X69065000Y-20486055D01*
X69254650Y-21439486D01*
X69626660Y-22337599D01*
X70166735Y-23145879D01*
X70854121Y-23833265D01*
X71662401Y-24373340D01*
X72560514Y-24745350D01*
X73513945Y-24935000D01*
X74486055Y-24935000D01*
X75439486Y-24745350D01*
X76337599Y-24373340D01*
X77145879Y-23833265D01*
X77833265Y-23145879D01*
X78373340Y-22337599D01*
X78745350Y-21439486D01*
X78935000Y-20486055D01*
X78935000Y-20358665D01*
X92115000Y-20358665D01*
X92115000Y-20641335D01*
X92170147Y-20918574D01*
X92278320Y-21179727D01*
X92435363Y-21414759D01*
X92635241Y-21614637D01*
X92870273Y-21771680D01*
X93131426Y-21879853D01*
X93408665Y-21935000D01*
X93691335Y-21935000D01*
X93968574Y-21879853D01*
X94229727Y-21771680D01*
X94464759Y-21614637D01*
X94664637Y-21414759D01*
X94821680Y-21179727D01*
X94929853Y-20918574D01*
X94985000Y-20641335D01*
X94985000Y-20530200D01*
X97676128Y-20530200D01*
X97676128Y-21901800D01*
X97688388Y-22026282D01*
X97724698Y-22145980D01*
X97783663Y-22256294D01*
X97863015Y-22352985D01*
X97959706Y-22432337D01*
X98070020Y-22491302D01*
X98189718Y-22527612D01*
X98314200Y-22539872D01*
X99685800Y-22539872D01*
X99810282Y-22527612D01*
X99929980Y-22491302D01*
X100040294Y-22432337D01*
X100136985Y-22352985D01*
X100216337Y-22256294D01*
X100275302Y-22145980D01*
X100311612Y-22026282D01*
X100323872Y-21901800D01*
X100323872Y-20530200D01*
X100314989Y-20440000D01*
X108963000Y-20440000D01*
X108963000Y-35580000D01*
X108965440Y-35604776D01*
X108972667Y-35628601D01*
X108984403Y-35650557D01*
X109000197Y-35669803D01*
X109019443Y-35685597D01*
X109041399Y-35697333D01*
X109065224Y-35704560D01*
X109090000Y-35707000D01*
X125240000Y-35707000D01*
X125264776Y-35704560D01*
X125288601Y-35697333D01*
X125310557Y-35685597D01*
X125329803Y-35669803D01*
X125345597Y-35650557D01*
X125357333Y-35628601D01*
X125364560Y-35604776D01*
X125367000Y-35580000D01*
X125367000Y-35236852D01*
X131566457Y-35236852D01*
X133590000Y-37260395D01*
X135613543Y-35236852D01*
X139686457Y-35236852D01*
X141710000Y-37260395D01*
X143733543Y-35236852D01*
X143457373Y-34818882D01*
X143089211Y-34622595D01*
X158978282Y-34622595D01*
X159022039Y-34941675D01*
X159127205Y-35246088D01*
X159220186Y-35420044D01*
X159484587Y-35515808D01*
X160440395Y-34560000D01*
X160799605Y-34560000D01*
X161755413Y-35515808D01*
X162019814Y-35420044D01*
X162160704Y-35130429D01*
X162242384Y-34818892D01*
X162261718Y-34497405D01*
X162217961Y-34178325D01*
X162112795Y-33873912D01*
X162019814Y-33699956D01*
X161755413Y-33604192D01*
X160799605Y-34560000D01*
X160440395Y-34560000D01*
X159484587Y-33604192D01*
X159220186Y-33699956D01*
X159079296Y-33989571D01*
X158997616Y-34301108D01*
X158978282Y-34622595D01*
X143089211Y-34622595D01*
X142912443Y-34528351D01*
X142321304Y-34349713D01*
X141706672Y-34289832D01*
X141092169Y-34351010D01*
X140501408Y-34530897D01*
X139962627Y-34818882D01*
X139686457Y-35236852D01*
X135613543Y-35236852D01*
X135337373Y-34818882D01*
X134792443Y-34528351D01*
X134201304Y-34349713D01*
X133586672Y-34289832D01*
X132972169Y-34351010D01*
X132381408Y-34530897D01*
X131842627Y-34818882D01*
X131566457Y-35236852D01*
X125367000Y-35236852D01*
X125367000Y-30874268D01*
X127540000Y-30874268D01*
X127540000Y-31235732D01*
X127610518Y-31590250D01*
X127748844Y-31924199D01*
X127949662Y-32224744D01*
X128205256Y-32480338D01*
X128505801Y-32681156D01*
X128839750Y-32819482D01*
X129194268Y-32890000D01*
X129555732Y-32890000D01*
X129556169Y-32889913D01*
X135259200Y-32889913D01*
X135259200Y-33150087D01*
X135309957Y-33405263D01*
X135409522Y-33645634D01*
X135554067Y-33861961D01*
X135738039Y-34045933D01*
X135954366Y-34190478D01*
X136194737Y-34290043D01*
X136449913Y-34340800D01*
X136710087Y-34340800D01*
X136965263Y-34290043D01*
X137205634Y-34190478D01*
X137421961Y-34045933D01*
X137605933Y-33861961D01*
X137750478Y-33645634D01*
X137850043Y-33405263D01*
X137900800Y-33150087D01*
X137900800Y-32889913D01*
X137850043Y-32634737D01*
X137760543Y-32418665D01*
X139795000Y-32418665D01*
X139795000Y-32701335D01*
X139850147Y-32978574D01*
X139958320Y-33239727D01*
X140115363Y-33474759D01*
X140315241Y-33674637D01*
X140550273Y-33831680D01*
X140811426Y-33939853D01*
X141088665Y-33995000D01*
X141371335Y-33995000D01*
X141648574Y-33939853D01*
X141909727Y-33831680D01*
X142144759Y-33674637D01*
X142344637Y-33474759D01*
X142501680Y-33239727D01*
X142604000Y-32992702D01*
X143466903Y-32992702D01*
X143538486Y-33236671D01*
X143793996Y-33357571D01*
X144068184Y-33426300D01*
X144350512Y-33440217D01*
X144630130Y-33398787D01*
X144896292Y-33303603D01*
X145021514Y-33236671D01*
X145093097Y-32992702D01*
X144280000Y-32179605D01*
X143466903Y-32992702D01*
X142604000Y-32992702D01*
X142609853Y-32978574D01*
X142665000Y-32701335D01*
X142665000Y-32418665D01*
X142609853Y-32141426D01*
X142580480Y-32070512D01*
X142839783Y-32070512D01*
X142881213Y-32350130D01*
X142976397Y-32616292D01*
X143043329Y-32741514D01*
X143287298Y-32813097D01*
X144100395Y-32000000D01*
X144459605Y-32000000D01*
X145272702Y-32813097D01*
X145516671Y-32741514D01*
X145637571Y-32486004D01*
X145706300Y-32211816D01*
X145720217Y-31929488D01*
X145709724Y-31858665D01*
X147845000Y-31858665D01*
X147845000Y-32141335D01*
X147900147Y-32418574D01*
X148008320Y-32679727D01*
X148165363Y-32914759D01*
X148365241Y-33114637D01*
X148600273Y-33271680D01*
X148861426Y-33379853D01*
X149138665Y-33435000D01*
X149421335Y-33435000D01*
X149473683Y-33424587D01*
X159664192Y-33424587D01*
X160620000Y-34380395D01*
X161575808Y-33424587D01*
X161480044Y-33160186D01*
X161190429Y-33019296D01*
X160878892Y-32937616D01*
X160557405Y-32918282D01*
X160238325Y-32962039D01*
X159933912Y-33067205D01*
X159759956Y-33160186D01*
X159664192Y-33424587D01*
X149473683Y-33424587D01*
X149698574Y-33379853D01*
X149959727Y-33271680D01*
X150194759Y-33114637D01*
X150394637Y-32914759D01*
X150551680Y-32679727D01*
X150659853Y-32418574D01*
X150715000Y-32141335D01*
X150715000Y-31858665D01*
X150659853Y-31581426D01*
X150551680Y-31320273D01*
X150394637Y-31085241D01*
X150194759Y-30885363D01*
X149959727Y-30728320D01*
X149698574Y-30620147D01*
X149421335Y-30565000D01*
X149138665Y-30565000D01*
X148861426Y-30620147D01*
X148600273Y-30728320D01*
X148365241Y-30885363D01*
X148165363Y-31085241D01*
X148008320Y-31320273D01*
X147900147Y-31581426D01*
X147845000Y-31858665D01*
X145709724Y-31858665D01*
X145678787Y-31649870D01*
X145583603Y-31383708D01*
X145516671Y-31258486D01*
X145272702Y-31186903D01*
X144459605Y-32000000D01*
X144100395Y-32000000D01*
X143287298Y-31186903D01*
X143043329Y-31258486D01*
X142922429Y-31513996D01*
X142853700Y-31788184D01*
X142839783Y-32070512D01*
X142580480Y-32070512D01*
X142501680Y-31880273D01*
X142344637Y-31645241D01*
X142144759Y-31445363D01*
X141909727Y-31288320D01*
X141648574Y-31180147D01*
X141371335Y-31125000D01*
X141088665Y-31125000D01*
X140811426Y-31180147D01*
X140550273Y-31288320D01*
X140315241Y-31445363D01*
X140115363Y-31645241D01*
X139958320Y-31880273D01*
X139850147Y-32141426D01*
X139795000Y-32418665D01*
X137760543Y-32418665D01*
X137750478Y-32394366D01*
X137605933Y-32178039D01*
X137421961Y-31994067D01*
X137205634Y-31849522D01*
X136965263Y-31749957D01*
X136710087Y-31699200D01*
X136449913Y-31699200D01*
X136194737Y-31749957D01*
X135954366Y-31849522D01*
X135738039Y-31994067D01*
X135554067Y-32178039D01*
X135409522Y-32394366D01*
X135309957Y-32634737D01*
X135259200Y-32889913D01*
X129556169Y-32889913D01*
X129910250Y-32819482D01*
X130244199Y-32681156D01*
X130544744Y-32480338D01*
X130800338Y-32224744D01*
X131001156Y-31924199D01*
X131139482Y-31590250D01*
X131210000Y-31235732D01*
X131210000Y-31007298D01*
X143466903Y-31007298D01*
X144280000Y-31820395D01*
X145093097Y-31007298D01*
X145021514Y-30763329D01*
X144766004Y-30642429D01*
X144491816Y-30573700D01*
X144209488Y-30559783D01*
X143929870Y-30601213D01*
X143663708Y-30696397D01*
X143538486Y-30763329D01*
X143466903Y-31007298D01*
X131210000Y-31007298D01*
X131210000Y-30874268D01*
X131139482Y-30519750D01*
X131001156Y-30185801D01*
X130800338Y-29885256D01*
X130544744Y-29629662D01*
X130244199Y-29428844D01*
X129910250Y-29290518D01*
X129555732Y-29220000D01*
X129194268Y-29220000D01*
X128839750Y-29290518D01*
X128505801Y-29428844D01*
X128205256Y-29629662D01*
X127949662Y-29885256D01*
X127748844Y-30185801D01*
X127610518Y-30519750D01*
X127540000Y-30874268D01*
X125367000Y-30874268D01*
X125367000Y-28538665D01*
X142885000Y-28538665D01*
X142885000Y-28821335D01*
X142940147Y-29098574D01*
X143048320Y-29359727D01*
X143205363Y-29594759D01*
X143405241Y-29794637D01*
X143640273Y-29951680D01*
X143901426Y-30059853D01*
X144178665Y-30115000D01*
X144461335Y-30115000D01*
X144738574Y-30059853D01*
X144999727Y-29951680D01*
X145234759Y-29794637D01*
X145434637Y-29594759D01*
X145591680Y-29359727D01*
X145699853Y-29098574D01*
X145755000Y-28821335D01*
X145755000Y-28538665D01*
X147885000Y-28538665D01*
X147885000Y-28821335D01*
X147940147Y-29098574D01*
X148048320Y-29359727D01*
X148205363Y-29594759D01*
X148405241Y-29794637D01*
X148640273Y-29951680D01*
X148901426Y-30059853D01*
X149178665Y-30115000D01*
X149461335Y-30115000D01*
X149738574Y-30059853D01*
X149999727Y-29951680D01*
X150234759Y-29794637D01*
X150434637Y-29594759D01*
X150591680Y-29359727D01*
X150699853Y-29098574D01*
X150755000Y-28821335D01*
X150755000Y-28538665D01*
X150699853Y-28261426D01*
X150591680Y-28000273D01*
X150434637Y-27765241D01*
X150234759Y-27565363D01*
X149999727Y-27408320D01*
X149738574Y-27300147D01*
X149461335Y-27245000D01*
X149178665Y-27245000D01*
X148901426Y-27300147D01*
X148640273Y-27408320D01*
X148405241Y-27565363D01*
X148205363Y-27765241D01*
X148048320Y-28000273D01*
X147940147Y-28261426D01*
X147885000Y-28538665D01*
X145755000Y-28538665D01*
X145699853Y-28261426D01*
X145591680Y-28000273D01*
X145434637Y-27765241D01*
X145234759Y-27565363D01*
X144999727Y-27408320D01*
X144738574Y-27300147D01*
X144461335Y-27245000D01*
X144178665Y-27245000D01*
X143901426Y-27300147D01*
X143640273Y-27408320D01*
X143405241Y-27565363D01*
X143205363Y-27765241D01*
X143048320Y-28000273D01*
X142940147Y-28261426D01*
X142885000Y-28538665D01*
X125367000Y-28538665D01*
X125367000Y-25794268D01*
X127540000Y-25794268D01*
X127540000Y-26155732D01*
X127610518Y-26510250D01*
X127748844Y-26844199D01*
X127949662Y-27144744D01*
X128205256Y-27400338D01*
X128505801Y-27601156D01*
X128839750Y-27739482D01*
X129194268Y-27810000D01*
X129555732Y-27810000D01*
X129910250Y-27739482D01*
X130244199Y-27601156D01*
X130544744Y-27400338D01*
X130800338Y-27144744D01*
X131001156Y-26844199D01*
X131139482Y-26510250D01*
X131210000Y-26155732D01*
X131210000Y-25794268D01*
X131175070Y-25618662D01*
X152166500Y-25618662D01*
X152166500Y-25881338D01*
X152217746Y-26138968D01*
X152318268Y-26381649D01*
X152464203Y-26600057D01*
X152649943Y-26785797D01*
X152868351Y-26931732D01*
X153111032Y-27032254D01*
X153368662Y-27083500D01*
X153631338Y-27083500D01*
X153888968Y-27032254D01*
X154131649Y-26931732D01*
X154350057Y-26785797D01*
X154535797Y-26600057D01*
X154681732Y-26381649D01*
X154782254Y-26138968D01*
X154833500Y-25881338D01*
X154833500Y-25618662D01*
X156166500Y-25618662D01*
X156166500Y-25881338D01*
X156217746Y-26138968D01*
X156318268Y-26381649D01*
X156464203Y-26600057D01*
X156649943Y-26785797D01*
X156868351Y-26931732D01*
X157111032Y-27032254D01*
X157368662Y-27083500D01*
X157631338Y-27083500D01*
X157888968Y-27032254D01*
X158131649Y-26931732D01*
X158350057Y-26785797D01*
X158356887Y-26778967D01*
X158985000Y-26778967D01*
X158985000Y-27101033D01*
X159047832Y-27416912D01*
X159171082Y-27714463D01*
X159350013Y-27982252D01*
X159577748Y-28209987D01*
X159845537Y-28388918D01*
X160143088Y-28512168D01*
X160458967Y-28575000D01*
X160781033Y-28575000D01*
X161096912Y-28512168D01*
X161394463Y-28388918D01*
X161662252Y-28209987D01*
X161889987Y-27982252D01*
X162068918Y-27714463D01*
X162192168Y-27416912D01*
X162255000Y-27101033D01*
X162255000Y-26778967D01*
X164065000Y-26778967D01*
X164065000Y-27101033D01*
X164127832Y-27416912D01*
X164251082Y-27714463D01*
X164430013Y-27982252D01*
X164657748Y-28209987D01*
X164925537Y-28388918D01*
X165223088Y-28512168D01*
X165538967Y-28575000D01*
X165861033Y-28575000D01*
X166176912Y-28512168D01*
X166474463Y-28388918D01*
X166742252Y-28209987D01*
X166969987Y-27982252D01*
X167148918Y-27714463D01*
X167272168Y-27416912D01*
X167335000Y-27101033D01*
X167335000Y-26778967D01*
X167272168Y-26463088D01*
X167148918Y-26165537D01*
X166969987Y-25897748D01*
X166742252Y-25670013D01*
X166474463Y-25491082D01*
X166176912Y-25367832D01*
X165861033Y-25305000D01*
X165538967Y-25305000D01*
X165223088Y-25367832D01*
X164925537Y-25491082D01*
X164657748Y-25670013D01*
X164430013Y-25897748D01*
X164251082Y-26165537D01*
X164127832Y-26463088D01*
X164065000Y-26778967D01*
X162255000Y-26778967D01*
X162192168Y-26463088D01*
X162068918Y-26165537D01*
X161889987Y-25897748D01*
X161662252Y-25670013D01*
X161394463Y-25491082D01*
X161096912Y-25367832D01*
X160781033Y-25305000D01*
X160458967Y-25305000D01*
X160143088Y-25367832D01*
X159845537Y-25491082D01*
X159577748Y-25670013D01*
X159350013Y-25897748D01*
X159171082Y-26165537D01*
X159047832Y-26463088D01*
X158985000Y-26778967D01*
X158356887Y-26778967D01*
X158535797Y-26600057D01*
X158681732Y-26381649D01*
X158782254Y-26138968D01*
X158833500Y-25881338D01*
X158833500Y-25618662D01*
X158782254Y-25361032D01*
X158681732Y-25118351D01*
X158535797Y-24899943D01*
X158350057Y-24714203D01*
X158131649Y-24568268D01*
X157888968Y-24467746D01*
X157631338Y-24416500D01*
X157368662Y-24416500D01*
X157111032Y-24467746D01*
X156868351Y-24568268D01*
X156649943Y-24714203D01*
X156464203Y-24899943D01*
X156318268Y-25118351D01*
X156217746Y-25361032D01*
X156166500Y-25618662D01*
X154833500Y-25618662D01*
X154782254Y-25361032D01*
X154681732Y-25118351D01*
X154535797Y-24899943D01*
X154350057Y-24714203D01*
X154131649Y-24568268D01*
X153888968Y-24467746D01*
X153631338Y-24416500D01*
X153368662Y-24416500D01*
X153111032Y-24467746D01*
X152868351Y-24568268D01*
X152649943Y-24714203D01*
X152464203Y-24899943D01*
X152318268Y-25118351D01*
X152217746Y-25361032D01*
X152166500Y-25618662D01*
X131175070Y-25618662D01*
X131139482Y-25439750D01*
X131001156Y-25105801D01*
X130800338Y-24805256D01*
X130544744Y-24549662D01*
X130244199Y-24348844D01*
X129910250Y-24210518D01*
X129555732Y-24140000D01*
X129194268Y-24140000D01*
X128839750Y-24210518D01*
X128505801Y-24348844D01*
X128205256Y-24549662D01*
X127949662Y-24805256D01*
X127748844Y-25105801D01*
X127610518Y-25439750D01*
X127540000Y-25794268D01*
X125367000Y-25794268D01*
X125367000Y-23478665D01*
X146265000Y-23478665D01*
X146265000Y-23761335D01*
X146320147Y-24038574D01*
X146428320Y-24299727D01*
X146585363Y-24534759D01*
X146785241Y-24734637D01*
X147020273Y-24891680D01*
X147281426Y-24999853D01*
X147558665Y-25055000D01*
X147841335Y-25055000D01*
X148118574Y-24999853D01*
X148379727Y-24891680D01*
X148614759Y-24734637D01*
X148814637Y-24534759D01*
X148971680Y-24299727D01*
X149079853Y-24038574D01*
X149135000Y-23761335D01*
X149135000Y-23478665D01*
X149079853Y-23201426D01*
X148971680Y-22940273D01*
X148891317Y-22820000D01*
X149461928Y-22820000D01*
X149461928Y-24420000D01*
X149474188Y-24544482D01*
X149510498Y-24664180D01*
X149569463Y-24774494D01*
X149648815Y-24871185D01*
X149745506Y-24950537D01*
X149855820Y-25009502D01*
X149975518Y-25045812D01*
X150100000Y-25058072D01*
X151700000Y-25058072D01*
X151824482Y-25045812D01*
X151944180Y-25009502D01*
X152054494Y-24950537D01*
X152151185Y-24871185D01*
X152230537Y-24774494D01*
X152289502Y-24664180D01*
X152325812Y-24544482D01*
X152338072Y-24420000D01*
X152338072Y-22820000D01*
X152325812Y-22695518D01*
X152289502Y-22575820D01*
X152230537Y-22465506D01*
X152151185Y-22368815D01*
X152054494Y-22289463D01*
X151944180Y-22230498D01*
X151824482Y-22194188D01*
X151700000Y-22181928D01*
X150100000Y-22181928D01*
X149975518Y-22194188D01*
X149855820Y-22230498D01*
X149745506Y-22289463D01*
X149648815Y-22368815D01*
X149569463Y-22465506D01*
X149510498Y-22575820D01*
X149474188Y-22695518D01*
X149461928Y-22820000D01*
X148891317Y-22820000D01*
X148814637Y-22705241D01*
X148614759Y-22505363D01*
X148379727Y-22348320D01*
X148118574Y-22240147D01*
X147841335Y-22185000D01*
X147558665Y-22185000D01*
X147281426Y-22240147D01*
X147020273Y-22348320D01*
X146785241Y-22505363D01*
X146585363Y-22705241D01*
X146428320Y-22940273D01*
X146320147Y-23201426D01*
X146265000Y-23478665D01*
X125367000Y-23478665D01*
X125367000Y-20650200D01*
X135256128Y-20650200D01*
X135256128Y-22021800D01*
X135268388Y-22146282D01*
X135304698Y-22265980D01*
X135363663Y-22376294D01*
X135443015Y-22472985D01*
X135539706Y-22552337D01*
X135650020Y-22611302D01*
X135769718Y-22647612D01*
X135894200Y-22659872D01*
X137265800Y-22659872D01*
X137390282Y-22647612D01*
X137509980Y-22611302D01*
X137620294Y-22552337D01*
X137716985Y-22472985D01*
X137796337Y-22376294D01*
X137855302Y-22265980D01*
X137891612Y-22146282D01*
X137903872Y-22021800D01*
X137903872Y-20650200D01*
X137891612Y-20525718D01*
X137855302Y-20406020D01*
X137796337Y-20295706D01*
X137716985Y-20199015D01*
X137620294Y-20119663D01*
X137509980Y-20060698D01*
X137390282Y-20024388D01*
X137265800Y-20012128D01*
X135894200Y-20012128D01*
X135769718Y-20024388D01*
X135650020Y-20060698D01*
X135539706Y-20119663D01*
X135443015Y-20199015D01*
X135363663Y-20295706D01*
X135304698Y-20406020D01*
X135268388Y-20525718D01*
X135256128Y-20650200D01*
X125367000Y-20650200D01*
X125367000Y-20440000D01*
X125364560Y-20415224D01*
X125357333Y-20391399D01*
X125345597Y-20369443D01*
X125329803Y-20350197D01*
X125310557Y-20334403D01*
X125288601Y-20322667D01*
X125264776Y-20315440D01*
X125240000Y-20313000D01*
X109090000Y-20313000D01*
X109065224Y-20315440D01*
X109041399Y-20322667D01*
X109019443Y-20334403D01*
X109000197Y-20350197D01*
X108984403Y-20369443D01*
X108972667Y-20391399D01*
X108965440Y-20415224D01*
X108963000Y-20440000D01*
X100314989Y-20440000D01*
X100311612Y-20405718D01*
X100275302Y-20286020D01*
X100216337Y-20175706D01*
X100136985Y-20079015D01*
X100040294Y-19999663D01*
X99929980Y-19940698D01*
X99810282Y-19904388D01*
X99685800Y-19892128D01*
X98314200Y-19892128D01*
X98189718Y-19904388D01*
X98070020Y-19940698D01*
X97959706Y-19999663D01*
X97863015Y-20079015D01*
X97783663Y-20175706D01*
X97724698Y-20286020D01*
X97688388Y-20405718D01*
X97676128Y-20530200D01*
X94985000Y-20530200D01*
X94985000Y-20358665D01*
X94929853Y-20081426D01*
X94821680Y-19820273D01*
X94664637Y-19585241D01*
X94464759Y-19385363D01*
X94229727Y-19228320D01*
X93968574Y-19120147D01*
X93691335Y-19065000D01*
X93408665Y-19065000D01*
X93131426Y-19120147D01*
X92870273Y-19228320D01*
X92635241Y-19385363D01*
X92435363Y-19585241D01*
X92278320Y-19820273D01*
X92170147Y-20081426D01*
X92115000Y-20358665D01*
X78935000Y-20358665D01*
X78935000Y-19513945D01*
X78745350Y-18560514D01*
X78373340Y-17662401D01*
X77916734Y-16979040D01*
X82158091Y-16979040D01*
X82252930Y-17243881D01*
X82397615Y-17485131D01*
X82586586Y-17693519D01*
X82812580Y-17861037D01*
X83066913Y-17981246D01*
X83200961Y-18021904D01*
X83423000Y-17899915D01*
X83423000Y-16757000D01*
X83677000Y-16757000D01*
X83677000Y-17899915D01*
X83899039Y-18021904D01*
X84033087Y-17981246D01*
X84287420Y-17861037D01*
X84513414Y-17693519D01*
X84702385Y-17485131D01*
X84705462Y-17480000D01*
X85111928Y-17480000D01*
X85124188Y-17604482D01*
X85160498Y-17724180D01*
X85219463Y-17834494D01*
X85298815Y-17931185D01*
X85395506Y-18010537D01*
X85505820Y-18069502D01*
X85625518Y-18105812D01*
X85750000Y-18118072D01*
X86264250Y-18115000D01*
X86423000Y-17956250D01*
X86423000Y-16807000D01*
X86677000Y-16807000D01*
X86677000Y-17956250D01*
X86835750Y-18115000D01*
X87350000Y-18118072D01*
X87474482Y-18105812D01*
X87594180Y-18069502D01*
X87704494Y-18010537D01*
X87726226Y-17992702D01*
X91636903Y-17992702D01*
X91708486Y-18236671D01*
X91963996Y-18357571D01*
X92238184Y-18426300D01*
X92520512Y-18440217D01*
X92800130Y-18398787D01*
X93066292Y-18303603D01*
X93191514Y-18236671D01*
X93263097Y-17992702D01*
X92450000Y-17179605D01*
X91636903Y-17992702D01*
X87726226Y-17992702D01*
X87801185Y-17931185D01*
X87880537Y-17834494D01*
X87939502Y-17724180D01*
X87975812Y-17604482D01*
X87988072Y-17480000D01*
X87985626Y-17070512D01*
X91009783Y-17070512D01*
X91051213Y-17350130D01*
X91146397Y-17616292D01*
X91213329Y-17741514D01*
X91457298Y-17813097D01*
X92270395Y-17000000D01*
X92629605Y-17000000D01*
X93442702Y-17813097D01*
X93686671Y-17741514D01*
X93807571Y-17486004D01*
X93876300Y-17211816D01*
X93890217Y-16929488D01*
X93879724Y-16858665D01*
X96015000Y-16858665D01*
X96015000Y-17141335D01*
X96070147Y-17418574D01*
X96178320Y-17679727D01*
X96335363Y-17914759D01*
X96535241Y-18114637D01*
X96770273Y-18271680D01*
X97031426Y-18379853D01*
X97308665Y-18435000D01*
X97591335Y-18435000D01*
X97868574Y-18379853D01*
X98129727Y-18271680D01*
X98364759Y-18114637D01*
X98564637Y-17914759D01*
X98721680Y-17679727D01*
X98829853Y-17418574D01*
X98885000Y-17141335D01*
X98885000Y-16858665D01*
X98829853Y-16581426D01*
X98721680Y-16320273D01*
X98564637Y-16085241D01*
X98364759Y-15885363D01*
X98129727Y-15728320D01*
X97868574Y-15620147D01*
X97591335Y-15565000D01*
X97308665Y-15565000D01*
X97031426Y-15620147D01*
X96770273Y-15728320D01*
X96535241Y-15885363D01*
X96335363Y-16085241D01*
X96178320Y-16320273D01*
X96070147Y-16581426D01*
X96015000Y-16858665D01*
X93879724Y-16858665D01*
X93848787Y-16649870D01*
X93753603Y-16383708D01*
X93686671Y-16258486D01*
X93442702Y-16186903D01*
X92629605Y-17000000D01*
X92270395Y-17000000D01*
X91457298Y-16186903D01*
X91213329Y-16258486D01*
X91092429Y-16513996D01*
X91023700Y-16788184D01*
X91009783Y-17070512D01*
X87985626Y-17070512D01*
X87985000Y-16965750D01*
X87826250Y-16807000D01*
X86677000Y-16807000D01*
X86423000Y-16807000D01*
X85273750Y-16807000D01*
X85115000Y-16965750D01*
X85111928Y-17480000D01*
X84705462Y-17480000D01*
X84847070Y-17243881D01*
X84941909Y-16979040D01*
X84820624Y-16757000D01*
X83677000Y-16757000D01*
X83423000Y-16757000D01*
X82279376Y-16757000D01*
X82158091Y-16979040D01*
X77916734Y-16979040D01*
X77833265Y-16854121D01*
X77260104Y-16280960D01*
X82158091Y-16280960D01*
X82279376Y-16503000D01*
X83423000Y-16503000D01*
X83423000Y-15360085D01*
X83677000Y-15360085D01*
X83677000Y-16503000D01*
X84820624Y-16503000D01*
X84941909Y-16280960D01*
X84847070Y-16016119D01*
X84765436Y-15880000D01*
X85111928Y-15880000D01*
X85115000Y-16394250D01*
X85273750Y-16553000D01*
X86423000Y-16553000D01*
X86423000Y-15403750D01*
X86677000Y-15403750D01*
X86677000Y-16553000D01*
X87826250Y-16553000D01*
X87985000Y-16394250D01*
X87987311Y-16007298D01*
X91636903Y-16007298D01*
X92450000Y-16820395D01*
X93263097Y-16007298D01*
X93191514Y-15763329D01*
X92936004Y-15642429D01*
X92661816Y-15573700D01*
X92379488Y-15559783D01*
X92099870Y-15601213D01*
X91833708Y-15696397D01*
X91708486Y-15763329D01*
X91636903Y-16007298D01*
X87987311Y-16007298D01*
X87988072Y-15880000D01*
X87975812Y-15755518D01*
X87939502Y-15635820D01*
X87880537Y-15525506D01*
X87801185Y-15428815D01*
X87704494Y-15349463D01*
X87594180Y-15290498D01*
X87474482Y-15254188D01*
X87350000Y-15241928D01*
X86835750Y-15245000D01*
X86677000Y-15403750D01*
X86423000Y-15403750D01*
X86264250Y-15245000D01*
X85750000Y-15241928D01*
X85625518Y-15254188D01*
X85505820Y-15290498D01*
X85395506Y-15349463D01*
X85298815Y-15428815D01*
X85219463Y-15525506D01*
X85160498Y-15635820D01*
X85124188Y-15755518D01*
X85111928Y-15880000D01*
X84765436Y-15880000D01*
X84702385Y-15774869D01*
X84513414Y-15566481D01*
X84287420Y-15398963D01*
X84033087Y-15278754D01*
X83899039Y-15238096D01*
X83677000Y-15360085D01*
X83423000Y-15360085D01*
X83200961Y-15238096D01*
X83066913Y-15278754D01*
X82812580Y-15398963D01*
X82586586Y-15566481D01*
X82397615Y-15774869D01*
X82252930Y-16016119D01*
X82158091Y-16280960D01*
X77260104Y-16280960D01*
X77145879Y-16166735D01*
X76337599Y-15626660D01*
X75439486Y-15254650D01*
X74486055Y-15065000D01*
X73513945Y-15065000D01*
X72560514Y-15254650D01*
X71662401Y-15626660D01*
X70854121Y-16166735D01*
X70166735Y-16854121D01*
X69626660Y-17662401D01*
X69254650Y-18560514D01*
X69065000Y-19513945D01*
X68660000Y-19513945D01*
X68660000Y-14660000D01*
X106731070Y-14660000D01*
X106590273Y-14718320D01*
%TA.AperFunction,Conductor*%
D29*
G36*
X106590273Y-14718320D02*
G01*
X106355241Y-14875363D01*
X106155363Y-15075241D01*
X105998320Y-15310273D01*
X105890147Y-15571426D01*
X105835000Y-15848665D01*
X105835000Y-16131335D01*
X105890147Y-16408574D01*
X105998320Y-16669727D01*
X106155363Y-16904759D01*
X106355241Y-17104637D01*
X106590273Y-17261680D01*
X106851426Y-17369853D01*
X107128665Y-17425000D01*
X107411335Y-17425000D01*
X107688574Y-17369853D01*
X107949727Y-17261680D01*
X108184759Y-17104637D01*
X108384637Y-16904759D01*
X108541680Y-16669727D01*
X108649853Y-16408574D01*
X108705000Y-16131335D01*
X108705000Y-15848665D01*
X108649853Y-15571426D01*
X108541680Y-15310273D01*
X108384637Y-15075241D01*
X108184759Y-14875363D01*
X107949727Y-14718320D01*
X107808930Y-14660000D01*
X111731070Y-14660000D01*
X111590273Y-14718320D01*
X111355241Y-14875363D01*
X111155363Y-15075241D01*
X110998320Y-15310273D01*
X110890147Y-15571426D01*
X110835000Y-15848665D01*
X110835000Y-16131335D01*
X110890147Y-16408574D01*
X110998320Y-16669727D01*
X111155363Y-16904759D01*
X111355241Y-17104637D01*
X111414570Y-17144279D01*
X111307592Y-17123000D01*
X111032408Y-17123000D01*
X110762510Y-17176686D01*
X110508273Y-17281995D01*
X110279465Y-17434880D01*
X110084880Y-17629465D01*
X109931995Y-17858273D01*
X109826686Y-18112510D01*
X109773000Y-18382408D01*
X109773000Y-18657592D01*
X109826686Y-18927490D01*
X109931995Y-19181727D01*
X110084880Y-19410535D01*
X110279465Y-19605120D01*
X110508273Y-19758005D01*
X110762510Y-19863314D01*
X111032408Y-19917000D01*
X111307592Y-19917000D01*
X111577490Y-19863314D01*
X111831727Y-19758005D01*
X112060535Y-19605120D01*
X112255120Y-19410535D01*
X112408005Y-19181727D01*
X112513314Y-18927490D01*
X112567000Y-18657592D01*
X112567000Y-18382408D01*
X112513314Y-18112510D01*
X112408005Y-17858273D01*
X112255120Y-17629465D01*
X112060535Y-17434880D01*
X112010601Y-17401515D01*
X112128665Y-17425000D01*
X112411335Y-17425000D01*
X112688574Y-17369853D01*
X112949727Y-17261680D01*
X113184759Y-17104637D01*
X113384637Y-16904759D01*
X113541680Y-16669727D01*
X113649853Y-16408574D01*
X113705000Y-16131335D01*
X113705000Y-15848665D01*
X113649853Y-15571426D01*
X113541680Y-15310273D01*
X113384637Y-15075241D01*
X113184759Y-14875363D01*
X112949727Y-14718320D01*
X112808930Y-14660000D01*
X118789354Y-14660000D01*
X118600273Y-14738320D01*
X118365241Y-14895363D01*
X118165363Y-15095241D01*
X118008320Y-15330273D01*
X117900147Y-15591426D01*
X117845000Y-15868665D01*
X117845000Y-16151335D01*
X117900147Y-16428574D01*
X118008320Y-16689727D01*
X118165363Y-16924759D01*
X118365241Y-17124637D01*
X118600273Y-17281680D01*
X118861426Y-17389853D01*
X119138665Y-17445000D01*
X119421335Y-17445000D01*
X119698574Y-17389853D01*
X119959727Y-17281680D01*
X120194759Y-17124637D01*
X120394637Y-16924759D01*
X120551680Y-16689727D01*
X120659853Y-16428574D01*
X120715000Y-16151335D01*
X120715000Y-15868665D01*
X120659853Y-15591426D01*
X120551680Y-15330273D01*
X120394637Y-15095241D01*
X120194759Y-14895363D01*
X119959727Y-14738320D01*
X119770646Y-14660000D01*
X123789354Y-14660000D01*
X123600273Y-14738320D01*
X123365241Y-14895363D01*
X123165363Y-15095241D01*
X123008320Y-15330273D01*
X122900147Y-15591426D01*
X122845000Y-15868665D01*
X122845000Y-16151335D01*
X122900147Y-16428574D01*
X123008320Y-16689727D01*
X123165363Y-16924759D01*
X123365241Y-17124637D01*
X123386189Y-17138634D01*
X123307592Y-17123000D01*
X123032408Y-17123000D01*
X122762510Y-17176686D01*
X122508273Y-17281995D01*
X122279465Y-17434880D01*
X122084880Y-17629465D01*
X121931995Y-17858273D01*
X121826686Y-18112510D01*
X121773000Y-18382408D01*
X121773000Y-18657592D01*
X121826686Y-18927490D01*
X121931995Y-19181727D01*
X122084880Y-19410535D01*
X122279465Y-19605120D01*
X122508273Y-19758005D01*
X122762510Y-19863314D01*
X123032408Y-19917000D01*
X123307592Y-19917000D01*
X123577490Y-19863314D01*
X123831727Y-19758005D01*
X123890603Y-19718665D01*
X139795000Y-19718665D01*
X139795000Y-20001335D01*
X139850147Y-20278574D01*
X139958320Y-20539727D01*
X140115363Y-20774759D01*
X140315241Y-20974637D01*
X140550273Y-21131680D01*
X140811426Y-21239853D01*
X141088665Y-21295000D01*
X141371335Y-21295000D01*
X141648574Y-21239853D01*
X141909727Y-21131680D01*
X142144759Y-20974637D01*
X142344637Y-20774759D01*
X142501680Y-20539727D01*
X142609853Y-20278574D01*
X142665000Y-20001335D01*
X142665000Y-19718665D01*
X142624279Y-19513945D01*
X157065000Y-19513945D01*
X157065000Y-20486055D01*
X157254650Y-21439486D01*
X157626660Y-22337599D01*
X158166735Y-23145879D01*
X158854121Y-23833265D01*
X159662401Y-24373340D01*
X160560514Y-24745350D01*
X161513945Y-24935000D01*
X162486055Y-24935000D01*
X163439486Y-24745350D01*
X164337599Y-24373340D01*
X165145879Y-23833265D01*
X165833265Y-23145879D01*
X166373340Y-22337599D01*
X166745350Y-21439486D01*
X166935000Y-20486055D01*
X166935000Y-19513945D01*
X166745350Y-18560514D01*
X166373340Y-17662401D01*
X165833265Y-16854121D01*
X165145879Y-16166735D01*
X164337599Y-15626660D01*
X163439486Y-15254650D01*
X162486055Y-15065000D01*
X161513945Y-15065000D01*
X160560514Y-15254650D01*
X159662401Y-15626660D01*
X158854121Y-16166735D01*
X158166735Y-16854121D01*
X157626660Y-17662401D01*
X157254650Y-18560514D01*
X157065000Y-19513945D01*
X142624279Y-19513945D01*
X142609853Y-19441426D01*
X142501680Y-19180273D01*
X142344637Y-18945241D01*
X142144759Y-18745363D01*
X141909727Y-18588320D01*
X141755442Y-18524413D01*
X141808665Y-18535000D01*
X142091335Y-18535000D01*
X142368574Y-18479853D01*
X142629727Y-18371680D01*
X142864759Y-18214637D01*
X143064637Y-18014759D01*
X143221680Y-17779727D01*
X143329853Y-17518574D01*
X143385000Y-17241335D01*
X143385000Y-16958665D01*
X143353440Y-16800000D01*
X146261928Y-16800000D01*
X146274188Y-16924482D01*
X146310498Y-17044180D01*
X146369463Y-17154494D01*
X146448815Y-17251185D01*
X146545506Y-17330537D01*
X146655820Y-17389502D01*
X146775518Y-17425812D01*
X146900000Y-17438072D01*
X147414250Y-17435000D01*
X147573000Y-17276250D01*
X147573000Y-16127000D01*
X147827000Y-16127000D01*
X147827000Y-17276250D01*
X147985750Y-17435000D01*
X148500000Y-17438072D01*
X148624482Y-17425812D01*
X148744180Y-17389502D01*
X148854494Y-17330537D01*
X148951185Y-17251185D01*
X149030537Y-17154494D01*
X149089502Y-17044180D01*
X149125812Y-16924482D01*
X149138072Y-16800000D01*
X149135379Y-16349040D01*
X149508091Y-16349040D01*
X149602930Y-16613881D01*
X149747615Y-16855131D01*
X149936586Y-17063519D01*
X150162580Y-17231037D01*
X150416913Y-17351246D01*
X150550961Y-17391904D01*
X150773000Y-17269915D01*
X150773000Y-16127000D01*
X151027000Y-16127000D01*
X151027000Y-17269915D01*
X151249039Y-17391904D01*
X151383087Y-17351246D01*
X151637420Y-17231037D01*
X151863414Y-17063519D01*
X152052385Y-16855131D01*
X152197070Y-16613881D01*
X152291909Y-16349040D01*
X152170624Y-16127000D01*
X151027000Y-16127000D01*
X150773000Y-16127000D01*
X149629376Y-16127000D01*
X149508091Y-16349040D01*
X149135379Y-16349040D01*
X149135000Y-16285750D01*
X148976250Y-16127000D01*
X147827000Y-16127000D01*
X147573000Y-16127000D01*
X146423750Y-16127000D01*
X146265000Y-16285750D01*
X146261928Y-16800000D01*
X143353440Y-16800000D01*
X143329853Y-16681426D01*
X143221680Y-16420273D01*
X143064637Y-16185241D01*
X142864759Y-15985363D01*
X142629727Y-15828320D01*
X142368574Y-15720147D01*
X142091335Y-15665000D01*
X141808665Y-15665000D01*
X141531426Y-15720147D01*
X141270273Y-15828320D01*
X141035241Y-15985363D01*
X140835363Y-16185241D01*
X140678320Y-16420273D01*
X140570147Y-16681426D01*
X140515000Y-16958665D01*
X140515000Y-17241335D01*
X140570147Y-17518574D01*
X140678320Y-17779727D01*
X140835363Y-18014759D01*
X141035241Y-18214637D01*
X141270273Y-18371680D01*
X141424558Y-18435587D01*
X141371335Y-18425000D01*
X141088665Y-18425000D01*
X140811426Y-18480147D01*
X140550273Y-18588320D01*
X140315241Y-18745363D01*
X140115363Y-18945241D01*
X139958320Y-19180273D01*
X139850147Y-19441426D01*
X139795000Y-19718665D01*
X123890603Y-19718665D01*
X124060535Y-19605120D01*
X124255120Y-19410535D01*
X124408005Y-19181727D01*
X124513314Y-18927490D01*
X124567000Y-18657592D01*
X124567000Y-18382408D01*
X124513314Y-18112510D01*
X124505110Y-18092702D01*
X136136903Y-18092702D01*
X136208486Y-18336671D01*
X136463996Y-18457571D01*
X136738184Y-18526300D01*
X137020512Y-18540217D01*
X137300130Y-18498787D01*
X137566292Y-18403603D01*
X137691514Y-18336671D01*
X137763097Y-18092702D01*
X136950000Y-17279605D01*
X136136903Y-18092702D01*
X124505110Y-18092702D01*
X124408005Y-17858273D01*
X124255120Y-17629465D01*
X124060535Y-17434880D01*
X124048982Y-17427161D01*
X124138665Y-17445000D01*
X124421335Y-17445000D01*
X124698574Y-17389853D01*
X124959727Y-17281680D01*
X125126102Y-17170512D01*
X135509783Y-17170512D01*
X135551213Y-17450130D01*
X135646397Y-17716292D01*
X135713329Y-17841514D01*
X135957298Y-17913097D01*
X136770395Y-17100000D01*
X137129605Y-17100000D01*
X137942702Y-17913097D01*
X138186671Y-17841514D01*
X138307571Y-17586004D01*
X138376300Y-17311816D01*
X138390217Y-17029488D01*
X138348787Y-16749870D01*
X138253603Y-16483708D01*
X138186671Y-16358486D01*
X137942702Y-16286903D01*
X137129605Y-17100000D01*
X136770395Y-17100000D01*
X135957298Y-16286903D01*
X135713329Y-16358486D01*
X135592429Y-16613996D01*
X135523700Y-16888184D01*
X135509783Y-17170512D01*
X125126102Y-17170512D01*
X125194759Y-17124637D01*
X125394637Y-16924759D01*
X125551680Y-16689727D01*
X125659853Y-16428574D01*
X125715000Y-16151335D01*
X125715000Y-16107298D01*
X136136903Y-16107298D01*
X136950000Y-16920395D01*
X137763097Y-16107298D01*
X137691514Y-15863329D01*
X137436004Y-15742429D01*
X137161816Y-15673700D01*
X136879488Y-15659783D01*
X136599870Y-15701213D01*
X136333708Y-15796397D01*
X136208486Y-15863329D01*
X136136903Y-16107298D01*
X125715000Y-16107298D01*
X125715000Y-15868665D01*
X125659853Y-15591426D01*
X125551680Y-15330273D01*
X125394637Y-15095241D01*
X125194759Y-14895363D01*
X124959727Y-14738320D01*
X124770646Y-14660000D01*
X146563210Y-14660000D01*
X146545506Y-14669463D01*
X146448815Y-14748815D01*
X146369463Y-14845506D01*
X146310498Y-14955820D01*
X146274188Y-15075518D01*
X146261928Y-15200000D01*
X146265000Y-15714250D01*
X146423750Y-15873000D01*
X147573000Y-15873000D01*
X147573000Y-15853000D01*
X147827000Y-15853000D01*
X147827000Y-15873000D01*
X148976250Y-15873000D01*
X149135000Y-15714250D01*
X149138072Y-15200000D01*
X149125812Y-15075518D01*
X149089502Y-14955820D01*
X149030537Y-14845506D01*
X148951185Y-14748815D01*
X148854494Y-14669463D01*
X148836790Y-14660000D01*
X150393119Y-14660000D01*
X150162580Y-14768963D01*
X149936586Y-14936481D01*
X149747615Y-15144869D01*
X149602930Y-15386119D01*
X149508091Y-15650960D01*
X149629376Y-15873000D01*
X150773000Y-15873000D01*
X150773000Y-15853000D01*
X151027000Y-15853000D01*
X151027000Y-15873000D01*
X152170624Y-15873000D01*
X152291909Y-15650960D01*
X152197070Y-15386119D01*
X152052385Y-15144869D01*
X151863414Y-14936481D01*
X151637420Y-14768963D01*
X151406881Y-14660000D01*
X167340001Y-14660000D01*
X167340000Y-39226546D01*
X167133881Y-39102930D01*
X166869040Y-39008091D01*
X166647000Y-39129376D01*
X166647000Y-40273000D01*
X166667000Y-40273000D01*
X166667000Y-40527000D01*
X166647000Y-40527000D01*
X166647000Y-41670624D01*
X166869040Y-41791909D01*
X167133881Y-41697070D01*
X167340000Y-41573454D01*
X167340000Y-48340000D01*
X143160126Y-48340000D01*
X143457373Y-48181118D01*
X143733543Y-47763148D01*
X141710000Y-45739605D01*
X139686457Y-47763148D01*
X139962627Y-48181118D01*
X140260632Y-48340000D01*
X135040126Y-48340000D01*
X135337373Y-48181118D01*
X135613543Y-47763148D01*
X133590000Y-45739605D01*
X131566457Y-47763148D01*
X131842627Y-48181118D01*
X132140632Y-48340000D01*
X71131180Y-48340000D01*
X71153414Y-48323519D01*
X71342385Y-48115131D01*
X71487070Y-47873881D01*
X71581909Y-47609040D01*
X71460624Y-47387000D01*
X70317000Y-47387000D01*
X70317000Y-47407000D01*
X70063000Y-47407000D01*
X70063000Y-47387000D01*
X68919376Y-47387000D01*
X68798091Y-47609040D01*
X68892930Y-47873881D01*
X69037615Y-48115131D01*
X69226586Y-48323519D01*
X69248820Y-48340000D01*
X68660000Y-48340000D01*
X68660000Y-46910960D01*
X68798091Y-46910960D01*
X68919376Y-47133000D01*
X70063000Y-47133000D01*
X70063000Y-45990085D01*
X70317000Y-45990085D01*
X70317000Y-47133000D01*
X71460624Y-47133000D01*
X71581909Y-46910960D01*
X71487070Y-46646119D01*
X71342385Y-46404869D01*
X71153414Y-46196481D01*
X70927420Y-46028963D01*
X70673087Y-45908754D01*
X70539039Y-45868096D01*
X70317000Y-45990085D01*
X70063000Y-45990085D01*
X69840961Y-45868096D01*
X69706913Y-45908754D01*
X69452580Y-46028963D01*
X69226586Y-46196481D01*
X69037615Y-46404869D01*
X68892930Y-46646119D01*
X68798091Y-46910960D01*
X68660000Y-46910960D01*
X68660000Y-45848665D01*
X72275000Y-45848665D01*
X72275000Y-46131335D01*
X72330147Y-46408574D01*
X72438320Y-46669727D01*
X72595363Y-46904759D01*
X72795241Y-47104637D01*
X73030273Y-47261680D01*
X73291426Y-47369853D01*
X73568665Y-47425000D01*
X73851335Y-47425000D01*
X74128574Y-47369853D01*
X74389727Y-47261680D01*
X74624759Y-47104637D01*
X74824637Y-46904759D01*
X74981680Y-46669727D01*
X75089853Y-46408574D01*
X75145000Y-46131335D01*
X75145000Y-45848665D01*
X75525000Y-45848665D01*
X75525000Y-46131335D01*
X75580147Y-46408574D01*
X75688320Y-46669727D01*
X75845363Y-46904759D01*
X76045241Y-47104637D01*
X76280273Y-47261680D01*
X76541426Y-47369853D01*
X76818665Y-47425000D01*
X77101335Y-47425000D01*
X77378574Y-47369853D01*
X77639727Y-47261680D01*
X77874759Y-47104637D01*
X78074637Y-46904759D01*
X78231680Y-46669727D01*
X78339853Y-46408574D01*
X78395000Y-46131335D01*
X78395000Y-45848665D01*
X78525000Y-45848665D01*
X78525000Y-46131335D01*
X78580147Y-46408574D01*
X78688320Y-46669727D01*
X78845363Y-46904759D01*
X79045241Y-47104637D01*
X79280273Y-47261680D01*
X79541426Y-47369853D01*
X79818665Y-47425000D01*
X80101335Y-47425000D01*
X80378574Y-47369853D01*
X80639727Y-47261680D01*
X80874759Y-47104637D01*
X81074637Y-46904759D01*
X81231680Y-46669727D01*
X81339853Y-46408574D01*
X81395000Y-46131335D01*
X81395000Y-45848665D01*
X81393011Y-45838665D01*
X92475000Y-45838665D01*
X92475000Y-46121335D01*
X92530147Y-46398574D01*
X92638320Y-46659727D01*
X92795363Y-46894759D01*
X92995241Y-47094637D01*
X93230273Y-47251680D01*
X93491426Y-47359853D01*
X93768665Y-47415000D01*
X94051335Y-47415000D01*
X94328574Y-47359853D01*
X94589727Y-47251680D01*
X94824759Y-47094637D01*
X95024637Y-46894759D01*
X95181680Y-46659727D01*
X95289853Y-46398574D01*
X95345000Y-46121335D01*
X95345000Y-45838665D01*
X95475000Y-45838665D01*
X95475000Y-46121335D01*
X95530147Y-46398574D01*
X95638320Y-46659727D01*
X95795363Y-46894759D01*
X95995241Y-47094637D01*
X96230273Y-47251680D01*
X96491426Y-47359853D01*
X96768665Y-47415000D01*
X97051335Y-47415000D01*
X97328574Y-47359853D01*
X97589727Y-47251680D01*
X97824759Y-47094637D01*
X98024637Y-46894759D01*
X98181680Y-46659727D01*
X98289853Y-46398574D01*
X98345000Y-46121335D01*
X98345000Y-45838665D01*
X98525000Y-45838665D01*
X98525000Y-46121335D01*
X98580147Y-46398574D01*
X98688320Y-46659727D01*
X98845363Y-46894759D01*
X99045241Y-47094637D01*
X99280273Y-47251680D01*
X99541426Y-47359853D01*
X99818665Y-47415000D01*
X100101335Y-47415000D01*
X100378574Y-47359853D01*
X100639727Y-47251680D01*
X100874759Y-47094637D01*
X100996694Y-46972702D01*
X102196903Y-46972702D01*
X102268486Y-47216671D01*
X102523996Y-47337571D01*
X102798184Y-47406300D01*
X103080512Y-47420217D01*
X103360130Y-47378787D01*
X103626292Y-47283603D01*
X103751514Y-47216671D01*
X103823097Y-46972702D01*
X103010000Y-46159605D01*
X102196903Y-46972702D01*
X100996694Y-46972702D01*
X101074637Y-46894759D01*
X101231680Y-46659727D01*
X101339853Y-46398574D01*
X101395000Y-46121335D01*
X101395000Y-46050512D01*
X101569783Y-46050512D01*
X101611213Y-46330130D01*
X101706397Y-46596292D01*
X101773329Y-46721514D01*
X102017298Y-46793097D01*
X102830395Y-45980000D01*
X103189605Y-45980000D01*
X104002702Y-46793097D01*
X104246671Y-46721514D01*
X104367571Y-46466004D01*
X104436300Y-46191816D01*
X104450217Y-45909488D01*
X104408787Y-45629870D01*
X104384991Y-45563328D01*
X130439832Y-45563328D01*
X130501010Y-46177831D01*
X130680897Y-46768592D01*
X130968882Y-47307373D01*
X131386852Y-47583543D01*
X133410395Y-45560000D01*
X131386852Y-43536457D01*
X130968882Y-43812627D01*
X130678351Y-44357557D01*
X130499713Y-44948696D01*
X130439832Y-45563328D01*
X104384991Y-45563328D01*
X104313603Y-45363708D01*
X104246671Y-45238486D01*
X104002702Y-45166903D01*
X103189605Y-45980000D01*
X102830395Y-45980000D01*
X102017298Y-45166903D01*
X101773329Y-45238486D01*
X101652429Y-45493996D01*
X101583700Y-45768184D01*
X101569783Y-46050512D01*
X101395000Y-46050512D01*
X101395000Y-45838665D01*
X101339853Y-45561426D01*
X101231680Y-45300273D01*
X101074637Y-45065241D01*
X100996694Y-44987298D01*
X102196903Y-44987298D01*
X103010000Y-45800395D01*
X103823097Y-44987298D01*
X103751514Y-44743329D01*
X103496004Y-44622429D01*
X103221816Y-44553700D01*
X102939488Y-44539783D01*
X102659870Y-44581213D01*
X102393708Y-44676397D01*
X102268486Y-44743329D01*
X102196903Y-44987298D01*
X100996694Y-44987298D01*
X100874759Y-44865363D01*
X100639727Y-44708320D01*
X100378574Y-44600147D01*
X100101335Y-44545000D01*
X99818665Y-44545000D01*
X99541426Y-44600147D01*
X99280273Y-44708320D01*
X99045241Y-44865363D01*
X98845363Y-45065241D01*
X98688320Y-45300273D01*
X98580147Y-45561426D01*
X98525000Y-45838665D01*
X98345000Y-45838665D01*
X98289853Y-45561426D01*
X98181680Y-45300273D01*
X98024637Y-45065241D01*
X97824759Y-44865363D01*
X97589727Y-44708320D01*
X97328574Y-44600147D01*
X97051335Y-44545000D01*
X96768665Y-44545000D01*
X96491426Y-44600147D01*
X96230273Y-44708320D01*
X95995241Y-44865363D01*
X95795363Y-45065241D01*
X95638320Y-45300273D01*
X95530147Y-45561426D01*
X95475000Y-45838665D01*
X95345000Y-45838665D01*
X95289853Y-45561426D01*
X95181680Y-45300273D01*
X95024637Y-45065241D01*
X94824759Y-44865363D01*
X94589727Y-44708320D01*
X94328574Y-44600147D01*
X94051335Y-44545000D01*
X93768665Y-44545000D01*
X93491426Y-44600147D01*
X93230273Y-44708320D01*
X92995241Y-44865363D01*
X92795363Y-45065241D01*
X92638320Y-45300273D01*
X92530147Y-45561426D01*
X92475000Y-45838665D01*
X81393011Y-45838665D01*
X81339853Y-45571426D01*
X81231680Y-45310273D01*
X81074637Y-45075241D01*
X80874759Y-44875363D01*
X80639727Y-44718320D01*
X80378574Y-44610147D01*
X80101335Y-44555000D01*
X79818665Y-44555000D01*
X79541426Y-44610147D01*
X79280273Y-44718320D01*
X79045241Y-44875363D01*
X78845363Y-45075241D01*
X78688320Y-45310273D01*
X78580147Y-45571426D01*
X78525000Y-45848665D01*
X78395000Y-45848665D01*
X78339853Y-45571426D01*
X78231680Y-45310273D01*
X78074637Y-45075241D01*
X77874759Y-44875363D01*
X77639727Y-44718320D01*
X77378574Y-44610147D01*
X77101335Y-44555000D01*
X76818665Y-44555000D01*
X76541426Y-44610147D01*
X76280273Y-44718320D01*
X76045241Y-44875363D01*
X75845363Y-45075241D01*
X75688320Y-45310273D01*
X75580147Y-45571426D01*
X75525000Y-45848665D01*
X75145000Y-45848665D01*
X75089853Y-45571426D01*
X74981680Y-45310273D01*
X74824637Y-45075241D01*
X74624759Y-44875363D01*
X74389727Y-44718320D01*
X74128574Y-44610147D01*
X73851335Y-44555000D01*
X73568665Y-44555000D01*
X73291426Y-44610147D01*
X73030273Y-44718320D01*
X72795241Y-44875363D01*
X72595363Y-45075241D01*
X72438320Y-45310273D01*
X72330147Y-45571426D01*
X72275000Y-45848665D01*
X68660000Y-45848665D01*
X68660000Y-43644514D01*
X82812500Y-43644514D01*
X82812500Y-43895485D01*
X82835470Y-44128703D01*
X82926245Y-44427948D01*
X83073655Y-44703734D01*
X83272037Y-44945463D01*
X83513765Y-45143845D01*
X83789551Y-45291255D01*
X84088796Y-45382030D01*
X84400000Y-45412681D01*
X84711203Y-45382030D01*
X85010448Y-45291255D01*
X85286234Y-45143845D01*
X85527963Y-44945463D01*
X85675163Y-44766101D01*
X85830563Y-44951315D01*
X86073077Y-45145969D01*
X86348906Y-45289571D01*
X86567020Y-45360563D01*
X86813000Y-45240594D01*
X86813000Y-43897000D01*
X86793000Y-43897000D01*
X86793000Y-43643000D01*
X86813000Y-43643000D01*
X86813000Y-42299406D01*
X87067000Y-42299406D01*
X87067000Y-43643000D01*
X87087000Y-43643000D01*
X87087000Y-43897000D01*
X87067000Y-43897000D01*
X87067000Y-45240594D01*
X87312980Y-45360563D01*
X87531094Y-45289571D01*
X87806923Y-45145969D01*
X87947941Y-45032781D01*
X87996963Y-45124494D01*
X88076315Y-45221185D01*
X88173006Y-45300537D01*
X88283320Y-45359502D01*
X88403018Y-45395812D01*
X88527500Y-45408072D01*
X90432500Y-45408072D01*
X90556982Y-45395812D01*
X90676680Y-45359502D01*
X90786994Y-45300537D01*
X90883685Y-45221185D01*
X90963037Y-45124494D01*
X91022002Y-45014180D01*
X91058312Y-44894482D01*
X91070572Y-44770000D01*
X91070572Y-42770000D01*
X91058312Y-42645518D01*
X91022002Y-42525820D01*
X90963037Y-42415506D01*
X90883685Y-42318815D01*
X90786994Y-42239463D01*
X90676680Y-42180498D01*
X90556982Y-42144188D01*
X90432500Y-42131928D01*
X88527500Y-42131928D01*
X88403018Y-42144188D01*
X88283320Y-42180498D01*
X88173006Y-42239463D01*
X88076315Y-42318815D01*
X87996963Y-42415506D01*
X87947941Y-42507219D01*
X87806923Y-42394031D01*
X87531094Y-42250429D01*
X87312980Y-42179437D01*
X87067000Y-42299406D01*
X86813000Y-42299406D01*
X86567020Y-42179437D01*
X86348906Y-42250429D01*
X86073077Y-42394031D01*
X85830563Y-42588685D01*
X85675162Y-42773900D01*
X85527963Y-42594537D01*
X85286235Y-42396155D01*
X85010449Y-42248745D01*
X84711204Y-42157970D01*
X84400000Y-42127319D01*
X84088797Y-42157970D01*
X83789552Y-42248745D01*
X83513766Y-42396155D01*
X83272037Y-42594537D01*
X83073655Y-42836265D01*
X82926245Y-43112051D01*
X82835470Y-43411296D01*
X82812500Y-43644514D01*
X68660000Y-43644514D01*
X68660000Y-41982702D01*
X72896903Y-41982702D01*
X72968486Y-42226671D01*
X73223996Y-42347571D01*
X73498184Y-42416300D01*
X73780512Y-42430217D01*
X74060130Y-42388787D01*
X74326292Y-42293603D01*
X74451514Y-42226671D01*
X74523097Y-41982702D01*
X76146903Y-41982702D01*
X76218486Y-42226671D01*
X76473996Y-42347571D01*
X76748184Y-42416300D01*
X77030512Y-42430217D01*
X77310130Y-42388787D01*
X77576292Y-42293603D01*
X77701514Y-42226671D01*
X77773097Y-41982702D01*
X79146903Y-41982702D01*
X79218486Y-42226671D01*
X79473996Y-42347571D01*
X79748184Y-42416300D01*
X80030512Y-42430217D01*
X80310130Y-42388787D01*
X80576292Y-42293603D01*
X80701514Y-42226671D01*
X80773097Y-41982702D01*
X80763097Y-41972702D01*
X93096903Y-41972702D01*
X93168486Y-42216671D01*
X93423996Y-42337571D01*
X93698184Y-42406300D01*
X93980512Y-42420217D01*
X94260130Y-42378787D01*
X94526292Y-42283603D01*
X94651514Y-42216671D01*
X94723097Y-41972702D01*
X96096903Y-41972702D01*
X96168486Y-42216671D01*
X96423996Y-42337571D01*
X96698184Y-42406300D01*
X96980512Y-42420217D01*
X97260130Y-42378787D01*
X97526292Y-42283603D01*
X97651514Y-42216671D01*
X97723097Y-41972702D01*
X99146903Y-41972702D01*
X99218486Y-42216671D01*
X99473996Y-42337571D01*
X99748184Y-42406300D01*
X100030512Y-42420217D01*
X100310130Y-42378787D01*
X100576292Y-42283603D01*
X100701514Y-42216671D01*
X100773097Y-41972702D01*
X99960000Y-41159605D01*
X99146903Y-41972702D01*
X97723097Y-41972702D01*
X96910000Y-41159605D01*
X96096903Y-41972702D01*
X94723097Y-41972702D01*
X93910000Y-41159605D01*
X93096903Y-41972702D01*
X80763097Y-41972702D01*
X79960000Y-41169605D01*
X79146903Y-41982702D01*
X77773097Y-41982702D01*
X76960000Y-41169605D01*
X76146903Y-41982702D01*
X74523097Y-41982702D01*
X73710000Y-41169605D01*
X72896903Y-41982702D01*
X68660000Y-41982702D01*
X68660000Y-38840000D01*
X68751928Y-38840000D01*
X68751928Y-40440000D01*
X68764188Y-40564482D01*
X68800498Y-40684180D01*
X68859463Y-40794494D01*
X68938815Y-40891185D01*
X69035506Y-40970537D01*
X69145820Y-41029502D01*
X69265518Y-41065812D01*
X69390000Y-41078072D01*
X70990000Y-41078072D01*
X71114482Y-41065812D01*
X71131953Y-41060512D01*
X72269783Y-41060512D01*
X72311213Y-41340130D01*
X72406397Y-41606292D01*
X72473329Y-41731514D01*
X72717298Y-41803097D01*
X73530395Y-40990000D01*
X73889605Y-40990000D01*
X74702702Y-41803097D01*
X74946671Y-41731514D01*
X75067571Y-41476004D01*
X75136300Y-41201816D01*
X75143265Y-41060512D01*
X75519783Y-41060512D01*
X75561213Y-41340130D01*
X75656397Y-41606292D01*
X75723329Y-41731514D01*
X75967298Y-41803097D01*
X76780395Y-40990000D01*
X77139605Y-40990000D01*
X77952702Y-41803097D01*
X78196671Y-41731514D01*
X78317571Y-41476004D01*
X78386300Y-41201816D01*
X78400217Y-40919488D01*
X78358787Y-40639870D01*
X78263603Y-40373708D01*
X78196671Y-40248486D01*
X77952702Y-40176903D01*
X77139605Y-40990000D01*
X76780395Y-40990000D01*
X75967298Y-40176903D01*
X75723329Y-40248486D01*
X75602429Y-40503996D01*
X75533700Y-40778184D01*
X75519783Y-41060512D01*
X75143265Y-41060512D01*
X75150217Y-40919488D01*
X75108787Y-40639870D01*
X75013603Y-40373708D01*
X74946671Y-40248486D01*
X74702702Y-40176903D01*
X73889605Y-40990000D01*
X73530395Y-40990000D01*
X72717298Y-40176903D01*
X72473329Y-40248486D01*
X72352429Y-40503996D01*
X72283700Y-40778184D01*
X72269783Y-41060512D01*
X71131953Y-41060512D01*
X71234180Y-41029502D01*
X71344494Y-40970537D01*
X71441185Y-40891185D01*
X71520537Y-40794494D01*
X71579502Y-40684180D01*
X71615812Y-40564482D01*
X71628072Y-40440000D01*
X71628072Y-39997298D01*
X72896903Y-39997298D01*
X73710000Y-40810395D01*
X74523097Y-39997298D01*
X76146903Y-39997298D01*
X76960000Y-40810395D01*
X77773097Y-39997298D01*
X77701514Y-39753329D01*
X77446004Y-39632429D01*
X77397206Y-39620197D01*
X78059408Y-39620197D01*
X78118686Y-39853812D01*
X78356875Y-39964559D01*
X78612093Y-40026711D01*
X78873808Y-40037845D01*
X78851023Y-40060630D01*
X78967296Y-40176903D01*
X78723329Y-40248486D01*
X78602429Y-40503996D01*
X78533700Y-40778184D01*
X78519783Y-41060512D01*
X78561213Y-41340130D01*
X78656397Y-41606292D01*
X78723329Y-41731514D01*
X78967298Y-41803097D01*
X79780395Y-40990000D01*
X80139605Y-40990000D01*
X80952702Y-41803097D01*
X81196671Y-41731514D01*
X81317571Y-41476004D01*
X81386300Y-41201816D01*
X81393758Y-41050512D01*
X92469783Y-41050512D01*
X92511213Y-41330130D01*
X92606397Y-41596292D01*
X92673329Y-41721514D01*
X92917298Y-41793097D01*
X93730395Y-40980000D01*
X94089605Y-40980000D01*
X94902702Y-41793097D01*
X95146671Y-41721514D01*
X95267571Y-41466004D01*
X95336300Y-41191816D01*
X95343265Y-41050512D01*
X95469783Y-41050512D01*
X95511213Y-41330130D01*
X95606397Y-41596292D01*
X95673329Y-41721514D01*
X95917298Y-41793097D01*
X96730395Y-40980000D01*
X97089605Y-40980000D01*
X97902702Y-41793097D01*
X98146671Y-41721514D01*
X98267571Y-41466004D01*
X98336300Y-41191816D01*
X98343265Y-41050512D01*
X98519783Y-41050512D01*
X98561213Y-41330130D01*
X98656397Y-41596292D01*
X98723329Y-41721514D01*
X98967298Y-41793097D01*
X99780395Y-40980000D01*
X100139605Y-40980000D01*
X100952702Y-41793097D01*
X101196671Y-41721514D01*
X101317571Y-41466004D01*
X101386300Y-41191816D01*
X101400217Y-40909488D01*
X101389724Y-40838665D01*
X101575000Y-40838665D01*
X101575000Y-41121335D01*
X101630147Y-41398574D01*
X101738320Y-41659727D01*
X101895363Y-41894759D01*
X102095241Y-42094637D01*
X102330273Y-42251680D01*
X102591426Y-42359853D01*
X102868665Y-42415000D01*
X103151335Y-42415000D01*
X103428574Y-42359853D01*
X103689727Y-42251680D01*
X103924759Y-42094637D01*
X104124637Y-41894759D01*
X104281680Y-41659727D01*
X104389853Y-41398574D01*
X104445000Y-41121335D01*
X104445000Y-40838665D01*
X104389853Y-40561426D01*
X104281680Y-40300273D01*
X104124637Y-40065241D01*
X103924759Y-39865363D01*
X103689727Y-39708320D01*
X103532388Y-39643148D01*
X131566457Y-39643148D01*
X131842627Y-40061118D01*
X132387557Y-40351649D01*
X132978696Y-40530287D01*
X133593328Y-40590168D01*
X134207831Y-40528990D01*
X134724011Y-40371813D01*
X134635476Y-40585554D01*
X134515000Y-41191229D01*
X134515000Y-41808771D01*
X134635476Y-42414446D01*
X134723766Y-42627597D01*
X134201304Y-42469713D01*
X133586672Y-42409832D01*
X132972169Y-42471010D01*
X132381408Y-42650897D01*
X131842627Y-42938882D01*
X131566457Y-43356852D01*
X133590000Y-45380395D01*
X133604143Y-45366253D01*
X133783748Y-45545858D01*
X133769605Y-45560000D01*
X135793148Y-47583543D01*
X136211118Y-47307373D01*
X136501649Y-46762443D01*
X136680287Y-46171304D01*
X136740168Y-45556672D01*
X136678990Y-44942169D01*
X136521813Y-44425989D01*
X136735554Y-44514524D01*
X137341229Y-44635000D01*
X137958771Y-44635000D01*
X138564446Y-44514524D01*
X138777597Y-44426234D01*
X138619713Y-44948696D01*
X138559832Y-45563328D01*
X138621010Y-46177831D01*
X138800897Y-46768592D01*
X139088882Y-47307373D01*
X139506852Y-47583543D01*
X141530395Y-45560000D01*
X141889605Y-45560000D01*
X143913148Y-47583543D01*
X144331118Y-47307373D01*
X144621649Y-46762443D01*
X144800287Y-46171304D01*
X144860168Y-45556672D01*
X144798990Y-44942169D01*
X144619103Y-44351408D01*
X144331118Y-43812627D01*
X143913148Y-43536457D01*
X141889605Y-45560000D01*
X141530395Y-45560000D01*
X141516253Y-45545858D01*
X141695858Y-45366253D01*
X141710000Y-45380395D01*
X143733543Y-43356852D01*
X143457373Y-42938882D01*
X142912443Y-42648351D01*
X142321304Y-42469713D01*
X141706672Y-42409832D01*
X141092169Y-42471010D01*
X140575989Y-42628187D01*
X140664524Y-42414446D01*
X140785000Y-41808771D01*
X140785000Y-41191229D01*
X140664524Y-40585554D01*
X140576234Y-40372403D01*
X141098696Y-40530287D01*
X141713328Y-40590168D01*
X142327831Y-40528990D01*
X142918592Y-40349103D01*
X143457373Y-40061118D01*
X143733543Y-39643148D01*
X141710000Y-37619605D01*
X141695858Y-37633748D01*
X141516253Y-37454143D01*
X141530395Y-37440000D01*
X141889605Y-37440000D01*
X143913148Y-39463543D01*
X144331118Y-39187373D01*
X144621649Y-38642443D01*
X144622236Y-38640500D01*
X152163428Y-38640500D01*
X152175688Y-38764982D01*
X152211998Y-38884680D01*
X152270963Y-38994994D01*
X152350315Y-39091685D01*
X152447006Y-39171037D01*
X152557320Y-39230002D01*
X152677018Y-39266312D01*
X152801500Y-39278572D01*
X153214250Y-39275500D01*
X153373000Y-39116750D01*
X153373000Y-38069000D01*
X153627000Y-38069000D01*
X153627000Y-39116750D01*
X153785750Y-39275500D01*
X154198500Y-39278572D01*
X154322982Y-39266312D01*
X154442680Y-39230002D01*
X154552994Y-39171037D01*
X154649685Y-39091685D01*
X154729037Y-38994994D01*
X154788002Y-38884680D01*
X154824312Y-38764982D01*
X154836572Y-38640500D01*
X154833500Y-38227750D01*
X154674750Y-38069000D01*
X153627000Y-38069000D01*
X153373000Y-38069000D01*
X152325250Y-38069000D01*
X152166500Y-38227750D01*
X152163428Y-38640500D01*
X144622236Y-38640500D01*
X144800287Y-38051304D01*
X144860168Y-37436672D01*
X144840937Y-37243500D01*
X152163428Y-37243500D01*
X152166500Y-37656250D01*
X152325250Y-37815000D01*
X153373000Y-37815000D01*
X153373000Y-36767250D01*
X153627000Y-36767250D01*
X153627000Y-37815000D01*
X154674750Y-37815000D01*
X154833500Y-37656250D01*
X154836572Y-37243500D01*
X156163428Y-37243500D01*
X156163428Y-38640500D01*
X156175688Y-38764982D01*
X156211998Y-38884680D01*
X156270963Y-38994994D01*
X156350315Y-39091685D01*
X156447006Y-39171037D01*
X156557320Y-39230002D01*
X156677018Y-39266312D01*
X156801500Y-39278572D01*
X157551789Y-39278572D01*
X157510498Y-39355820D01*
X157474188Y-39475518D01*
X157461928Y-39600000D01*
X157461928Y-41200000D01*
X157474188Y-41324482D01*
X157510498Y-41444180D01*
X157569463Y-41554494D01*
X157648815Y-41651185D01*
X157745506Y-41730537D01*
X157855820Y-41789502D01*
X157975518Y-41825812D01*
X158100000Y-41838072D01*
X159700000Y-41838072D01*
X159824482Y-41825812D01*
X159944180Y-41789502D01*
X160054494Y-41730537D01*
X160151185Y-41651185D01*
X160230537Y-41554494D01*
X160289502Y-41444180D01*
X160325812Y-41324482D01*
X160338072Y-41200000D01*
X160338072Y-40749039D01*
X165128096Y-40749039D01*
X165168754Y-40883087D01*
X165288963Y-41137420D01*
X165456481Y-41363414D01*
X165664869Y-41552385D01*
X165906119Y-41697070D01*
X166170960Y-41791909D01*
X166393000Y-41670624D01*
X166393000Y-40527000D01*
X165250085Y-40527000D01*
X165128096Y-40749039D01*
X160338072Y-40749039D01*
X160338072Y-40050961D01*
X165128096Y-40050961D01*
X165250085Y-40273000D01*
X166393000Y-40273000D01*
X166393000Y-39129376D01*
X166170960Y-39008091D01*
X165906119Y-39102930D01*
X165664869Y-39247615D01*
X165456481Y-39436586D01*
X165288963Y-39662580D01*
X165168754Y-39916913D01*
X165128096Y-40050961D01*
X160338072Y-40050961D01*
X160338072Y-39600000D01*
X160325812Y-39475518D01*
X160289502Y-39355820D01*
X160230537Y-39245506D01*
X160151185Y-39148815D01*
X160054494Y-39069463D01*
X159944180Y-39010498D01*
X159824482Y-38974188D01*
X159700000Y-38961928D01*
X158746711Y-38961928D01*
X158788002Y-38884680D01*
X158824312Y-38764982D01*
X158836572Y-38640500D01*
X158836572Y-37243500D01*
X158824312Y-37119018D01*
X158788002Y-36999320D01*
X158755743Y-36938967D01*
X158985000Y-36938967D01*
X158985000Y-37261033D01*
X159047832Y-37576912D01*
X159171082Y-37874463D01*
X159350013Y-38142252D01*
X159577748Y-38369987D01*
X159845537Y-38548918D01*
X160143088Y-38672168D01*
X160458967Y-38735000D01*
X160781033Y-38735000D01*
X161096912Y-38672168D01*
X161394463Y-38548918D01*
X161662252Y-38369987D01*
X161889987Y-38142252D01*
X161918218Y-38100000D01*
X164061928Y-38100000D01*
X164074188Y-38224482D01*
X164110498Y-38344180D01*
X164169463Y-38454494D01*
X164248815Y-38551185D01*
X164345506Y-38630537D01*
X164455820Y-38689502D01*
X164575518Y-38725812D01*
X164700000Y-38738072D01*
X165414250Y-38735000D01*
X165573000Y-38576250D01*
X165573000Y-37227000D01*
X165827000Y-37227000D01*
X165827000Y-38576250D01*
X165985750Y-38735000D01*
X166700000Y-38738072D01*
X166824482Y-38725812D01*
X166944180Y-38689502D01*
X167054494Y-38630537D01*
X167151185Y-38551185D01*
X167230537Y-38454494D01*
X167289502Y-38344180D01*
X167325812Y-38224482D01*
X167338072Y-38100000D01*
X167335000Y-37385750D01*
X167176250Y-37227000D01*
X165827000Y-37227000D01*
X165573000Y-37227000D01*
X164223750Y-37227000D01*
X164065000Y-37385750D01*
X164061928Y-38100000D01*
X161918218Y-38100000D01*
X162068918Y-37874463D01*
X162192168Y-37576912D01*
X162255000Y-37261033D01*
X162255000Y-36938967D01*
X162192168Y-36623088D01*
X162068918Y-36325537D01*
X161918219Y-36100000D01*
X164061928Y-36100000D01*
X164065000Y-36814250D01*
X164223750Y-36973000D01*
X165573000Y-36973000D01*
X165573000Y-36953000D01*
X165827000Y-36953000D01*
X165827000Y-36973000D01*
X167176250Y-36973000D01*
X167335000Y-36814250D01*
X167338072Y-36100000D01*
X167325812Y-35975518D01*
X167289502Y-35855820D01*
X167230537Y-35745506D01*
X167151185Y-35648815D01*
X167054494Y-35569463D01*
X167008370Y-35544809D01*
X167148918Y-35334463D01*
X167272168Y-35036912D01*
X167335000Y-34721033D01*
X167335000Y-34398967D01*
X167272168Y-34083088D01*
X167148918Y-33785537D01*
X166969987Y-33517748D01*
X166742252Y-33290013D01*
X166474463Y-33111082D01*
X166176912Y-32987832D01*
X165861033Y-32925000D01*
X165538967Y-32925000D01*
X165223088Y-32987832D01*
X164925537Y-33111082D01*
X164657748Y-33290013D01*
X164430013Y-33517748D01*
X164251082Y-33785537D01*
X164127832Y-34083088D01*
X164065000Y-34398967D01*
X164065000Y-34721033D01*
X164127832Y-35036912D01*
X164251082Y-35334463D01*
X164391630Y-35544809D01*
X164345506Y-35569463D01*
X164248815Y-35648815D01*
X164169463Y-35745506D01*
X164110498Y-35855820D01*
X164074188Y-35975518D01*
X164061928Y-36100000D01*
X161918219Y-36100000D01*
X161889987Y-36057748D01*
X161662252Y-35830013D01*
X161553400Y-35757280D01*
X161575808Y-35695413D01*
X160620000Y-34739605D01*
X159664192Y-35695413D01*
X159686600Y-35757280D01*
X159577748Y-35830013D01*
X159350013Y-36057748D01*
X159171082Y-36325537D01*
X159047832Y-36623088D01*
X158985000Y-36938967D01*
X158755743Y-36938967D01*
X158729037Y-36889006D01*
X158649685Y-36792315D01*
X158552994Y-36712963D01*
X158442680Y-36653998D01*
X158322982Y-36617688D01*
X158198500Y-36605428D01*
X156801500Y-36605428D01*
X156677018Y-36617688D01*
X156557320Y-36653998D01*
X156447006Y-36712963D01*
X156350315Y-36792315D01*
X156270963Y-36889006D01*
X156211998Y-36999320D01*
X156175688Y-37119018D01*
X156163428Y-37243500D01*
X154836572Y-37243500D01*
X154824312Y-37119018D01*
X154788002Y-36999320D01*
X154729037Y-36889006D01*
X154649685Y-36792315D01*
X154552994Y-36712963D01*
X154442680Y-36653998D01*
X154322982Y-36617688D01*
X154198500Y-36605428D01*
X153785750Y-36608500D01*
X153627000Y-36767250D01*
X153373000Y-36767250D01*
X153214250Y-36608500D01*
X152801500Y-36605428D01*
X152677018Y-36617688D01*
X152557320Y-36653998D01*
X152447006Y-36712963D01*
X152350315Y-36792315D01*
X152270963Y-36889006D01*
X152211998Y-36999320D01*
X152175688Y-37119018D01*
X152163428Y-37243500D01*
X144840937Y-37243500D01*
X144798990Y-36822169D01*
X144619103Y-36231408D01*
X144331118Y-35692627D01*
X143913148Y-35416457D01*
X141889605Y-37440000D01*
X141530395Y-37440000D01*
X139506852Y-35416457D01*
X139088882Y-35692627D01*
X138798351Y-36237557D01*
X138619713Y-36828696D01*
X138559832Y-37443328D01*
X138621010Y-38057831D01*
X138778187Y-38574011D01*
X138564446Y-38485476D01*
X137958771Y-38365000D01*
X137341229Y-38365000D01*
X136735554Y-38485476D01*
X136522403Y-38573766D01*
X136680287Y-38051304D01*
X136740168Y-37436672D01*
X136678990Y-36822169D01*
X136499103Y-36231408D01*
X136211118Y-35692627D01*
X135793148Y-35416457D01*
X133769605Y-37440000D01*
X133783748Y-37454143D01*
X133604143Y-37633748D01*
X133590000Y-37619605D01*
X131566457Y-39643148D01*
X103532388Y-39643148D01*
X103428574Y-39600147D01*
X103151335Y-39545000D01*
X102868665Y-39545000D01*
X102591426Y-39600147D01*
X102330273Y-39708320D01*
X102095241Y-39865363D01*
X101895363Y-40065241D01*
X101738320Y-40300273D01*
X101630147Y-40561426D01*
X101575000Y-40838665D01*
X101389724Y-40838665D01*
X101358787Y-40629870D01*
X101263603Y-40363708D01*
X101196671Y-40238486D01*
X100952702Y-40166903D01*
X100139605Y-40980000D01*
X99780395Y-40980000D01*
X98967298Y-40166903D01*
X98723329Y-40238486D01*
X98602429Y-40493996D01*
X98533700Y-40768184D01*
X98519783Y-41050512D01*
X98343265Y-41050512D01*
X98350217Y-40909488D01*
X98308787Y-40629870D01*
X98213603Y-40363708D01*
X98146671Y-40238486D01*
X97902702Y-40166903D01*
X97089605Y-40980000D01*
X96730395Y-40980000D01*
X95917298Y-40166903D01*
X95673329Y-40238486D01*
X95552429Y-40493996D01*
X95483700Y-40768184D01*
X95469783Y-41050512D01*
X95343265Y-41050512D01*
X95350217Y-40909488D01*
X95308787Y-40629870D01*
X95213603Y-40363708D01*
X95146671Y-40238486D01*
X94902702Y-40166903D01*
X94089605Y-40980000D01*
X93730395Y-40980000D01*
X92917298Y-40166903D01*
X92673329Y-40238486D01*
X92552429Y-40493996D01*
X92483700Y-40768184D01*
X92469783Y-41050512D01*
X81393758Y-41050512D01*
X81400217Y-40919488D01*
X81358787Y-40639870D01*
X81263603Y-40373708D01*
X81196671Y-40248486D01*
X80952702Y-40176903D01*
X80139605Y-40990000D01*
X79780395Y-40990000D01*
X79766253Y-40975858D01*
X79945858Y-40796253D01*
X79960000Y-40810395D01*
X80773097Y-39997298D01*
X80701514Y-39753329D01*
X80446004Y-39632429D01*
X80171816Y-39563700D01*
X79889488Y-39549783D01*
X79836472Y-39557638D01*
X79836859Y-39557251D01*
X79720199Y-39440591D01*
X79953812Y-39381314D01*
X80064559Y-39143125D01*
X80126711Y-38887907D01*
X80137876Y-38625467D01*
X80136821Y-38618662D01*
X80966500Y-38618662D01*
X80966500Y-38881338D01*
X81017746Y-39138968D01*
X81118268Y-39381649D01*
X81264203Y-39600057D01*
X81449943Y-39785797D01*
X81668351Y-39931732D01*
X81911032Y-40032254D01*
X82168662Y-40083500D01*
X82431338Y-40083500D01*
X82688968Y-40032254D01*
X82797501Y-39987298D01*
X93096903Y-39987298D01*
X93910000Y-40800395D01*
X94723097Y-39987298D01*
X96096903Y-39987298D01*
X96910000Y-40800395D01*
X97723097Y-39987298D01*
X99146903Y-39987298D01*
X99960000Y-40800395D01*
X100773097Y-39987298D01*
X100701514Y-39743329D01*
X100446004Y-39622429D01*
X100171816Y-39553700D01*
X99889488Y-39539783D01*
X99609870Y-39581213D01*
X99343708Y-39676397D01*
X99218486Y-39743329D01*
X99146903Y-39987298D01*
X97723097Y-39987298D01*
X97651514Y-39743329D01*
X97396004Y-39622429D01*
X97121816Y-39553700D01*
X96839488Y-39539783D01*
X96559870Y-39581213D01*
X96293708Y-39676397D01*
X96168486Y-39743329D01*
X96096903Y-39987298D01*
X94723097Y-39987298D01*
X94651514Y-39743329D01*
X94396004Y-39622429D01*
X94121816Y-39553700D01*
X93839488Y-39539783D01*
X93559870Y-39581213D01*
X93293708Y-39676397D01*
X93168486Y-39743329D01*
X93096903Y-39987298D01*
X82797501Y-39987298D01*
X82931649Y-39931732D01*
X83150057Y-39785797D01*
X83335797Y-39600057D01*
X83481732Y-39381649D01*
X83582254Y-39138968D01*
X83633500Y-38881338D01*
X83633500Y-38618662D01*
X83582254Y-38361032D01*
X83481732Y-38118351D01*
X83335797Y-37899943D01*
X83150057Y-37714203D01*
X82931649Y-37568268D01*
X82688968Y-37467746D01*
X82431338Y-37416500D01*
X82168662Y-37416500D01*
X81911032Y-37467746D01*
X81668351Y-37568268D01*
X81449943Y-37714203D01*
X81264203Y-37899943D01*
X81118268Y-38118351D01*
X81017746Y-38361032D01*
X80966500Y-38618662D01*
X80136821Y-38618662D01*
X80097629Y-38365893D01*
X80007514Y-38119158D01*
X79953812Y-38018686D01*
X79720197Y-37959408D01*
X78979605Y-38700000D01*
X78993748Y-38714143D01*
X78814143Y-38893748D01*
X78800000Y-38879605D01*
X78059408Y-39620197D01*
X77397206Y-39620197D01*
X77171816Y-39563700D01*
X76889488Y-39549783D01*
X76609870Y-39591213D01*
X76343708Y-39686397D01*
X76218486Y-39753329D01*
X76146903Y-39997298D01*
X74523097Y-39997298D01*
X74451514Y-39753329D01*
X74196004Y-39632429D01*
X73921816Y-39563700D01*
X73639488Y-39549783D01*
X73359870Y-39591213D01*
X73093708Y-39686397D01*
X72968486Y-39753329D01*
X72896903Y-39997298D01*
X71628072Y-39997298D01*
X71628072Y-38840000D01*
X71621625Y-38774533D01*
X77462124Y-38774533D01*
X77502371Y-39034107D01*
X77592486Y-39280842D01*
X77646188Y-39381314D01*
X77879803Y-39440592D01*
X78620395Y-38700000D01*
X77879803Y-37959408D01*
X77646188Y-38018686D01*
X77535441Y-38256875D01*
X77473289Y-38512093D01*
X77462124Y-38774533D01*
X71621625Y-38774533D01*
X71615812Y-38715518D01*
X71579502Y-38595820D01*
X71520537Y-38485506D01*
X71441185Y-38388815D01*
X71344494Y-38309463D01*
X71234180Y-38250498D01*
X71114482Y-38214188D01*
X71100268Y-38212788D01*
X71254463Y-38148918D01*
X71522252Y-37969987D01*
X71749987Y-37742252D01*
X71778218Y-37700000D01*
X73921928Y-37700000D01*
X73934188Y-37824482D01*
X73970498Y-37944180D01*
X74029463Y-38054494D01*
X74108815Y-38151185D01*
X74205506Y-38230537D01*
X74315820Y-38289502D01*
X74435518Y-38325812D01*
X74560000Y-38338072D01*
X75274250Y-38335000D01*
X75433000Y-38176250D01*
X75433000Y-36827000D01*
X75687000Y-36827000D01*
X75687000Y-38176250D01*
X75845750Y-38335000D01*
X76560000Y-38338072D01*
X76684482Y-38325812D01*
X76804180Y-38289502D01*
X76914494Y-38230537D01*
X77011185Y-38151185D01*
X77090537Y-38054494D01*
X77149502Y-37944180D01*
X77185812Y-37824482D01*
X77190212Y-37779803D01*
X78059408Y-37779803D01*
X78800000Y-38520395D01*
X79540592Y-37779803D01*
X79481314Y-37546188D01*
X79243125Y-37435441D01*
X79025353Y-37382408D01*
X109773000Y-37382408D01*
X109773000Y-37657592D01*
X109826686Y-37927490D01*
X109931995Y-38181727D01*
X110084880Y-38410535D01*
X110279465Y-38605120D01*
X110508273Y-38758005D01*
X110762510Y-38863314D01*
X111032408Y-38917000D01*
X111307592Y-38917000D01*
X111577490Y-38863314D01*
X111831727Y-38758005D01*
X112060535Y-38605120D01*
X112255120Y-38410535D01*
X112408005Y-38181727D01*
X112513314Y-37927490D01*
X112567000Y-37657592D01*
X112567000Y-37382408D01*
X122773000Y-37382408D01*
X122773000Y-37657592D01*
X122826686Y-37927490D01*
X122931995Y-38181727D01*
X123084880Y-38410535D01*
X123279465Y-38605120D01*
X123508273Y-38758005D01*
X123762510Y-38863314D01*
X124032408Y-38917000D01*
X124307592Y-38917000D01*
X124577490Y-38863314D01*
X124831727Y-38758005D01*
X125060535Y-38605120D01*
X125255120Y-38410535D01*
X125408005Y-38181727D01*
X125513314Y-37927490D01*
X125567000Y-37657592D01*
X125567000Y-37443328D01*
X130439832Y-37443328D01*
X130501010Y-38057831D01*
X130680897Y-38648592D01*
X130968882Y-39187373D01*
X131386852Y-39463543D01*
X133410395Y-37440000D01*
X131386852Y-35416457D01*
X130968882Y-35692627D01*
X130678351Y-36237557D01*
X130499713Y-36828696D01*
X130439832Y-37443328D01*
X125567000Y-37443328D01*
X125567000Y-37382408D01*
X125513314Y-37112510D01*
X125408005Y-36858273D01*
X125255120Y-36629465D01*
X125060535Y-36434880D01*
X124831727Y-36281995D01*
X124577490Y-36176686D01*
X124307592Y-36123000D01*
X124032408Y-36123000D01*
X123762510Y-36176686D01*
X123508273Y-36281995D01*
X123279465Y-36434880D01*
X123084880Y-36629465D01*
X122931995Y-36858273D01*
X122826686Y-37112510D01*
X122773000Y-37382408D01*
X112567000Y-37382408D01*
X112513314Y-37112510D01*
X112408005Y-36858273D01*
X112255120Y-36629465D01*
X112060535Y-36434880D01*
X111831727Y-36281995D01*
X111577490Y-36176686D01*
X111307592Y-36123000D01*
X111032408Y-36123000D01*
X110762510Y-36176686D01*
X110508273Y-36281995D01*
X110279465Y-36434880D01*
X110084880Y-36629465D01*
X109931995Y-36858273D01*
X109826686Y-37112510D01*
X109773000Y-37382408D01*
X79025353Y-37382408D01*
X78987907Y-37373289D01*
X78725467Y-37362124D01*
X78465893Y-37402371D01*
X78219158Y-37492486D01*
X78118686Y-37546188D01*
X78059408Y-37779803D01*
X77190212Y-37779803D01*
X77198072Y-37700000D01*
X77195000Y-36985750D01*
X77036250Y-36827000D01*
X75687000Y-36827000D01*
X75433000Y-36827000D01*
X74083750Y-36827000D01*
X73925000Y-36985750D01*
X73921928Y-37700000D01*
X71778218Y-37700000D01*
X71928918Y-37474463D01*
X72052168Y-37176912D01*
X72115000Y-36861033D01*
X72115000Y-36538967D01*
X72052168Y-36223088D01*
X71928918Y-35925537D01*
X71749987Y-35657748D01*
X71522252Y-35430013D01*
X71522233Y-35430000D01*
X71522252Y-35429987D01*
X71749987Y-35202252D01*
X71928918Y-34934463D01*
X72052168Y-34636912D01*
X72115000Y-34321033D01*
X72115000Y-34222595D01*
X73918282Y-34222595D01*
X73962039Y-34541675D01*
X74067205Y-34846088D01*
X74160186Y-35020044D01*
X74367033Y-35094963D01*
X74315820Y-35110498D01*
X74205506Y-35169463D01*
X74108815Y-35248815D01*
X74029463Y-35345506D01*
X73970498Y-35455820D01*
X73934188Y-35575518D01*
X73921928Y-35700000D01*
X73925000Y-36414250D01*
X74083750Y-36573000D01*
X75433000Y-36573000D01*
X75433000Y-36553000D01*
X75687000Y-36553000D01*
X75687000Y-36573000D01*
X77036250Y-36573000D01*
X77195000Y-36414250D01*
X77198072Y-35700000D01*
X77185812Y-35575518D01*
X77149502Y-35455820D01*
X77090537Y-35345506D01*
X77038996Y-35282702D01*
X84406903Y-35282702D01*
X84478486Y-35526671D01*
X84733996Y-35647571D01*
X85008184Y-35716300D01*
X85290512Y-35730217D01*
X85570130Y-35688787D01*
X85836292Y-35593603D01*
X85961514Y-35526671D01*
X86033097Y-35282702D01*
X85220000Y-34469605D01*
X84406903Y-35282702D01*
X77038996Y-35282702D01*
X77011185Y-35248815D01*
X76914494Y-35169463D01*
X76804180Y-35110498D01*
X76752967Y-35094963D01*
X76959814Y-35020044D01*
X77100704Y-34730429D01*
X77182384Y-34418892D01*
X77185894Y-34360512D01*
X83779783Y-34360512D01*
X83821213Y-34640130D01*
X83916397Y-34906292D01*
X83983329Y-35031514D01*
X84227298Y-35103097D01*
X85040395Y-34290000D01*
X85399605Y-34290000D01*
X86212702Y-35103097D01*
X86456671Y-35031514D01*
X86577571Y-34776004D01*
X86646300Y-34501816D01*
X86660217Y-34219488D01*
X86649724Y-34148665D01*
X88785000Y-34148665D01*
X88785000Y-34431335D01*
X88840147Y-34708574D01*
X88948320Y-34969727D01*
X89105363Y-35204759D01*
X89305241Y-35404637D01*
X89540273Y-35561680D01*
X89801426Y-35669853D01*
X90078665Y-35725000D01*
X90361335Y-35725000D01*
X90638574Y-35669853D01*
X90899727Y-35561680D01*
X91134759Y-35404637D01*
X91334637Y-35204759D01*
X91491680Y-34969727D01*
X91599853Y-34708574D01*
X91655000Y-34431335D01*
X91655000Y-34148665D01*
X91599853Y-33871426D01*
X91491680Y-33610273D01*
X91334637Y-33375241D01*
X91134759Y-33175363D01*
X90960108Y-33058665D01*
X92115000Y-33058665D01*
X92115000Y-33341335D01*
X92170147Y-33618574D01*
X92278320Y-33879727D01*
X92435363Y-34114759D01*
X92635241Y-34314637D01*
X92870273Y-34471680D01*
X93131426Y-34579853D01*
X93408665Y-34635000D01*
X93691335Y-34635000D01*
X93968574Y-34579853D01*
X94229727Y-34471680D01*
X94464759Y-34314637D01*
X94664637Y-34114759D01*
X94821680Y-33879727D01*
X94929853Y-33618574D01*
X94985000Y-33341335D01*
X94985000Y-33058665D01*
X94929853Y-32781426D01*
X94925085Y-32769913D01*
X97679200Y-32769913D01*
X97679200Y-33030087D01*
X97729957Y-33285263D01*
X97829522Y-33525634D01*
X97974067Y-33741961D01*
X98158039Y-33925933D01*
X98374366Y-34070478D01*
X98614737Y-34170043D01*
X98869913Y-34220800D01*
X99130087Y-34220800D01*
X99385263Y-34170043D01*
X99625634Y-34070478D01*
X99841961Y-33925933D01*
X100025933Y-33741961D01*
X100170478Y-33525634D01*
X100270043Y-33285263D01*
X100320800Y-33030087D01*
X100320800Y-32769913D01*
X100270043Y-32514737D01*
X100170478Y-32274366D01*
X100025933Y-32058039D01*
X99841961Y-31874067D01*
X99625634Y-31729522D01*
X99385263Y-31629957D01*
X99130087Y-31579200D01*
X98869913Y-31579200D01*
X98614737Y-31629957D01*
X98374366Y-31729522D01*
X98158039Y-31874067D01*
X97974067Y-32058039D01*
X97829522Y-32274366D01*
X97729957Y-32514737D01*
X97679200Y-32769913D01*
X94925085Y-32769913D01*
X94821680Y-32520273D01*
X94664637Y-32285241D01*
X94464759Y-32085363D01*
X94229727Y-31928320D01*
X93968574Y-31820147D01*
X93691335Y-31765000D01*
X93408665Y-31765000D01*
X93131426Y-31820147D01*
X92870273Y-31928320D01*
X92635241Y-32085363D01*
X92435363Y-32285241D01*
X92278320Y-32520273D01*
X92170147Y-32781426D01*
X92115000Y-33058665D01*
X90960108Y-33058665D01*
X90899727Y-33018320D01*
X90638574Y-32910147D01*
X90361335Y-32855000D01*
X90078665Y-32855000D01*
X89801426Y-32910147D01*
X89540273Y-33018320D01*
X89305241Y-33175363D01*
X89105363Y-33375241D01*
X88948320Y-33610273D01*
X88840147Y-33871426D01*
X88785000Y-34148665D01*
X86649724Y-34148665D01*
X86618787Y-33939870D01*
X86523603Y-33673708D01*
X86456671Y-33548486D01*
X86212702Y-33476903D01*
X85399605Y-34290000D01*
X85040395Y-34290000D01*
X84227298Y-33476903D01*
X83983329Y-33548486D01*
X83862429Y-33803996D01*
X83793700Y-34078184D01*
X83779783Y-34360512D01*
X77185894Y-34360512D01*
X77201718Y-34097405D01*
X77157961Y-33778325D01*
X77052795Y-33473912D01*
X76959814Y-33299956D01*
X76952476Y-33297298D01*
X84406903Y-33297298D01*
X85220000Y-34110395D01*
X86033097Y-33297298D01*
X85961514Y-33053329D01*
X85706004Y-32932429D01*
X85431816Y-32863700D01*
X85149488Y-32849783D01*
X84869870Y-32891213D01*
X84603708Y-32986397D01*
X84478486Y-33053329D01*
X84406903Y-33297298D01*
X76952476Y-33297298D01*
X76695413Y-33204192D01*
X75739605Y-34160000D01*
X75753748Y-34174143D01*
X75574143Y-34353748D01*
X75560000Y-34339605D01*
X75545858Y-34353748D01*
X75366253Y-34174143D01*
X75380395Y-34160000D01*
X74424587Y-33204192D01*
X74160186Y-33299956D01*
X74019296Y-33589571D01*
X73937616Y-33901108D01*
X73918282Y-34222595D01*
X72115000Y-34222595D01*
X72115000Y-33998967D01*
X72052168Y-33683088D01*
X71928918Y-33385537D01*
X71749987Y-33117748D01*
X71656826Y-33024587D01*
X74604192Y-33024587D01*
X75560000Y-33980395D01*
X76515808Y-33024587D01*
X76420044Y-32760186D01*
X76130429Y-32619296D01*
X75818892Y-32537616D01*
X75497405Y-32518282D01*
X75178325Y-32562039D01*
X74873912Y-32667205D01*
X74699956Y-32760186D01*
X74604192Y-33024587D01*
X71656826Y-33024587D01*
X71522252Y-32890013D01*
X71254463Y-32711082D01*
X70956912Y-32587832D01*
X70641033Y-32525000D01*
X70318967Y-32525000D01*
X70003088Y-32587832D01*
X69705537Y-32711082D01*
X69437748Y-32890013D01*
X69210013Y-33117748D01*
X69031082Y-33385537D01*
X68907832Y-33683088D01*
X68845000Y-33998967D01*
X68845000Y-34321033D01*
X68907832Y-34636912D01*
X69031082Y-34934463D01*
X69210013Y-35202252D01*
X69437748Y-35429987D01*
X69437767Y-35430000D01*
X69437748Y-35430013D01*
X69210013Y-35657748D01*
X69031082Y-35925537D01*
X68907832Y-36223088D01*
X68845000Y-36538967D01*
X68845000Y-36861033D01*
X68907832Y-37176912D01*
X69031082Y-37474463D01*
X69210013Y-37742252D01*
X69437748Y-37969987D01*
X69705537Y-38148918D01*
X69833514Y-38201928D01*
X69390000Y-38201928D01*
X69265518Y-38214188D01*
X69145820Y-38250498D01*
X69035506Y-38309463D01*
X68938815Y-38388815D01*
X68859463Y-38485506D01*
X68800498Y-38595820D01*
X68764188Y-38715518D01*
X68751928Y-38840000D01*
X68660000Y-38840000D01*
X68660000Y-29898665D01*
X83585000Y-29898665D01*
X83585000Y-30181335D01*
X83640147Y-30458574D01*
X83748320Y-30719727D01*
X83905363Y-30954759D01*
X84105241Y-31154637D01*
X84340273Y-31311680D01*
X84601426Y-31419853D01*
X84878665Y-31475000D01*
X85161335Y-31475000D01*
X85438574Y-31419853D01*
X85699727Y-31311680D01*
X85934759Y-31154637D01*
X86134637Y-30954759D01*
X86291680Y-30719727D01*
X86399853Y-30458574D01*
X86455000Y-30181335D01*
X86455000Y-29898665D01*
X88585000Y-29898665D01*
X88585000Y-30181335D01*
X88640147Y-30458574D01*
X88748320Y-30719727D01*
X88905363Y-30954759D01*
X89105241Y-31154637D01*
X89340273Y-31311680D01*
X89601426Y-31419853D01*
X89878665Y-31475000D01*
X90161335Y-31475000D01*
X90438574Y-31419853D01*
X90699727Y-31311680D01*
X90934759Y-31154637D01*
X91134637Y-30954759D01*
X91171714Y-30899268D01*
X103265000Y-30899268D01*
X103265000Y-31260732D01*
X103335518Y-31615250D01*
X103473844Y-31949199D01*
X103674662Y-32249744D01*
X103930256Y-32505338D01*
X104230801Y-32706156D01*
X104564750Y-32844482D01*
X104919268Y-32915000D01*
X105280732Y-32915000D01*
X105635250Y-32844482D01*
X105969199Y-32706156D01*
X106269744Y-32505338D01*
X106525338Y-32249744D01*
X106726156Y-31949199D01*
X106864482Y-31615250D01*
X106935000Y-31260732D01*
X106935000Y-30899268D01*
X106864482Y-30544750D01*
X106726156Y-30210801D01*
X106525338Y-29910256D01*
X106269744Y-29654662D01*
X105969199Y-29453844D01*
X105635250Y-29315518D01*
X105280732Y-29245000D01*
X104919268Y-29245000D01*
X104564750Y-29315518D01*
X104230801Y-29453844D01*
X103930256Y-29654662D01*
X103674662Y-29910256D01*
X103473844Y-30210801D01*
X103335518Y-30544750D01*
X103265000Y-30899268D01*
X91171714Y-30899268D01*
X91291680Y-30719727D01*
X91399853Y-30458574D01*
X91455000Y-30181335D01*
X91455000Y-29898665D01*
X91399853Y-29621426D01*
X91291680Y-29360273D01*
X91134637Y-29125241D01*
X90934759Y-28925363D01*
X90699727Y-28768320D01*
X90438574Y-28660147D01*
X90161335Y-28605000D01*
X89878665Y-28605000D01*
X89601426Y-28660147D01*
X89340273Y-28768320D01*
X89105241Y-28925363D01*
X88905363Y-29125241D01*
X88748320Y-29360273D01*
X88640147Y-29621426D01*
X88585000Y-29898665D01*
X86455000Y-29898665D01*
X86399853Y-29621426D01*
X86291680Y-29360273D01*
X86134637Y-29125241D01*
X85934759Y-28925363D01*
X85699727Y-28768320D01*
X85438574Y-28660147D01*
X85161335Y-28605000D01*
X84878665Y-28605000D01*
X84601426Y-28660147D01*
X84340273Y-28768320D01*
X84105241Y-28925363D01*
X83905363Y-29125241D01*
X83748320Y-29360273D01*
X83640147Y-29621426D01*
X83585000Y-29898665D01*
X68660000Y-29898665D01*
X68660000Y-26378967D01*
X68845000Y-26378967D01*
X68845000Y-26701033D01*
X68907832Y-27016912D01*
X69031082Y-27314463D01*
X69210013Y-27582252D01*
X69437748Y-27809987D01*
X69705537Y-27988918D01*
X70003088Y-28112168D01*
X70318967Y-28175000D01*
X70641033Y-28175000D01*
X70956912Y-28112168D01*
X71254463Y-27988918D01*
X71522252Y-27809987D01*
X71749987Y-27582252D01*
X71928918Y-27314463D01*
X72052168Y-27016912D01*
X72115000Y-26701033D01*
X72115000Y-26378967D01*
X73925000Y-26378967D01*
X73925000Y-26701033D01*
X73987832Y-27016912D01*
X74111082Y-27314463D01*
X74290013Y-27582252D01*
X74517748Y-27809987D01*
X74785537Y-27988918D01*
X75083088Y-28112168D01*
X75398967Y-28175000D01*
X75721033Y-28175000D01*
X76036912Y-28112168D01*
X76334463Y-27988918D01*
X76602252Y-27809987D01*
X76829987Y-27582252D01*
X77008918Y-27314463D01*
X77132168Y-27016912D01*
X77195000Y-26701033D01*
X77195000Y-26378967D01*
X77132168Y-26063088D01*
X77027129Y-25809500D01*
X77463428Y-25809500D01*
X77463428Y-27206500D01*
X77475688Y-27330982D01*
X77511998Y-27450680D01*
X77570963Y-27560994D01*
X77650315Y-27657685D01*
X77747006Y-27737037D01*
X77857320Y-27796002D01*
X77977018Y-27832312D01*
X78101500Y-27844572D01*
X79498500Y-27844572D01*
X79622982Y-27832312D01*
X79742680Y-27796002D01*
X79852994Y-27737037D01*
X79949685Y-27657685D01*
X80029037Y-27560994D01*
X80088002Y-27450680D01*
X80124312Y-27330982D01*
X80136572Y-27206500D01*
X80136572Y-25859500D01*
X80963428Y-25859500D01*
X80963428Y-27256500D01*
X80975688Y-27380982D01*
X81011998Y-27500680D01*
X81070963Y-27610994D01*
X81150315Y-27707685D01*
X81247006Y-27787037D01*
X81357320Y-27846002D01*
X81477018Y-27882312D01*
X81601500Y-27894572D01*
X82998500Y-27894572D01*
X83122982Y-27882312D01*
X83242680Y-27846002D01*
X83352994Y-27787037D01*
X83449685Y-27707685D01*
X83529037Y-27610994D01*
X83588002Y-27500680D01*
X83624312Y-27380982D01*
X83636572Y-27256500D01*
X83636572Y-25859500D01*
X83632610Y-25819268D01*
X103265000Y-25819268D01*
X103265000Y-26180732D01*
X103335518Y-26535250D01*
X103473844Y-26869199D01*
X103674662Y-27169744D01*
X103930256Y-27425338D01*
X104230801Y-27626156D01*
X104564750Y-27764482D01*
X104919268Y-27835000D01*
X105280732Y-27835000D01*
X105635250Y-27764482D01*
X105969199Y-27626156D01*
X106269744Y-27425338D01*
X106525338Y-27169744D01*
X106726156Y-26869199D01*
X106864482Y-26535250D01*
X106935000Y-26180732D01*
X106935000Y-25819268D01*
X106864482Y-25464750D01*
X106726156Y-25130801D01*
X106525338Y-24830256D01*
X106269744Y-24574662D01*
X105969199Y-24373844D01*
X105635250Y-24235518D01*
X105280732Y-24165000D01*
X104919268Y-24165000D01*
X104564750Y-24235518D01*
X104230801Y-24373844D01*
X103930256Y-24574662D01*
X103674662Y-24830256D01*
X103473844Y-25130801D01*
X103335518Y-25464750D01*
X103265000Y-25819268D01*
X83632610Y-25819268D01*
X83624312Y-25735018D01*
X83610071Y-25688072D01*
X84350000Y-25688072D01*
X84474482Y-25675812D01*
X84594180Y-25639502D01*
X84704494Y-25580537D01*
X84801185Y-25501185D01*
X84880537Y-25404494D01*
X84939502Y-25294180D01*
X84975812Y-25174482D01*
X84988072Y-25050000D01*
X84988072Y-24158665D01*
X85115000Y-24158665D01*
X85115000Y-24441335D01*
X85170147Y-24718574D01*
X85278320Y-24979727D01*
X85435363Y-25214759D01*
X85635241Y-25414637D01*
X85870273Y-25571680D01*
X86131426Y-25679853D01*
X86408665Y-25735000D01*
X86691335Y-25735000D01*
X86968574Y-25679853D01*
X87229727Y-25571680D01*
X87464759Y-25414637D01*
X87664637Y-25214759D01*
X87821680Y-24979727D01*
X87929853Y-24718574D01*
X87985000Y-24441335D01*
X87985000Y-24158665D01*
X87929853Y-23881426D01*
X87821680Y-23620273D01*
X87664637Y-23385241D01*
X87464759Y-23185363D01*
X87229727Y-23028320D01*
X86968574Y-22920147D01*
X86691335Y-22865000D01*
X86408665Y-22865000D01*
X86131426Y-22920147D01*
X85870273Y-23028320D01*
X85635241Y-23185363D01*
X85435363Y-23385241D01*
X85278320Y-23620273D01*
X85170147Y-23881426D01*
X85115000Y-24158665D01*
X84988072Y-24158665D01*
X84988072Y-23450000D01*
X84975812Y-23325518D01*
X84939502Y-23205820D01*
X84880537Y-23095506D01*
X84801185Y-22998815D01*
X84704494Y-22919463D01*
X84594180Y-22860498D01*
X84474482Y-22824188D01*
X84350000Y-22811928D01*
X82750000Y-22811928D01*
X82625518Y-22824188D01*
X82505820Y-22860498D01*
X82395506Y-22919463D01*
X82298815Y-22998815D01*
X82219463Y-23095506D01*
X82160498Y-23205820D01*
X82124188Y-23325518D01*
X82111928Y-23450000D01*
X82111928Y-25050000D01*
X82124188Y-25174482D01*
X82138429Y-25221428D01*
X81601500Y-25221428D01*
X81477018Y-25233688D01*
X81357320Y-25269998D01*
X81247006Y-25328963D01*
X81150315Y-25408315D01*
X81070963Y-25505006D01*
X81011998Y-25615320D01*
X80975688Y-25735018D01*
X80963428Y-25859500D01*
X80136572Y-25859500D01*
X80136572Y-25809500D01*
X80124312Y-25685018D01*
X80088002Y-25565320D01*
X80029037Y-25455006D01*
X79949685Y-25358315D01*
X79852994Y-25278963D01*
X79742680Y-25219998D01*
X79622982Y-25183688D01*
X79498500Y-25171428D01*
X78101500Y-25171428D01*
X77977018Y-25183688D01*
X77857320Y-25219998D01*
X77747006Y-25278963D01*
X77650315Y-25358315D01*
X77570963Y-25455006D01*
X77511998Y-25565320D01*
X77475688Y-25685018D01*
X77463428Y-25809500D01*
X77027129Y-25809500D01*
X77008918Y-25765537D01*
X76829987Y-25497748D01*
X76602252Y-25270013D01*
X76334463Y-25091082D01*
X76036912Y-24967832D01*
X75721033Y-24905000D01*
X75398967Y-24905000D01*
X75083088Y-24967832D01*
X74785537Y-25091082D01*
X74517748Y-25270013D01*
X74290013Y-25497748D01*
X74111082Y-25765537D01*
X73987832Y-26063088D01*
X73925000Y-26378967D01*
X72115000Y-26378967D01*
X72052168Y-26063088D01*
X71928918Y-25765537D01*
X71749987Y-25497748D01*
X71522252Y-25270013D01*
X71254463Y-25091082D01*
X70956912Y-24967832D01*
X70641033Y-24905000D01*
X70318967Y-24905000D01*
X70003088Y-24967832D01*
X69705537Y-25091082D01*
X69437748Y-25270013D01*
X69210013Y-25497748D01*
X69031082Y-25765537D01*
X68907832Y-26063088D01*
X68845000Y-26378967D01*
X68660000Y-26378967D01*
X68660000Y-19513945D01*
X69065000Y-19513945D01*
X69065000Y-20486055D01*
X69254650Y-21439486D01*
X69626660Y-22337599D01*
X70166735Y-23145879D01*
X70854121Y-23833265D01*
X71662401Y-24373340D01*
X72560514Y-24745350D01*
X73513945Y-24935000D01*
X74486055Y-24935000D01*
X75439486Y-24745350D01*
X76337599Y-24373340D01*
X77145879Y-23833265D01*
X77833265Y-23145879D01*
X78373340Y-22337599D01*
X78745350Y-21439486D01*
X78935000Y-20486055D01*
X78935000Y-20358665D01*
X92115000Y-20358665D01*
X92115000Y-20641335D01*
X92170147Y-20918574D01*
X92278320Y-21179727D01*
X92435363Y-21414759D01*
X92635241Y-21614637D01*
X92870273Y-21771680D01*
X93131426Y-21879853D01*
X93408665Y-21935000D01*
X93691335Y-21935000D01*
X93968574Y-21879853D01*
X94229727Y-21771680D01*
X94464759Y-21614637D01*
X94664637Y-21414759D01*
X94821680Y-21179727D01*
X94929853Y-20918574D01*
X94985000Y-20641335D01*
X94985000Y-20530200D01*
X97676128Y-20530200D01*
X97676128Y-21901800D01*
X97688388Y-22026282D01*
X97724698Y-22145980D01*
X97783663Y-22256294D01*
X97863015Y-22352985D01*
X97959706Y-22432337D01*
X98070020Y-22491302D01*
X98189718Y-22527612D01*
X98314200Y-22539872D01*
X99685800Y-22539872D01*
X99810282Y-22527612D01*
X99929980Y-22491302D01*
X100040294Y-22432337D01*
X100136985Y-22352985D01*
X100216337Y-22256294D01*
X100275302Y-22145980D01*
X100311612Y-22026282D01*
X100323872Y-21901800D01*
X100323872Y-20530200D01*
X100314989Y-20440000D01*
X108963000Y-20440000D01*
X108963000Y-35580000D01*
X108965440Y-35604776D01*
X108972667Y-35628601D01*
X108984403Y-35650557D01*
X109000197Y-35669803D01*
X109019443Y-35685597D01*
X109041399Y-35697333D01*
X109065224Y-35704560D01*
X109090000Y-35707000D01*
X125240000Y-35707000D01*
X125264776Y-35704560D01*
X125288601Y-35697333D01*
X125310557Y-35685597D01*
X125329803Y-35669803D01*
X125345597Y-35650557D01*
X125357333Y-35628601D01*
X125364560Y-35604776D01*
X125367000Y-35580000D01*
X125367000Y-35236852D01*
X131566457Y-35236852D01*
X133590000Y-37260395D01*
X135613543Y-35236852D01*
X139686457Y-35236852D01*
X141710000Y-37260395D01*
X143733543Y-35236852D01*
X143457373Y-34818882D01*
X143089211Y-34622595D01*
X158978282Y-34622595D01*
X159022039Y-34941675D01*
X159127205Y-35246088D01*
X159220186Y-35420044D01*
X159484587Y-35515808D01*
X160440395Y-34560000D01*
X160799605Y-34560000D01*
X161755413Y-35515808D01*
X162019814Y-35420044D01*
X162160704Y-35130429D01*
X162242384Y-34818892D01*
X162261718Y-34497405D01*
X162217961Y-34178325D01*
X162112795Y-33873912D01*
X162019814Y-33699956D01*
X161755413Y-33604192D01*
X160799605Y-34560000D01*
X160440395Y-34560000D01*
X159484587Y-33604192D01*
X159220186Y-33699956D01*
X159079296Y-33989571D01*
X158997616Y-34301108D01*
X158978282Y-34622595D01*
X143089211Y-34622595D01*
X142912443Y-34528351D01*
X142321304Y-34349713D01*
X141706672Y-34289832D01*
X141092169Y-34351010D01*
X140501408Y-34530897D01*
X139962627Y-34818882D01*
X139686457Y-35236852D01*
X135613543Y-35236852D01*
X135337373Y-34818882D01*
X134792443Y-34528351D01*
X134201304Y-34349713D01*
X133586672Y-34289832D01*
X132972169Y-34351010D01*
X132381408Y-34530897D01*
X131842627Y-34818882D01*
X131566457Y-35236852D01*
X125367000Y-35236852D01*
X125367000Y-30874268D01*
X127540000Y-30874268D01*
X127540000Y-31235732D01*
X127610518Y-31590250D01*
X127748844Y-31924199D01*
X127949662Y-32224744D01*
X128205256Y-32480338D01*
X128505801Y-32681156D01*
X128839750Y-32819482D01*
X129194268Y-32890000D01*
X129555732Y-32890000D01*
X129556169Y-32889913D01*
X135259200Y-32889913D01*
X135259200Y-33150087D01*
X135309957Y-33405263D01*
X135409522Y-33645634D01*
X135554067Y-33861961D01*
X135738039Y-34045933D01*
X135954366Y-34190478D01*
X136194737Y-34290043D01*
X136449913Y-34340800D01*
X136710087Y-34340800D01*
X136965263Y-34290043D01*
X137205634Y-34190478D01*
X137421961Y-34045933D01*
X137605933Y-33861961D01*
X137750478Y-33645634D01*
X137850043Y-33405263D01*
X137900800Y-33150087D01*
X137900800Y-32889913D01*
X137850043Y-32634737D01*
X137760543Y-32418665D01*
X139795000Y-32418665D01*
X139795000Y-32701335D01*
X139850147Y-32978574D01*
X139958320Y-33239727D01*
X140115363Y-33474759D01*
X140315241Y-33674637D01*
X140550273Y-33831680D01*
X140811426Y-33939853D01*
X141088665Y-33995000D01*
X141371335Y-33995000D01*
X141648574Y-33939853D01*
X141909727Y-33831680D01*
X142144759Y-33674637D01*
X142344637Y-33474759D01*
X142501680Y-33239727D01*
X142604000Y-32992702D01*
X143466903Y-32992702D01*
X143538486Y-33236671D01*
X143793996Y-33357571D01*
X144068184Y-33426300D01*
X144350512Y-33440217D01*
X144630130Y-33398787D01*
X144896292Y-33303603D01*
X145021514Y-33236671D01*
X145093097Y-32992702D01*
X144280000Y-32179605D01*
X143466903Y-32992702D01*
X142604000Y-32992702D01*
X142609853Y-32978574D01*
X142665000Y-32701335D01*
X142665000Y-32418665D01*
X142609853Y-32141426D01*
X142580480Y-32070512D01*
X142839783Y-32070512D01*
X142881213Y-32350130D01*
X142976397Y-32616292D01*
X143043329Y-32741514D01*
X143287298Y-32813097D01*
X144100395Y-32000000D01*
X144459605Y-32000000D01*
X145272702Y-32813097D01*
X145516671Y-32741514D01*
X145637571Y-32486004D01*
X145706300Y-32211816D01*
X145720217Y-31929488D01*
X145709724Y-31858665D01*
X147845000Y-31858665D01*
X147845000Y-32141335D01*
X147900147Y-32418574D01*
X148008320Y-32679727D01*
X148165363Y-32914759D01*
X148365241Y-33114637D01*
X148600273Y-33271680D01*
X148861426Y-33379853D01*
X149138665Y-33435000D01*
X149421335Y-33435000D01*
X149473683Y-33424587D01*
X159664192Y-33424587D01*
X160620000Y-34380395D01*
X161575808Y-33424587D01*
X161480044Y-33160186D01*
X161190429Y-33019296D01*
X160878892Y-32937616D01*
X160557405Y-32918282D01*
X160238325Y-32962039D01*
X159933912Y-33067205D01*
X159759956Y-33160186D01*
X159664192Y-33424587D01*
X149473683Y-33424587D01*
X149698574Y-33379853D01*
X149959727Y-33271680D01*
X150194759Y-33114637D01*
X150394637Y-32914759D01*
X150551680Y-32679727D01*
X150659853Y-32418574D01*
X150715000Y-32141335D01*
X150715000Y-31858665D01*
X150659853Y-31581426D01*
X150551680Y-31320273D01*
X150394637Y-31085241D01*
X150194759Y-30885363D01*
X149959727Y-30728320D01*
X149698574Y-30620147D01*
X149421335Y-30565000D01*
X149138665Y-30565000D01*
X148861426Y-30620147D01*
X148600273Y-30728320D01*
X148365241Y-30885363D01*
X148165363Y-31085241D01*
X148008320Y-31320273D01*
X147900147Y-31581426D01*
X147845000Y-31858665D01*
X145709724Y-31858665D01*
X145678787Y-31649870D01*
X145583603Y-31383708D01*
X145516671Y-31258486D01*
X145272702Y-31186903D01*
X144459605Y-32000000D01*
X144100395Y-32000000D01*
X143287298Y-31186903D01*
X143043329Y-31258486D01*
X142922429Y-31513996D01*
X142853700Y-31788184D01*
X142839783Y-32070512D01*
X142580480Y-32070512D01*
X142501680Y-31880273D01*
X142344637Y-31645241D01*
X142144759Y-31445363D01*
X141909727Y-31288320D01*
X141648574Y-31180147D01*
X141371335Y-31125000D01*
X141088665Y-31125000D01*
X140811426Y-31180147D01*
X140550273Y-31288320D01*
X140315241Y-31445363D01*
X140115363Y-31645241D01*
X139958320Y-31880273D01*
X139850147Y-32141426D01*
X139795000Y-32418665D01*
X137760543Y-32418665D01*
X137750478Y-32394366D01*
X137605933Y-32178039D01*
X137421961Y-31994067D01*
X137205634Y-31849522D01*
X136965263Y-31749957D01*
X136710087Y-31699200D01*
X136449913Y-31699200D01*
X136194737Y-31749957D01*
X135954366Y-31849522D01*
X135738039Y-31994067D01*
X135554067Y-32178039D01*
X135409522Y-32394366D01*
X135309957Y-32634737D01*
X135259200Y-32889913D01*
X129556169Y-32889913D01*
X129910250Y-32819482D01*
X130244199Y-32681156D01*
X130544744Y-32480338D01*
X130800338Y-32224744D01*
X131001156Y-31924199D01*
X131139482Y-31590250D01*
X131210000Y-31235732D01*
X131210000Y-31007298D01*
X143466903Y-31007298D01*
X144280000Y-31820395D01*
X145093097Y-31007298D01*
X145021514Y-30763329D01*
X144766004Y-30642429D01*
X144491816Y-30573700D01*
X144209488Y-30559783D01*
X143929870Y-30601213D01*
X143663708Y-30696397D01*
X143538486Y-30763329D01*
X143466903Y-31007298D01*
X131210000Y-31007298D01*
X131210000Y-30874268D01*
X131139482Y-30519750D01*
X131001156Y-30185801D01*
X130800338Y-29885256D01*
X130544744Y-29629662D01*
X130244199Y-29428844D01*
X129910250Y-29290518D01*
X129555732Y-29220000D01*
X129194268Y-29220000D01*
X128839750Y-29290518D01*
X128505801Y-29428844D01*
X128205256Y-29629662D01*
X127949662Y-29885256D01*
X127748844Y-30185801D01*
X127610518Y-30519750D01*
X127540000Y-30874268D01*
X125367000Y-30874268D01*
X125367000Y-28538665D01*
X142885000Y-28538665D01*
X142885000Y-28821335D01*
X142940147Y-29098574D01*
X143048320Y-29359727D01*
X143205363Y-29594759D01*
X143405241Y-29794637D01*
X143640273Y-29951680D01*
X143901426Y-30059853D01*
X144178665Y-30115000D01*
X144461335Y-30115000D01*
X144738574Y-30059853D01*
X144999727Y-29951680D01*
X145234759Y-29794637D01*
X145434637Y-29594759D01*
X145591680Y-29359727D01*
X145699853Y-29098574D01*
X145755000Y-28821335D01*
X145755000Y-28538665D01*
X147885000Y-28538665D01*
X147885000Y-28821335D01*
X147940147Y-29098574D01*
X148048320Y-29359727D01*
X148205363Y-29594759D01*
X148405241Y-29794637D01*
X148640273Y-29951680D01*
X148901426Y-30059853D01*
X149178665Y-30115000D01*
X149461335Y-30115000D01*
X149738574Y-30059853D01*
X149999727Y-29951680D01*
X150234759Y-29794637D01*
X150434637Y-29594759D01*
X150591680Y-29359727D01*
X150699853Y-29098574D01*
X150755000Y-28821335D01*
X150755000Y-28538665D01*
X150699853Y-28261426D01*
X150591680Y-28000273D01*
X150434637Y-27765241D01*
X150234759Y-27565363D01*
X149999727Y-27408320D01*
X149738574Y-27300147D01*
X149461335Y-27245000D01*
X149178665Y-27245000D01*
X148901426Y-27300147D01*
X148640273Y-27408320D01*
X148405241Y-27565363D01*
X148205363Y-27765241D01*
X148048320Y-28000273D01*
X147940147Y-28261426D01*
X147885000Y-28538665D01*
X145755000Y-28538665D01*
X145699853Y-28261426D01*
X145591680Y-28000273D01*
X145434637Y-27765241D01*
X145234759Y-27565363D01*
X144999727Y-27408320D01*
X144738574Y-27300147D01*
X144461335Y-27245000D01*
X144178665Y-27245000D01*
X143901426Y-27300147D01*
X143640273Y-27408320D01*
X143405241Y-27565363D01*
X143205363Y-27765241D01*
X143048320Y-28000273D01*
X142940147Y-28261426D01*
X142885000Y-28538665D01*
X125367000Y-28538665D01*
X125367000Y-25794268D01*
X127540000Y-25794268D01*
X127540000Y-26155732D01*
X127610518Y-26510250D01*
X127748844Y-26844199D01*
X127949662Y-27144744D01*
X128205256Y-27400338D01*
X128505801Y-27601156D01*
X128839750Y-27739482D01*
X129194268Y-27810000D01*
X129555732Y-27810000D01*
X129910250Y-27739482D01*
X130244199Y-27601156D01*
X130544744Y-27400338D01*
X130800338Y-27144744D01*
X131001156Y-26844199D01*
X131139482Y-26510250D01*
X131210000Y-26155732D01*
X131210000Y-25794268D01*
X131175070Y-25618662D01*
X152166500Y-25618662D01*
X152166500Y-25881338D01*
X152217746Y-26138968D01*
X152318268Y-26381649D01*
X152464203Y-26600057D01*
X152649943Y-26785797D01*
X152868351Y-26931732D01*
X153111032Y-27032254D01*
X153368662Y-27083500D01*
X153631338Y-27083500D01*
X153888968Y-27032254D01*
X154131649Y-26931732D01*
X154350057Y-26785797D01*
X154535797Y-26600057D01*
X154681732Y-26381649D01*
X154782254Y-26138968D01*
X154833500Y-25881338D01*
X154833500Y-25618662D01*
X156166500Y-25618662D01*
X156166500Y-25881338D01*
X156217746Y-26138968D01*
X156318268Y-26381649D01*
X156464203Y-26600057D01*
X156649943Y-26785797D01*
X156868351Y-26931732D01*
X157111032Y-27032254D01*
X157368662Y-27083500D01*
X157631338Y-27083500D01*
X157888968Y-27032254D01*
X158131649Y-26931732D01*
X158350057Y-26785797D01*
X158356887Y-26778967D01*
X158985000Y-26778967D01*
X158985000Y-27101033D01*
X159047832Y-27416912D01*
X159171082Y-27714463D01*
X159350013Y-27982252D01*
X159577748Y-28209987D01*
X159845537Y-28388918D01*
X160143088Y-28512168D01*
X160458967Y-28575000D01*
X160781033Y-28575000D01*
X161096912Y-28512168D01*
X161394463Y-28388918D01*
X161662252Y-28209987D01*
X161889987Y-27982252D01*
X162068918Y-27714463D01*
X162192168Y-27416912D01*
X162255000Y-27101033D01*
X162255000Y-26778967D01*
X164065000Y-26778967D01*
X164065000Y-27101033D01*
X164127832Y-27416912D01*
X164251082Y-27714463D01*
X164430013Y-27982252D01*
X164657748Y-28209987D01*
X164925537Y-28388918D01*
X165223088Y-28512168D01*
X165538967Y-28575000D01*
X165861033Y-28575000D01*
X166176912Y-28512168D01*
X166474463Y-28388918D01*
X166742252Y-28209987D01*
X166969987Y-27982252D01*
X167148918Y-27714463D01*
X167272168Y-27416912D01*
X167335000Y-27101033D01*
X167335000Y-26778967D01*
X167272168Y-26463088D01*
X167148918Y-26165537D01*
X166969987Y-25897748D01*
X166742252Y-25670013D01*
X166474463Y-25491082D01*
X166176912Y-25367832D01*
X165861033Y-25305000D01*
X165538967Y-25305000D01*
X165223088Y-25367832D01*
X164925537Y-25491082D01*
X164657748Y-25670013D01*
X164430013Y-25897748D01*
X164251082Y-26165537D01*
X164127832Y-26463088D01*
X164065000Y-26778967D01*
X162255000Y-26778967D01*
X162192168Y-26463088D01*
X162068918Y-26165537D01*
X161889987Y-25897748D01*
X161662252Y-25670013D01*
X161394463Y-25491082D01*
X161096912Y-25367832D01*
X160781033Y-25305000D01*
X160458967Y-25305000D01*
X160143088Y-25367832D01*
X159845537Y-25491082D01*
X159577748Y-25670013D01*
X159350013Y-25897748D01*
X159171082Y-26165537D01*
X159047832Y-26463088D01*
X158985000Y-26778967D01*
X158356887Y-26778967D01*
X158535797Y-26600057D01*
X158681732Y-26381649D01*
X158782254Y-26138968D01*
X158833500Y-25881338D01*
X158833500Y-25618662D01*
X158782254Y-25361032D01*
X158681732Y-25118351D01*
X158535797Y-24899943D01*
X158350057Y-24714203D01*
X158131649Y-24568268D01*
X157888968Y-24467746D01*
X157631338Y-24416500D01*
X157368662Y-24416500D01*
X157111032Y-24467746D01*
X156868351Y-24568268D01*
X156649943Y-24714203D01*
X156464203Y-24899943D01*
X156318268Y-25118351D01*
X156217746Y-25361032D01*
X156166500Y-25618662D01*
X154833500Y-25618662D01*
X154782254Y-25361032D01*
X154681732Y-25118351D01*
X154535797Y-24899943D01*
X154350057Y-24714203D01*
X154131649Y-24568268D01*
X153888968Y-24467746D01*
X153631338Y-24416500D01*
X153368662Y-24416500D01*
X153111032Y-24467746D01*
X152868351Y-24568268D01*
X152649943Y-24714203D01*
X152464203Y-24899943D01*
X152318268Y-25118351D01*
X152217746Y-25361032D01*
X152166500Y-25618662D01*
X131175070Y-25618662D01*
X131139482Y-25439750D01*
X131001156Y-25105801D01*
X130800338Y-24805256D01*
X130544744Y-24549662D01*
X130244199Y-24348844D01*
X129910250Y-24210518D01*
X129555732Y-24140000D01*
X129194268Y-24140000D01*
X128839750Y-24210518D01*
X128505801Y-24348844D01*
X128205256Y-24549662D01*
X127949662Y-24805256D01*
X127748844Y-25105801D01*
X127610518Y-25439750D01*
X127540000Y-25794268D01*
X125367000Y-25794268D01*
X125367000Y-23478665D01*
X146265000Y-23478665D01*
X146265000Y-23761335D01*
X146320147Y-24038574D01*
X146428320Y-24299727D01*
X146585363Y-24534759D01*
X146785241Y-24734637D01*
X147020273Y-24891680D01*
X147281426Y-24999853D01*
X147558665Y-25055000D01*
X147841335Y-25055000D01*
X148118574Y-24999853D01*
X148379727Y-24891680D01*
X148614759Y-24734637D01*
X148814637Y-24534759D01*
X148971680Y-24299727D01*
X149079853Y-24038574D01*
X149135000Y-23761335D01*
X149135000Y-23478665D01*
X149079853Y-23201426D01*
X148971680Y-22940273D01*
X148891317Y-22820000D01*
X149461928Y-22820000D01*
X149461928Y-24420000D01*
X149474188Y-24544482D01*
X149510498Y-24664180D01*
X149569463Y-24774494D01*
X149648815Y-24871185D01*
X149745506Y-24950537D01*
X149855820Y-25009502D01*
X149975518Y-25045812D01*
X150100000Y-25058072D01*
X151700000Y-25058072D01*
X151824482Y-25045812D01*
X151944180Y-25009502D01*
X152054494Y-24950537D01*
X152151185Y-24871185D01*
X152230537Y-24774494D01*
X152289502Y-24664180D01*
X152325812Y-24544482D01*
X152338072Y-24420000D01*
X152338072Y-22820000D01*
X152325812Y-22695518D01*
X152289502Y-22575820D01*
X152230537Y-22465506D01*
X152151185Y-22368815D01*
X152054494Y-22289463D01*
X151944180Y-22230498D01*
X151824482Y-22194188D01*
X151700000Y-22181928D01*
X150100000Y-22181928D01*
X149975518Y-22194188D01*
X149855820Y-22230498D01*
X149745506Y-22289463D01*
X149648815Y-22368815D01*
X149569463Y-22465506D01*
X149510498Y-22575820D01*
X149474188Y-22695518D01*
X149461928Y-22820000D01*
X148891317Y-22820000D01*
X148814637Y-22705241D01*
X148614759Y-22505363D01*
X148379727Y-22348320D01*
X148118574Y-22240147D01*
X147841335Y-22185000D01*
X147558665Y-22185000D01*
X147281426Y-22240147D01*
X147020273Y-22348320D01*
X146785241Y-22505363D01*
X146585363Y-22705241D01*
X146428320Y-22940273D01*
X146320147Y-23201426D01*
X146265000Y-23478665D01*
X125367000Y-23478665D01*
X125367000Y-20650200D01*
X135256128Y-20650200D01*
X135256128Y-22021800D01*
X135268388Y-22146282D01*
X135304698Y-22265980D01*
X135363663Y-22376294D01*
X135443015Y-22472985D01*
X135539706Y-22552337D01*
X135650020Y-22611302D01*
X135769718Y-22647612D01*
X135894200Y-22659872D01*
X137265800Y-22659872D01*
X137390282Y-22647612D01*
X137509980Y-22611302D01*
X137620294Y-22552337D01*
X137716985Y-22472985D01*
X137796337Y-22376294D01*
X137855302Y-22265980D01*
X137891612Y-22146282D01*
X137903872Y-22021800D01*
X137903872Y-20650200D01*
X137891612Y-20525718D01*
X137855302Y-20406020D01*
X137796337Y-20295706D01*
X137716985Y-20199015D01*
X137620294Y-20119663D01*
X137509980Y-20060698D01*
X137390282Y-20024388D01*
X137265800Y-20012128D01*
X135894200Y-20012128D01*
X135769718Y-20024388D01*
X135650020Y-20060698D01*
X135539706Y-20119663D01*
X135443015Y-20199015D01*
X135363663Y-20295706D01*
X135304698Y-20406020D01*
X135268388Y-20525718D01*
X135256128Y-20650200D01*
X125367000Y-20650200D01*
X125367000Y-20440000D01*
X125364560Y-20415224D01*
X125357333Y-20391399D01*
X125345597Y-20369443D01*
X125329803Y-20350197D01*
X125310557Y-20334403D01*
X125288601Y-20322667D01*
X125264776Y-20315440D01*
X125240000Y-20313000D01*
X109090000Y-20313000D01*
X109065224Y-20315440D01*
X109041399Y-20322667D01*
X109019443Y-20334403D01*
X109000197Y-20350197D01*
X108984403Y-20369443D01*
X108972667Y-20391399D01*
X108965440Y-20415224D01*
X108963000Y-20440000D01*
X100314989Y-20440000D01*
X100311612Y-20405718D01*
X100275302Y-20286020D01*
X100216337Y-20175706D01*
X100136985Y-20079015D01*
X100040294Y-19999663D01*
X99929980Y-19940698D01*
X99810282Y-19904388D01*
X99685800Y-19892128D01*
X98314200Y-19892128D01*
X98189718Y-19904388D01*
X98070020Y-19940698D01*
X97959706Y-19999663D01*
X97863015Y-20079015D01*
X97783663Y-20175706D01*
X97724698Y-20286020D01*
X97688388Y-20405718D01*
X97676128Y-20530200D01*
X94985000Y-20530200D01*
X94985000Y-20358665D01*
X94929853Y-20081426D01*
X94821680Y-19820273D01*
X94664637Y-19585241D01*
X94464759Y-19385363D01*
X94229727Y-19228320D01*
X93968574Y-19120147D01*
X93691335Y-19065000D01*
X93408665Y-19065000D01*
X93131426Y-19120147D01*
X92870273Y-19228320D01*
X92635241Y-19385363D01*
X92435363Y-19585241D01*
X92278320Y-19820273D01*
X92170147Y-20081426D01*
X92115000Y-20358665D01*
X78935000Y-20358665D01*
X78935000Y-19513945D01*
X78745350Y-18560514D01*
X78373340Y-17662401D01*
X77916734Y-16979040D01*
X82158091Y-16979040D01*
X82252930Y-17243881D01*
X82397615Y-17485131D01*
X82586586Y-17693519D01*
X82812580Y-17861037D01*
X83066913Y-17981246D01*
X83200961Y-18021904D01*
X83423000Y-17899915D01*
X83423000Y-16757000D01*
X83677000Y-16757000D01*
X83677000Y-17899915D01*
X83899039Y-18021904D01*
X84033087Y-17981246D01*
X84287420Y-17861037D01*
X84513414Y-17693519D01*
X84702385Y-17485131D01*
X84705462Y-17480000D01*
X85111928Y-17480000D01*
X85124188Y-17604482D01*
X85160498Y-17724180D01*
X85219463Y-17834494D01*
X85298815Y-17931185D01*
X85395506Y-18010537D01*
X85505820Y-18069502D01*
X85625518Y-18105812D01*
X85750000Y-18118072D01*
X86264250Y-18115000D01*
X86423000Y-17956250D01*
X86423000Y-16807000D01*
X86677000Y-16807000D01*
X86677000Y-17956250D01*
X86835750Y-18115000D01*
X87350000Y-18118072D01*
X87474482Y-18105812D01*
X87594180Y-18069502D01*
X87704494Y-18010537D01*
X87726226Y-17992702D01*
X91636903Y-17992702D01*
X91708486Y-18236671D01*
X91963996Y-18357571D01*
X92238184Y-18426300D01*
X92520512Y-18440217D01*
X92800130Y-18398787D01*
X93066292Y-18303603D01*
X93191514Y-18236671D01*
X93263097Y-17992702D01*
X92450000Y-17179605D01*
X91636903Y-17992702D01*
X87726226Y-17992702D01*
X87801185Y-17931185D01*
X87880537Y-17834494D01*
X87939502Y-17724180D01*
X87975812Y-17604482D01*
X87988072Y-17480000D01*
X87985626Y-17070512D01*
X91009783Y-17070512D01*
X91051213Y-17350130D01*
X91146397Y-17616292D01*
X91213329Y-17741514D01*
X91457298Y-17813097D01*
X92270395Y-17000000D01*
X92629605Y-17000000D01*
X93442702Y-17813097D01*
X93686671Y-17741514D01*
X93807571Y-17486004D01*
X93876300Y-17211816D01*
X93890217Y-16929488D01*
X93879724Y-16858665D01*
X96015000Y-16858665D01*
X96015000Y-17141335D01*
X96070147Y-17418574D01*
X96178320Y-17679727D01*
X96335363Y-17914759D01*
X96535241Y-18114637D01*
X96770273Y-18271680D01*
X97031426Y-18379853D01*
X97308665Y-18435000D01*
X97591335Y-18435000D01*
X97868574Y-18379853D01*
X98129727Y-18271680D01*
X98364759Y-18114637D01*
X98564637Y-17914759D01*
X98721680Y-17679727D01*
X98829853Y-17418574D01*
X98885000Y-17141335D01*
X98885000Y-16858665D01*
X98829853Y-16581426D01*
X98721680Y-16320273D01*
X98564637Y-16085241D01*
X98364759Y-15885363D01*
X98129727Y-15728320D01*
X97868574Y-15620147D01*
X97591335Y-15565000D01*
X97308665Y-15565000D01*
X97031426Y-15620147D01*
X96770273Y-15728320D01*
X96535241Y-15885363D01*
X96335363Y-16085241D01*
X96178320Y-16320273D01*
X96070147Y-16581426D01*
X96015000Y-16858665D01*
X93879724Y-16858665D01*
X93848787Y-16649870D01*
X93753603Y-16383708D01*
X93686671Y-16258486D01*
X93442702Y-16186903D01*
X92629605Y-17000000D01*
X92270395Y-17000000D01*
X91457298Y-16186903D01*
X91213329Y-16258486D01*
X91092429Y-16513996D01*
X91023700Y-16788184D01*
X91009783Y-17070512D01*
X87985626Y-17070512D01*
X87985000Y-16965750D01*
X87826250Y-16807000D01*
X86677000Y-16807000D01*
X86423000Y-16807000D01*
X85273750Y-16807000D01*
X85115000Y-16965750D01*
X85111928Y-17480000D01*
X84705462Y-17480000D01*
X84847070Y-17243881D01*
X84941909Y-16979040D01*
X84820624Y-16757000D01*
X83677000Y-16757000D01*
X83423000Y-16757000D01*
X82279376Y-16757000D01*
X82158091Y-16979040D01*
X77916734Y-16979040D01*
X77833265Y-16854121D01*
X77260104Y-16280960D01*
X82158091Y-16280960D01*
X82279376Y-16503000D01*
X83423000Y-16503000D01*
X83423000Y-15360085D01*
X83677000Y-15360085D01*
X83677000Y-16503000D01*
X84820624Y-16503000D01*
X84941909Y-16280960D01*
X84847070Y-16016119D01*
X84765436Y-15880000D01*
X85111928Y-15880000D01*
X85115000Y-16394250D01*
X85273750Y-16553000D01*
X86423000Y-16553000D01*
X86423000Y-15403750D01*
X86677000Y-15403750D01*
X86677000Y-16553000D01*
X87826250Y-16553000D01*
X87985000Y-16394250D01*
X87987311Y-16007298D01*
X91636903Y-16007298D01*
X92450000Y-16820395D01*
X93263097Y-16007298D01*
X93191514Y-15763329D01*
X92936004Y-15642429D01*
X92661816Y-15573700D01*
X92379488Y-15559783D01*
X92099870Y-15601213D01*
X91833708Y-15696397D01*
X91708486Y-15763329D01*
X91636903Y-16007298D01*
X87987311Y-16007298D01*
X87988072Y-15880000D01*
X87975812Y-15755518D01*
X87939502Y-15635820D01*
X87880537Y-15525506D01*
X87801185Y-15428815D01*
X87704494Y-15349463D01*
X87594180Y-15290498D01*
X87474482Y-15254188D01*
X87350000Y-15241928D01*
X86835750Y-15245000D01*
X86677000Y-15403750D01*
X86423000Y-15403750D01*
X86264250Y-15245000D01*
X85750000Y-15241928D01*
X85625518Y-15254188D01*
X85505820Y-15290498D01*
X85395506Y-15349463D01*
X85298815Y-15428815D01*
X85219463Y-15525506D01*
X85160498Y-15635820D01*
X85124188Y-15755518D01*
X85111928Y-15880000D01*
X84765436Y-15880000D01*
X84702385Y-15774869D01*
X84513414Y-15566481D01*
X84287420Y-15398963D01*
X84033087Y-15278754D01*
X83899039Y-15238096D01*
X83677000Y-15360085D01*
X83423000Y-15360085D01*
X83200961Y-15238096D01*
X83066913Y-15278754D01*
X82812580Y-15398963D01*
X82586586Y-15566481D01*
X82397615Y-15774869D01*
X82252930Y-16016119D01*
X82158091Y-16280960D01*
X77260104Y-16280960D01*
X77145879Y-16166735D01*
X76337599Y-15626660D01*
X75439486Y-15254650D01*
X74486055Y-15065000D01*
X73513945Y-15065000D01*
X72560514Y-15254650D01*
X71662401Y-15626660D01*
X70854121Y-16166735D01*
X70166735Y-16854121D01*
X69626660Y-17662401D01*
X69254650Y-18560514D01*
X69065000Y-19513945D01*
X68660000Y-19513945D01*
X68660000Y-14660000D01*
X106731070Y-14660000D01*
X106590273Y-14718320D01*
G37*
%TD.AperFunction*%
%TD*%
M02*
